{
.appVersion = "1141";
DisplayStrings = (
"aabacadaeafagahaiajakalamaanaoapaqarasatauavawaxayazababbcbdbebfbgbhbibjbkblbmbbnbobpbqbrbsbtbu\012bvbwbxbybzbcacbccdcecfcgchcicjckclcmccncocpcqcrcsctcucvcwcxcyczcdadbdcddedfdgdhdidjdkdldmddndodpdqdrdsdtdudvdwdxdydzdeaebecedeefegeheiejekelemeeneoepeqereseteuevewexeyezefafbfcfdfeffgfhfifjfkflfmfnfofpfqfrfsftfufvfwfxfyfzfgagbgcgdgegfgghgigjgkglgmggngogpgqgrgsgtgugvgwgxgygzghahbhchdhehfhghhihjhkhlhmhhnhohphqhrhshthuhvhwhxhyhzhiaibicidieifigihiijikiliminioipiqirisitiuiviwixiyizijajbjcjdjejfjgjhjijjkjljmjnjojpjqjrjsjtjjujvjwjxjyjzjkakbkckdkekfkgkhkikjkklkmkknkokpkqkrksktkukvkwkxkykzklalblcldlelflglhliljlkllmlnlollplqlrlsltlulvlwlxlylzlmambmcmdmemfmgmhmimjmkmlmmmnmompmqmrmsmtmumvmwmxmymzmnanbncndnenfngnhninjnknlnmnnnonpnqnrnsntnunvnwnxnynznoaobocodoeofogohoiojokolomoonoopoqorosotouovowoxoyozopapbpcpdpepfpgphpipjpkplpmppnpoppqprpsptpupvpwpxpypzpqaqbqcqdqeqfqgqhqiqjqkqlqmqqnqoqpqqrqsqtquqvqwqxqyqzqrarbrcrdrerfrgrhrirjrkrlrmrrnrorprqrrsrtrurvrwrxryrzrsasbscsdsesfsgshsisjskslsmssnsospsqsrsstsusvswsxsyszstatbtctdtetftgthtitjtktltmttntotptqtrtsttutvtwtxtytztuaubucudueufuguhuiujukulumuunuoupuqurusutuuvuwuxuyuzuvavbvcvdvevfvgvhvivjvkvlvmvvnvovpvqvrvsvtvuvvwvxvyvzvwawbwcwdwewfwgwhwiwjwkwlwmwwnwowpwqwrwswtwuwvwwxwywzwxaxbxcxdxexfxgxhxixjxkxlxmxxnxoxpxqxrxsxtxuxvxwxxyxzxyaybycydyeyfygyhyiyjykylymynyoypyqyrysytyuyvywyxyyzyzazbzczdzezfzgzhzizjzkzlzmzznzozpzqzrzsztzuzvzwzxzyzzæaæbæcædæeæfægæhæiæjækælæmæænæoæpæqæræsætæuævæwæxæyæzæ"
);
classes = (
{
automatic = 1;

glyphs = (
{
glyphname = A;
lastChange = "2018-07-17 14:28:34 +0000";
layers = (
{
anchors = (
{
name = bottom;
position = "{352, 0}";
},
{
name = ogonek;
position = "{609, 10}";
},
{
name = top;
position = "{352, 700}";
}
);
layerId = "3D0525B3-6B2A-4787-8D58-1F6DD6CCA7DC";
paths = (
{
closed = 1;
nodes = (
"337 612 LINE",
"359 548 OFFCURVE",
"379 478 OFFCURVE",
"400 422 CURVE SMOOTH",
"560 0 LINE",
"675 0 LINE",
"406 700 LINE",
"296 700 LINE",
"25 0 LINE",
"135 0 LINE",
"294 418 LINE SMOOTH",
"315 474 OFFCURVE",
"336 548 OFFCURVE",
"360 613 CURVE"
);
},
{
closed = 1;
nodes = (
"520 174 LINE",
"503 278 LINE",
"218 278 LINE",
"175 174 LINE"
);
}
);
width = 700;
},
{
anchors = (
{
name = bottom;
position = "{496, 0}";
},
{
name = ogonek;
position = "{893, 10}";
},
{
name = top;
position = "{496, 700}";
}
);
layerId = "950578AD-3C55-42C9-B412-F732192F54B4";
paths = (
{
closed = 1;
nodes = (
"478 617 LINE",
"500 553 OFFCURVE",
"521 514 OFFCURVE",
"546 462 CURVE SMOOTH",
"771 0 LINE",
"900 0 LINE",
"567 700 LINE",
"427 700 LINE",
"92 0 LINE",
"216 0 LINE",
"439 458 LINE SMOOTH",
"464 510 OFFCURVE",
"486 553 OFFCURVE",
"510 618 CURVE"
);
},
{
closed = 1;
nodes = (
"696 164 LINE",
"679 278 LINE",
"284 278 LINE",
"241 164 LINE"
);
}
);
width = 992;
}
);
leftKerningGroup = A;
note = A;
rightKerningGroup = A;
unicode = 0041;
},
{
glyphname = Aogonek;
lastChange = "2018-06-06 12:09:24 +0000";
layers = (
{
anchors = (
{
name = bottom;
position = "{341, 0}";
},
{
name = top;
position = "{341, 700}";
}
);
layerId = "3D0525B3-6B2A-4787-8D58-1F6DD6CCA7DC";
paths = (
{
closed = 1;
nodes = (
"601 21 LINE",
"602 52 LINE",
"521 30 OFFCURVE",
"427 -43 OFFCURVE",
"427 -114 CURVE SMOOTH",
"427 -178 OFFCURVE",
"480 -221 OFFCURVE",
"547 -221 CURVE SMOOTH",
"595 -221 OFFCURVE",
"637 -200 OFFCURVE",
"671 -177 CURVE",
"632 -118 LINE",
"611 -133 OFFCURVE",
"587 -144 OFFCURVE",
"567 -144 CURVE SMOOTH",
"540 -144 OFFCURVE",
"520 -123 OFFCURVE",
"520 -100 CURVE SMOOTH",
"520 -63 OFFCURVE",
"590 -26 OFFCURVE",
"655 0 CURVE",
"661 32 LINE",
"410 700 LINE",
"290 700 LINE",
"25 0 LINE",
"134 0 LINE",
"287 418 LINE SMOOTH",
"308 474 OFFCURVE",
"329 548 OFFCURVE",
"353 613 CURVE",
"341 612 LINE",
"363 548 OFFCURVE",
"384 478 OFFCURVE",
"404 422 CURVE SMOOTH",
"559 0 LINE"
);
},
{
closed = 1;
nodes = (
"519 174 LINE",
"502 278 LINE",
"217 278 LINE",
"174 174 LINE"
);
}
);
width = 696;
},
{
anchors = (
{
name = bottom;
position = "{496, 0}";
},
{
name = top;
position = "{496, 700}";
}
);
layerId = "950578AD-3C55-42C9-B412-F732192F54B4";
paths = (
{
closed = 1;
nodes = (
"841 0 LINE",
"826 52 LINE",
"745 30 OFFCURVE",
"651 -43 OFFCURVE",
"651 -114 CURVE SMOOTH",
"651 -178 OFFCURVE",
"704 -221 OFFCURVE",
"771 -221 CURVE SMOOTH",
"819 -221 OFFCURVE",
"861 -200 OFFCURVE",
"895 -177 CURVE",
"856 -118 LINE",
"835 -133 OFFCURVE",
"811 -144 OFFCURVE",
"791 -144 CURVE SMOOTH",
"764 -144 OFFCURVE",
"744 -123 OFFCURVE",
"744 -100 CURVE SMOOTH",
"744 -63 OFFCURVE",
"814 -26 OFFCURVE",
"879 0 CURVE",
"885 32 LINE",
"567 700 LINE",
"427 700 LINE",
"92 0 LINE",
"216 0 LINE",
"439 458 LINE SMOOTH",
"464 510 OFFCURVE",
"486 553 OFFCURVE",
"510 618 CURVE",
"478 617 LINE",
"500 553 OFFCURVE",
"521 514 OFFCURVE",
"546 462 CURVE SMOOTH",
"771 0 LINE"
);
},
{
closed = 1;
nodes = (
"696 164 LINE",
"679 278 LINE",
"284 278 LINE",
"241 164 LINE"
);
}
);
width = 987;
}
);
leftMetricsKey = A;
rightMetricsKey = A;
unicode = 0104;
},
{
glyphname = Aring;
lastChange = "2018-07-03 12:05:05 +0000";
layers = (
{
anchors = (
{
name = top;
position = "{354, 853}";
}
);
components = (
{
name = A;
}
);
layerId = "3D0525B3-6B2A-4787-8D58-1F6DD6CCA7DC";
paths = (
{
closed = 1;
nodes = (
"414 631 OFFCURVE",
"470 684 OFFCURVE",
"470 746 CURVE",
"470 811 OFFCURVE",
"414 862 OFFCURVE",
"351 862 CURVE",
"288 862 OFFCURVE",
"231 811 OFFCURVE",
"231 746 CURVE",
"231 684 OFFCURVE",
"288 631 OFFCURVE",
"351 631 CURVE"
);
},
{
closed = 1;
nodes = (
"323 700 OFFCURVE",
"302 720 OFFCURVE",
"302 746 CURVE",
"302 774 OFFCURVE",
"323 793 OFFCURVE",
"351 793 CURVE",
"376 793 OFFCURVE",
"400 776 OFFCURVE",
"400 746 CURVE",
"400 720 OFFCURVE",
"378 700 OFFCURVE",
"351 700 CURVE"
);
}
);
width = 700;
},
{
anchors = (
{
name = top;
position = "{486, 842}";
}
);
components = (
{
name = A;
}
);
layerId = "950578AD-3C55-42C9-B412-F732192F54B4";
paths = (
{
closed = 1;
nodes = (
"556 631 OFFCURVE",
"612 684 OFFCURVE",
"612 746 CURVE",
"612 811 OFFCURVE",
"556 862 OFFCURVE",
"493 862 CURVE",
"430 862 OFFCURVE",
"373 811 OFFCURVE",
"373 746 CURVE",
"373 684 OFFCURVE",
"430 631 OFFCURVE",
"493 631 CURVE"
);
},
{
closed = 1;
nodes = (
"465 700 OFFCURVE",
"444 720 OFFCURVE",
"444 746 CURVE",
"444 774 OFFCURVE",
"465 793 OFFCURVE",
"493 793 CURVE",
"518 793 OFFCURVE",
"542 776 OFFCURVE",
"542 746 CURVE",
"542 720 OFFCURVE",
"520 700 OFFCURVE",
"493 700 CURVE"
);
}
);
width = 992;
}
);
leftMetricsKey = A;
rightMetricsKey = A;
unicode = 00C5;
},
{
glyphname = AE;
lastChange = "2018-06-05 17:34:35 +0000";
layers = (
{
anchors = (
{
name = bottom;
position = "{497, 0}";
},
{
name = top;
position = "{646, 700}";
}
);
layerId = "3D0525B3-6B2A-4787-8D58-1F6DD6CCA7DC";
paths = (
{
closed = 1;
nodes = (
"174 153 LINE",
"488 153 LINE",
"465 166 LINE",
"465 0 LINE",
"894 0 LINE SMOOTH",
"894 -3 OFFCURVE",
"894 18 OFFCURVE",
"894 93 CURVE",
"557 93 LINE",
"566 72 LINE",
"566 322 LINE",
"556 308 LINE",
"849 308 LINE",
"849 402 LINE",
"558 402 LINE",
"566 385 LINE",
"566 616 LINE",
"557 607 LINE",
"894 607 LINE",
"894 700 LINE",
"493 700 LINE",
"5 0 LINE",
"114 0 LINE",
"484 541 LINE",
"465 552 LINE",
"465 213 LINE",
"483 245 LINE",
"228 245 LINE"
);
}
);
width = 944;
},
{
anchors = (
{
name = bottom;
position = "{711, 0}";
},
{
name = top;
position = "{960, 700}";
}
);
layerId = "950578AD-3C55-42C9-B412-F732192F54B4";
paths = (
{
closed = 1;
nodes = (
"301 153 LINE",
"715 153 LINE",
"692 166 LINE",
"692 0 LINE",
"1261 0 LINE SMOOTH",
"1264 0 OFFCURVE",
"1261 33 OFFCURVE",
"1261 108 CURVE",
"804 108 LINE",
"813 87 LINE",
"813 307 LINE",
"803 293 LINE",
"1216 293 LINE",
"1216 402 LINE",
"805 402 LINE",
"813 385 LINE",
"813 600 LINE",
"804 591 LINE",
"1261 591 LINE",
"1261 700 LINE",
"720 700 LINE",
"92 0 LINE",
"231 0 LINE",
"711 541 LINE",
"692 552 LINE",
"692 213 LINE",
"710 265 LINE",
"355 265 LINE"
);
}
);
width = 1422;
}
);
note = AE;
rightMetricsKey = E;
unicode = 00C6;
},
{
glyphname = B;
lastChange = "2018-06-06 12:11:39 +0000";
layers = (
{
anchors = (
{
name = bottom;
position = "{349, 0}";
},
{
name = top;
position = "{349, 700}";
}
);
layerId = "3D0525B3-6B2A-4787-8D58-1F6DD6CCA7DC";
paths = (
{
closed = 1;
nodes = (
"98 700 LINE",
"98 0 LINE",
"400 0 LINE",
"508 0 OFFCURVE",
"633 43 OFFCURVE",
"633 206 CURVE",
"633 354 OFFCURVE",
"500 399 OFFCURVE",
"412 399 CURVE",
"411 363 LINE",
"532 365 OFFCURVE",
"596 433 OFFCURVE",
"596 524 CURVE",
"596 638 OFFCURVE",
"526 700 OFFCURVE",
"390 700 CURVE"
);
},
{
closed = 1;
nodes = (
"437 596 OFFCURVE",
"488 570 OFFCURVE",
"488 503 CURVE",
"488 444 OFFCURVE",
"439 411 OFFCURVE",
"384 410 CURVE",
"197 410 LINE",
"206 399 LINE",
"206 621 LINE",
"196 596 LINE",
"372 596 LINE"
);
},
{
closed = 1;
nodes = (
"450 306 OFFCURVE",
"523 283 OFFCURVE",
"523 208 CURVE",
"523 137 OFFCURVE",
"470 104 OFFCURVE",
"394 104 CURVE",
"200 104 LINE",
"206 84 LINE",
"206 324 LINE",
"201 306 LINE",
"389 306 LINE"
);
}
);
width = 681;
},
{
anchors = (
{
name = bottom;
position = "{498, 0}";
},
{
name = top;
position = "{498, 700}";
}
);
layerId = "950578AD-3C55-42C9-B412-F732192F54B4";
paths = (
{
closed = 1;
nodes = (
"182 700 LINE",
"182 0 LINE",
"554 0 LINE",
"699 0 OFFCURVE",
"867 43 OFFCURVE",
"867 206 CURVE",
"867 354 OFFCURVE",
"710 399 OFFCURVE",
"606 399 CURVE",
"605 363 LINE",
"752 365 OFFCURVE",
"830 433 OFFCURVE",
"830 524 CURVE",
"830 638 OFFCURVE",
"733 700 OFFCURVE",
"544 700 CURVE"
);
},
{
closed = 1;
nodes = (
"648 586 OFFCURVE",
"712 563 OFFCURVE",
"712 503 CURVE",
"712 448 OFFCURVE",
"649 417 OFFCURVE",
"578 416 CURVE",
"291 416 LINE",
"300 399 LINE",
"300 621 LINE",
"290 586 LINE",
"566 586 LINE"
);
},
{
closed = 1;
nodes = (
"658 301 OFFCURVE",
"747 279 OFFCURVE",
"747 208 CURVE",
"747 144 OFFCURVE",
"681 114 OFFCURVE",
"588 114 CURVE",
"294 114 LINE",
"300 84 LINE",
"300 324 LINE",
"295 301 LINE",
"583 301 LINE"
);
}
);
width = 995;
}
);
leftMetricsKey = H;
note = B;
rightKerningGroup = B;
rightMetricsKey = O;
unicode = 0042;
},
{
glyphname = C;
lastChange = "2018-07-17 14:24:13 +0000";
layers = (
{
anchors = (
{
name = bottom;
position = "{377, 0}";
},
{
name = top;
position = "{372, 700}";
}
);
layerId = "3D0525B3-6B2A-4787-8D58-1F6DD6CCA7DC";
paths = (
{
closed = 1;
nodes = (
"576 174 LINE",
"540 137 OFFCURVE",
"478 99 OFFCURVE",
"400 99 CURVE SMOOTH",
"271 99 OFFCURVE",
"158 182 OFFCURVE",
"158 350 CURVE SMOOTH",
"158 504 OFFCURVE",
"270 598 OFFCURVE",
"391 598 CURVE SMOOTH",
"461 598 OFFCURVE",
"521 561 OFFCURVE",
"571 510 CURVE",
"643 585 LINE",
"600 646 OFFCURVE",
"505 706 OFFCURVE",
"391 706 CURVE SMOOTH",
"206 706 OFFCURVE",
"48 556 OFFCURVE",
"48 350 CURVE SMOOTH",
"48 131 OFFCURVE",
"194 -10 OFFCURVE",
"382 -10 CURVE SMOOTH",
"491 -10 OFFCURVE",
"588 37 OFFCURVE",
"630 86 CURVE"
);
}
);
width = 679;
},
{
anchors = (
{
name = bottom;
position = "{392, 0}";
},
{
name = top;
position = "{374, 700}";
}
);
associatedMasterId = "3D0525B3-6B2A-4787-8D58-1F6DD6CCA7DC";
layerId = "A8318955-2332-4256-90D0-5C0B55045161";
name = "Apr 2 18, 12:45";
paths = (
{
closed = 1;
nodes = (
"592 648 OFFCURVE",
"507 706 OFFCURVE",
"386 706 CURVE SMOOTH",
"201 706 OFFCURVE",
"43 556 OFFCURVE",
"43 350 CURVE",
"43 121 OFFCURVE",
"209 -10 OFFCURVE",
"400 -10 CURVE",
"464 -10 OFFCURVE",
"530 9 OFFCURVE",
"581 37 CURVE",
"597 45 OFFCURVE",
"606 61 OFFCURVE",
"606 77 CURVE SMOOTH",
"606 88 OFFCURVE",
"602 99 OFFCURVE",
"594 110 CURVE",
"584 122 OFFCURVE",
"571 127 OFFCURVE",
"558 127 CURVE SMOOTH",
"549 127 OFFCURVE",
"540 125 OFFCURVE",
"532 121 CURVE",
"492 98 OFFCURVE",
"447 86 OFFCURVE",
"400 86 CURVE",
"258 86 OFFCURVE",
"148 180 OFFCURVE",
"148 350 CURVE",
"148 503 OFFCURVE",
"253 610 OFFCURVE",
"386 610 CURVE SMOOTH",
"476 610 OFFCURVE",
"535 561 OFFCURVE",
"555 537 CURVE SMOOTH",
"567 522 OFFCURVE",
"580 512 OFFCURVE",
"596 512 CURVE SMOOTH",
"620 512 OFFCURVE",
"644 531 OFFCURVE",
"644 561 CURVE SMOOTH",
"644 569 OFFCURVE",
"641 580 OFFCURVE",
"633 591 CURVE SMOOTH"
);
}
);
width = 637;
},
{
anchors = (
{
name = bottom;
position = "{392, 0}";
},
{
name = top;
position = "{374, 700}";
}
);
associatedMasterId = "3D0525B3-6B2A-4787-8D58-1F6DD6CCA7DC";
layerId = "77367C94-86C1-49F8-9713-672AA0BC257D";
name = "Apr 2 18, 12:45";
paths = (
{
closed = 1;
nodes = (
"528 689 OFFCURVE",
"465 706 OFFCURVE",
"400 706 CURVE",
"196 706 OFFCURVE",
"43 556 OFFCURVE",
"43 350 CURVE",
"43 121 OFFCURVE",
"209 -10 OFFCURVE",
"400 -10 CURVE",
"464 -10 OFFCURVE",
"530 9 OFFCURVE",
"581 37 CURVE",
"607 51 OFFCURVE",
"614 83 OFFCURVE",
"594 110 CURVE",
"578 129 OFFCURVE",
"554 132 OFFCURVE",
"532 121 CURVE",
"492 98 OFFCURVE",
"447 86 OFFCURVE",
"400 86 CURVE",
"258 86 OFFCURVE",
"148 180 OFFCURVE",
"148 350 CURVE",
"148 503 OFFCURVE",
"249 610 OFFCURVE",
"400 610 CURVE",
"448 610 OFFCURVE",
"493 597 OFFCURVE",
"532 576 CURVE",
"554 564 OFFCURVE",
"578 566 OFFCURVE",
"593 585 CURVE",
"613 610 OFFCURVE",
"608 644 OFFCURVE",
"580 659 CURVE"
);
}
);
visible = 1;
width = 637;
},
{
anchors = (
{
name = bottom;
position = "{491, 0}";
},
{
name = top;
position = "{531, 700}";
}
);
layerId = "950578AD-3C55-42C9-B412-F732192F54B4";
paths = (
{
closed = 1;
nodes = (
"798 200 LINE",
"738 158 OFFCURVE",
"659 105 OFFCURVE",
"540 105 CURVE SMOOTH",
"394 105 OFFCURVE",
"258 189 OFFCURVE",
"258 350 CURVE SMOOTH",
"258 498 OFFCURVE",
"390 590 OFFCURVE",
"522 590 CURVE SMOOTH",
"633 590 OFFCURVE",
"719 549 OFFCURVE",
"791 493 CURVE",
"855 589 LINE",
"794 647 OFFCURVE",
"667 706 OFFCURVE",
"532 706 CURVE SMOOTH",
"315 706 OFFCURVE",
"128 556 OFFCURVE",
"128 350 CURVE SMOOTH",
"128 131 OFFCURVE",
"305 -10 OFFCURVE",
"532 -10 CURVE SMOOTH",
"672 -10 OFFCURVE",
"793 57 OFFCURVE",
"850 104 CURVE"
);
}
);
width = 981;
}
);
leftKerningGroup = C;
leftMetricsKey = O;
note = C;
unicode = 0043;
},
{
glyphname = D;
lastChange = "2018-06-05 17:36:31 +0000";
layers = (
{
anchors = (
{
name = bottom;
position = "{335, 0}";
},
{
name = center;
position = "{147, 350}";
},
{
name = top;
position = "{325, 700}";
}
);
layerId = "3D0525B3-6B2A-4787-8D58-1F6DD6CCA7DC";
paths = (
{
closed = 1;
nodes = (
"98 700 LINE",
"98 0 LINE",
"372 0 LINE SMOOTH",
"588 0 OFFCURVE",
"700 157 OFFCURVE",
"700 350 CURVE SMOOTH",
"700 540 OFFCURVE",
"588 700 OFFCURVE",
"372 700 CURVE SMOOTH"
);
},
{
closed = 1;
nodes = (
"203 104 LINE",
"206 93 LINE",
"206 605 LINE",
"200 596 LINE",
"367 596 LINE SMOOTH",
"524 596 OFFCURVE",
"590 482 OFFCURVE",
"590 350 CURVE SMOOTH",
"590 215 OFFCURVE",
"524 104 OFFCURVE",
"367 104 CURVE SMOOTH"
);
}
);
width = 748;
},
{
anchors = (
{
name = bottom;
position = "{486, 0}";
},
{
name = center;
position = "{297, 350}";
},
{
name = top;
position = "{486, 700}";
}
);
layerId = "950578AD-3C55-42C9-B412-F732192F54B4";
paths = (
{
closed = 1;
nodes = (
"182 700 LINE",
"182 0 LINE",
"536 0 LINE SMOOTH",
"805 0 OFFCURVE",
"944 157 OFFCURVE",
"944 350 CURVE SMOOTH",
"944 540 OFFCURVE",
"805 700 OFFCURVE",
"536 700 CURVE SMOOTH"
);
},
{
closed = 1;
nodes = (
"307 114 LINE",
"310 103 LINE",
"310 595 LINE",
"304 586 LINE",
"531 586 LINE SMOOTH",
"730 586 OFFCURVE",
"814 477 OFFCURVE",
"814 350 CURVE SMOOTH",
"814 220 OFFCURVE",
"730 114 OFFCURVE",
"531 114 CURVE SMOOTH"
);
}
);
width = 1072;
}
);
leftMetricsKey = H;
note = D;
rightKerningGroup = D;
rightMetricsKey = O;
unicode = 0044;
},
{
glyphname = E;
lastChange = "2018-06-05 17:36:50 +0000";
layers = (
{
anchors = (
{
name = bottom;
position = "{322, 0}";
},
{
name = ogonek;
position = "{475, 10}";
},
{
name = top;
position = "{317, 700}";
},
{
name = topleft;
position = "{46, 700}";
}
);
layerId = "3D0525B3-6B2A-4787-8D58-1F6DD6CCA7DC";
paths = (
{
closed = 1;
nodes = (
"98 0 LINE",
"539 0 LINE",
"539 0 OFFCURVE",
"539 104 OFFCURVE",
"539 104 CURVE",
"199 104 LINE",
"206 97 LINE",
"206 316 LINE",
"200 307 LINE",
"484 307 LINE",
"484 411 LINE",
"197 411 LINE",
"206 402 LINE",
"206 614 LINE",
"197 596 LINE",
"539 596 LINE",
"539 700 LINE",
"98 700 LINE"
);
}
);
width = 589;
},
{
anchors = (
{
name = bottom;
position = "{462, 0}";
},
{
name = ogonek;
position = "{831, 10}";
},
{
name = top;
position = "{462, 700}";
},
{
name = topleft;
position = "{20, 700}";
}
);
layerId = "950578AD-3C55-42C9-B412-F732192F54B4";
paths = (
{
closed = 1;
nodes = (
"182 0 LINE",
"763 0 LINE",
"763 0 OFFCURVE",
"763 114 OFFCURVE",
"763 114 CURVE",
"303 114 LINE",
"310 107 LINE",
"310 306 LINE",
"304 297 LINE",
"708 297 LINE",
"708 411 LINE",
"301 411 LINE",
"310 402 LINE",
"310 604 LINE",
"301 586 LINE",
"763 586 LINE",
"763 700 LINE",
"182 700 LINE"
);
}
);
width = 923;
}
);
leftMetricsKey = H;
note = E;
rightKerningGroup = E;
unicode = 0045;
},
{
glyphname = Eogonek;
lastChange = "2018-06-06 12:12:38 +0000";
layers = (
{
anchors = (
{
name = bottom;
position = "{296, 0}";
},
{
name = top;
position = "{293, 700}";
},
{
name = topleft;
position = "{20, 700}";
}
);
components = (
{
name = E;
}
);
layerId = "3D0525B3-6B2A-4787-8D58-1F6DD6CCA7DC";
paths = (
{
closed = 1;
nodes = (
"463 -221 OFFCURVE",
"505 -200 OFFCURVE",
"539 -177 CURVE",
"500 -118 LINE",
"479 -133 OFFCURVE",
"455 -144 OFFCURVE",
"435 -144 CURVE SMOOTH",
"408 -144 OFFCURVE",
"388 -123 OFFCURVE",
"388 -100 CURVE SMOOTH",
"388 -62 OFFCURVE",
"458 -24 OFFCURVE",
"523 0 CURVE",
"470 52 LINE",
"389 30 OFFCURVE",
"295 -43 OFFCURVE",
"295 -114 CURVE SMOOTH",
"295 -178 OFFCURVE",
"348 -221 OFFCURVE",
"415 -221 CURVE SMOOTH"
);
}
);
width = 589;
},
{
components = (
{
name = E;
}
);
layerId = "950578AD-3C55-42C9-B412-F732192F54B4";
paths = (
{
closed = 1;
nodes = (
"703 -221 OFFCURVE",
"745 -200 OFFCURVE",
"779 -177 CURVE",
"740 -118 LINE",
"719 -133 OFFCURVE",
"695 -144 OFFCURVE",
"675 -144 CURVE SMOOTH",
"648 -144 OFFCURVE",
"628 -123 OFFCURVE",
"628 -100 CURVE SMOOTH",
"628 -62 OFFCURVE",
"698 -24 OFFCURVE",
"763 0 CURVE",
"710 52 LINE",
"629 30 OFFCURVE",
"535 -43 OFFCURVE",
"535 -114 CURVE SMOOTH",
"535 -178 OFFCURVE",
"588 -221 OFFCURVE",
"655 -221 CURVE SMOOTH"
);
}
);
width = 939;
}
);
leftMetricsKey = E;
note = Eogonek;
rightMetricsKey = E;
unicode = 0118;
},
{
glyphname = F;
lastChange = "2018-06-06 12:45:01 +0000";
layers = (
{
layerId = "3D0525B3-6B2A-4787-8D58-1F6DD6CCA7DC";
paths = (
{
closed = 1;
nodes = (
"94 0 OFFCURVE",
"203 0 OFFCURVE",
"206 0 CURVE",
"206 307 LINE",
"198 298 LINE",
"477 298 LINE",
"477 402 LINE",
"200 402 LINE",
"206 390 LINE",
"206 606 LINE",
"198 596 LINE",
"522 596 LINE",
"522 700 LINE",
"98 700 LINE",
"98 0 LINE"
);
}
);
width = 572;
},
{
layerId = "950578AD-3C55-42C9-B412-F732192F54B4";
paths = (
{
closed = 1;
nodes = (
"178 0 OFFCURVE",
"307 0 OFFCURVE",
"310 0 CURVE",
"310 307 LINE",
"302 288 LINE",
"711 288 LINE",
"711 402 LINE",
"304 402 LINE",
"310 390 LINE",
"310 606 LINE",
"302 586 LINE",
"756 586 LINE",
"756 700 LINE",
"182 700 LINE",
"182 0 LINE"
);
}
);
width = 916;
}
);
leftMetricsKey = H;
note = F;
rightKerningGroup = F;
unicode = 0046;
},
{
glyphname = G;
lastChange = "2018-07-17 14:33:03 +0000";
layers = (
{
anchors = (
{
name = bottom;
position = "{413, 0}";
},
{
name = top;
position = "{400, 700}";
}
);
layerId = "3D0525B3-6B2A-4787-8D58-1F6DD6CCA7DC";
paths = (
{
closed = 1;
nodes = (
"206 706 OFFCURVE",
"48 552 OFFCURVE",
"48 350 CURVE",
"48 148 OFFCURVE",
"207 -10 OFFCURVE",
"411 -10 CURVE",
"514 -10 OFFCURVE",
"602 32 OFFCURVE",
"655 99 CURVE SMOOTH",
"714 165 OFFCURVE",
"732 266 OFFCURVE",
"718 359 CURVE",
"408 359 LINE",
"408 252 LINE",
"622 252 LINE",
"606 266 LINE",
"621 167 OFFCURVE",
"521 95 OFFCURVE",
"414 95 CURVE SMOOTH",
"275 95 OFFCURVE",
"158 208 OFFCURVE",
"158 350 CURVE",
"158 493 OFFCURVE",
"267 601 OFFCURVE",
"410 601 CURVE SMOOTH",
"484 601 OFFCURVE",
"549 565 OFFCURVE",
"602 514 CURVE",
"672 587 LINE",
"627 648 OFFCURVE",
"529 706 OFFCURVE",
"410 706 CURVE SMOOTH"
);
}
);
width = 766;
},
{
anchors = (
{
name = bottom;
position = "{541, 0}";
},
{
name = top;
position = "{541, 700}";
}
);
layerId = "950578AD-3C55-42C9-B412-F732192F54B4";
paths = (
{
closed = 1;
nodes = (
"317 706 OFFCURVE",
"128 552 OFFCURVE",
"128 350 CURVE",
"128 112 OFFCURVE",
"322 -10 OFFCURVE",
"544 -10 CURVE",
"708 -10 OFFCURVE",
"834 38 OFFCURVE",
"901 121 CURVE SMOOTH",
"943 175 OFFCURVE",
"972 266 OFFCURVE",
"958 359 CURVE",
"558 359 LINE",
"558 242 LINE",
"842 242 LINE",
"826 266 LINE",
"837 173 OFFCURVE",
"714 105 OFFCURVE",
"553 105 CURVE SMOOTH",
"402 105 OFFCURVE",
"258 179 OFFCURVE",
"258 350 CURVE",
"258 487 OFFCURVE",
"389 591 OFFCURVE",
"560 591 CURVE SMOOTH",
"661 591 OFFCURVE",
"750 555 OFFCURVE",
"822 504 CURVE",
"892 587 LINE",
"835 648 OFFCURVE",
"711 706 OFFCURVE",
"560 706 CURVE SMOOTH"
);
}
);
width = 1082;
}
);
leftKerningGroup = C;
leftMetricsKey = O;
note = G;
rightKerningGroup = G;
unicode = 0047;
},
{
glyphname = H;
lastChange = "2018-06-05 17:37:44 +0000";
layers = (
{
anchors = (
{
name = bottom;
position = "{376, 0}";
},
{
name = center;
position = "{376, 350}";
},
{
name = top;
position = "{376, 700}";
},
{
name = topleft;
position = "{36, 700}";
}
);
layerId = "3D0525B3-6B2A-4787-8D58-1F6DD6CCA7DC";
paths = (
{
closed = 1;
nodes = (
"98 700 LINE",
"98 0 LINE",
"206 0 LINE",
"206 700 LINE"
);
},
{
closed = 1;
nodes = (
"555 700 LINE",
"555 0 LINE",
"663 0 LINE",
"663 700 LINE"
);
},
{
closed = 1;
nodes = (
"145 297 LINE",
"603 297 LINE",
"603 401 LINE",
"146 401 LINE"
);
}
);
width = 761;
},
{
anchors = (
{
name = bottom;
position = "{545, 0}";
},
{
name = center;
position = "{545, 350}";
},
{
name = top;
position = "{545, 700}";
},
{
name = topleft;
position = "{20, 700}";
}
);
layerId = "950578AD-3C55-42C9-B412-F732192F54B4";
paths = (
{
closed = 1;
nodes = (
"182 700 LINE",
"182 0 LINE",
"310 0 LINE",
"310 700 LINE"
);
},
{
closed = 1;
nodes = (
"779 700 LINE",
"779 0 LINE",
"907 0 LINE",
"907 700 LINE"
);
},
{
closed = 1;
nodes = (
"229 287 LINE",
"827 287 LINE",
"827 401 LINE",
"230 401 LINE"
);
}
);
width = 1089;
}
);
note = H;
unicode = 0048;
},
{
glyphname = Hbar;
lastChange = "2018-07-19 20:33:34 +0000";
layers = (
{
components = (
{
name = H;
transform = "{1, 0, 0, 1, 48, 0}";
}
);
layerId = "3D0525B3-6B2A-4787-8D58-1F6DD6CCA7DC";
paths = (
{
closed = 1;
nodes = (
"163 468 LINE",
"209 478 LINE",
"625 478 LINE",
"656 468 LINE",
"800 468 LINE",
"800 572 LINE",
"649 572 LINE",
"613 562 LINE",
"219 562 LINE",
"173 572 LINE",
"57 572 LINE",
"57 468 LINE"
);
}
);
width = 857;
},
{
components = (
{
name = H;
transform = "{1, 0, 0, 1, 48, 0}";
}
);
layerId = "950578AD-3C55-42C9-B412-F732192F54B4";
paths = (
{
closed = 1;
nodes = (
"233 468 LINE",
"279 478 LINE",
"906 478 LINE",
"937 468 LINE",
"1109 468 LINE",
"1109 572 LINE",
"930 572 LINE",
"894 562 LINE",
"289 562 LINE",
"243 572 LINE",
"87 572 LINE",
"87 468 LINE"
);
}
);
width = 1196;
}
);
note = Hbar;
unicode = 0126;
},
{
glyphname = I;
lastChange = "2018-06-05 17:37:40 +0000";
layers = (
{
anchors = (
{
name = bottom;
position = "{238, 0}";
},
{
name = ogonek;
position = "{428, 10}";
},
{
name = top;
position = "{238, 700}";
},
{
name = topleft;
position = "{123, 700}";
}
);
layerId = "3D0525B3-6B2A-4787-8D58-1F6DD6CCA7DC";
paths = (
{
closed = 1;
nodes = (
"293 700 LINE",
"292 700 OFFCURVE",
"186 700 OFFCURVE",
"185 700 CURVE",
"185 0 LINE",
"293 0 LINE"
);
},
{
closed = 1;
nodes = (
"406 700 LINE",
"72 700 LINE",
"72 600 LINE",
"406 600 LINE"
);
},
{
closed = 1;
nodes = (
"406 100 LINE",
"72 100 LINE",
"72 0 LINE",
"406 0 LINE"
);
}
);
width = 478;
},
{
anchors = (
{
name = bottom;
position = "{427, 0}";
},
{
name = ogonek;
position = "{769, 10}";
},
{
name = top;
position = "{427, 700}";
},
{
name = topleft;
position = "{20, 700}";
}
);
layerId = "950578AD-3C55-42C9-B412-F732192F54B4";
paths = (
{
closed = 1;
nodes = (
"491 700 LINE",
"490 700 OFFCURVE",
"364 700 OFFCURVE",
"363 700 CURVE",
"363 0 LINE",
"491 0 LINE"
);
},
{
closed = 1;
nodes = (
"664 700 LINE",
"190 700 LINE",
"190 590 LINE",
"664 590 LINE"
);
},
{
closed = 1;
nodes = (
"664 110 LINE",
"190 110 LINE",
"190 0 LINE",
"664 0 LINE"
);
}
);
width = 854;
}
);
note = I;
unicode = 0049;
},
{
glyphname = J;
lastChange = "2018-07-17 14:00:33 +0000";
layers = (
{
anchors = (
{
name = bottom;
position = "{280, 0}";
},
{
name = top;
position = "{427, 700}";
}
);
layerId = "3D0525B3-6B2A-4787-8D58-1F6DD6CCA7DC";
paths = (
{
closed = 1;
nodes = (
"382 -10 OFFCURVE",
"464 99 OFFCURVE",
"464 213 CURVE",
"464 700 LINE",
"356 700 LINE",
"356 223 LINE",
"356 152 OFFCURVE",
"311 95 OFFCURVE",
"236 95 CURVE SMOOTH",
"164 95 OFFCURVE",
"132 141 OFFCURVE",
"98 188 CURVE",
"30 117 LINE",
"46 86 OFFCURVE",
"108 -10 OFFCURVE",
"236 -10 CURVE"
);
},
{
closed = 1;
nodes = (
"572 700 LINE",
"228 700 LINE",
"228 600 LINE",
"572 600 LINE"
);
}
);
width = 582;
},
{
anchors = (
{
name = bottom;
position = "{441, 0}";
},
{
name = top;
position = "{632, 700}";
}
);
layerId = "950578AD-3C55-42C9-B412-F732192F54B4";
paths = (
{
closed = 1;
nodes = (
"592 -10 OFFCURVE",
"699 128 OFFCURVE",
"699 273 CURVE",
"699 700 LINE",
"571 700 LINE",
"571 283 LINE",
"571 184 OFFCURVE",
"507 105 OFFCURVE",
"401 105 CURVE SMOOTH",
"298 105 OFFCURVE",
"252 166 OFFCURVE",
"203 228 CURVE",
"125 147 LINE",
"146 109 OFFCURVE",
"230 -10 OFFCURVE",
"401 -10 CURVE"
);
},
{
closed = 1;
nodes = (
"831 700 LINE",
"417 700 LINE",
"417 590 LINE",
"831 590 LINE"
);
}
);
width = 881;
}
);
leftKerningGroup = J;
note = J;
rightKerningGroup = J;
unicode = 004A;
},
{
glyphname = K;
lastChange = "2018-07-03 12:13:50 +0000";
layers = (
{
anchors = (
{
name = bottom;
position = "{336, 0}";
},
{
name = top;
position = "{348, 700}";
}
);
layerId = "3D0525B3-6B2A-4787-8D58-1F6DD6CCA7DC";
paths = (
{
closed = 1;
nodes = (
"697 0 LINE",
"374 427 LINE",
"307 341 LINE",
"562 0 LINE"
);
},
{
closed = 1;
nodes = (
"549 700 LINE",
"315 466 LINE",
"182 333 LINE",
"188 212 LINE",
"691 700 LINE"
);
},
{
closed = 1;
nodes = (
"206 700 LINE",
"205 700 OFFCURVE",
"99 700 OFFCURVE",
"98 700 CURVE",
"98 0 LINE",
"206 0 LINE"
);
}
);
width = 717;
},
{
anchors = (
{
name = bottom;
position = "{536, 0}";
},
{
name = top;
position = "{536, 700}";
}
);
layerId = "950578AD-3C55-42C9-B412-F732192F54B4";
paths = (
{
closed = 1;
nodes = (
"921 0 LINE",
"537 465 LINE",
"450 379 LINE",
"757 0 LINE"
);
},
{
closed = 1;
nodes = (
"755 700 LINE",
"275 325 LINE",
"282 192 LINE",
"935 700 LINE"
);
},
{
closed = 1;
nodes = (
"310 700 LINE",
"309 700 OFFCURVE",
"183 700 OFFCURVE",
"182 700 CURVE",
"182 0 LINE",
"310 0 LINE"
);
}
);
width = 1071;
}
);
leftMetricsKey = H;
note = K;
rightKerningGroup = K;
unicode = 004B;
},
{
glyphname = L;
lastChange = "2018-06-05 17:39:12 +0000";
layers = (
{
anchors = (
{
name = bottom;
position = "{298, 0}";
},
{
name = center;
position = "{291, 350}";
},
{
name = top;
position = "{141, 700}";
},
{
name = topright;
position = "{547, 700}";
}
);
layerId = "3D0525B3-6B2A-4787-8D58-1F6DD6CCA7DC";
paths = (
{
closed = 1;
nodes = (
"178 104 LINE",
"206 78 LINE",
"206 700 LINE",
"98 700 LINE",
"98 0 LINE",
"534 0 LINE",
"534 0 OFFCURVE",
"534 104 OFFCURVE",
"534 104 CURVE"
);
}
);
width = 579;
},
{
anchors = (
{
name = bottom;
position = "{429, 0}";
},
{
name = center;
position = "{429, 350}";
},
{
name = top;
position = "{236, 700}";
},
{
name = topright;
position = "{838, 700}";
}
);
layerId = "950578AD-3C55-42C9-B412-F732192F54B4";
paths = (
{
closed = 1;
nodes = (
"262 114 LINE",
"310 78 LINE",
"310 700 LINE",
"182 700 LINE",
"182 0 LINE",
"758 0 LINE",
"758 0 OFFCURVE",
"758 114 OFFCURVE",
"758 114 CURVE"
);
}
);
width = 858;
}
);
leftMetricsKey = H;
note = L;
rightKerningGroup = L;
unicode = 004C;
},
{
glyphname = Lslash;
lastChange = "2018-06-05 17:39:50 +0000";
layers = (
{
components = (
{
name = L;
transform = "{1, 0, 0, 1, 39, 0}";
}
);
layerId = "3D0525B3-6B2A-4787-8D58-1F6DD6CCA7DC";
paths = (
{
closed = 1;
nodes = (
"69 256 LINE",
"363 382 LINE",
"331 459 LINE",
"40 328 LINE"
);
}
);
width = 618;
},
{
components = (
{
name = L;
transform = "{1, 0, 0, 1, 39, 0}";
}
);
layerId = "950578AD-3C55-42C9-B412-F732192F54B4";
paths = (
{
closed = 1;
nodes = (
"59 226 LINE",
"623 439 LINE",
"591 536 LINE",
"30 318 LINE"
);
}
);
width = 897;
}
);
note = Lslash;
rightMetricsKey = L;
unicode = 0141;
},
{
glyphname = M;
lastChange = "2018-06-05 17:39:57 +0000";
layers = (
{
anchors = (
{
name = bottom;
position = "{433, 0}";
},
{
name = top;
position = "{433, 700}";
}
);
layerId = "3D0525B3-6B2A-4787-8D58-1F6DD6CCA7DC";
paths = (
{
closed = 1;
nodes = (
"98 700 LINE",
"98 0 LINE",
"99 0 OFFCURVE",
"205 0 OFFCURVE",
"206 0 CURVE",
"206 287 LINE SMOOTH",
"206 398 OFFCURVE",
"202 490 OFFCURVE",
"186 592 CURVE",
"175 551 LINE",
"397 201 LINE",
"463 201 LINE",
"692 555 LINE",
"678 592 LINE",
"663 490 OFFCURVE",
"658 398 OFFCURVE",
"658 287 CURVE SMOOTH",
"658 0 LINE",
"766 0 LINE",
"766 700 LINE",
"666 700 LINE",
"408 286 LINE",
"459 285 LINE",
"204 700 LINE"
);
}
);
width = 864;
},
{
anchors = (
{
name = bottom;
position = "{596, 0}";
},
{
name = top;
position = "{596, 700}";
}
);
layerId = "950578AD-3C55-42C9-B412-F732192F54B4";
paths = (
{
closed = 1;
nodes = (
"182 700 LINE",
"182 0 LINE",
"183 0 OFFCURVE",
"309 0 OFFCURVE",
"310 0 CURVE",
"310 287 LINE SMOOTH",
"310 398 OFFCURVE",
"306 490 OFFCURVE",
"290 592 CURVE",
"269 541 LINE",
"555 201 LINE",
"621 201 LINE",
"926 550 LINE",
"902 592 LINE",
"887 490 OFFCURVE",
"882 398 OFFCURVE",
"882 287 CURVE SMOOTH",
"882 0 LINE",
"1010 0 LINE",
"1010 700 LINE",
"900 700 LINE",
"566 306 LINE",
"617 305 LINE",
"298 700 LINE"
);
}
);
width = 1192;
}
);
leftMetricsKey = H;
note = M;
rightMetricsKey = H;
unicode = 004D;
},
{
glyphname = N;
lastChange = "2018-06-05 17:40:02 +0000";
layers = (
{
anchors = (
{
name = bottom;
position = "{393, 0}";
},
{
name = top;
position = "{393, 700}";
}
);
layerId = "3D0525B3-6B2A-4787-8D58-1F6DD6CCA7DC";
paths = (
{
closed = 1;
nodes = (
"586 700 OFFCURVE",
"587 700 CURVE",
"587 470 LINE",
"587 360 OFFCURVE",
"591 219 OFFCURVE",
"607 118 CURVE",
"623 127 LINE",
"195 700 LINE",
"98 700 LINE",
"98 0 LINE",
"206 0 LINE",
"206 291 LINE",
"206 383 OFFCURVE",
"194 474 OFFCURVE",
"186 566 CURVE",
"175 552 LINE",
"596 0 LINE",
"695 0 LINE",
"695 700 LINE",
"692 700 OFFCURVE"
);
}
);
width = 793;
},
{
anchors = (
{
name = bottom;
position = "{561, 0}";
},
{
name = top;
position = "{561, 700}";
}
);
layerId = "950578AD-3C55-42C9-B412-F732192F54B4";
paths = (
{
closed = 1;
nodes = (
"810 700 OFFCURVE",
"811 700 CURVE",
"811 470 LINE",
"811 360 OFFCURVE",
"815 219 OFFCURVE",
"831 118 CURVE",
"857 147 LINE",
"289 700 LINE",
"182 700 LINE",
"182 0 LINE",
"310 0 LINE",
"310 291 LINE",
"310 383 OFFCURVE",
"298 474 OFFCURVE",
"290 566 CURVE",
"269 532 LINE",
"830 0 LINE",
"939 0 LINE",
"939 700 LINE",
"936 700 OFFCURVE"
);
}
);
width = 1121;
}
);
leftMetricsKey = H;
note = N;
rightMetricsKey = H;
unicode = 004E;
},
{
glyphname = Eng;
lastChange = "2018-06-06 12:14:37 +0000";
layers = (
{
layerId = "3D0525B3-6B2A-4787-8D58-1F6DD6CCA7DC";
paths = (
{
closed = 1;
nodes = (
"587 76 LINE",
"587 1 LINE SMOOTH",
"587 -73 OFFCURVE",
"552 -118 OFFCURVE",
"471 -118 CURVE",
"510 -197 LINE",
"618 -197 OFFCURVE",
"695 -131 OFFCURVE",
"695 -24 CURVE SMOOTH",
"695 58 LINE",
"695 700 LINE",
"692 700 OFFCURVE",
"586 700 OFFCURVE",
"587 700 CURVE",
"587 470 LINE",
"587 360 OFFCURVE",
"591 219 OFFCURVE",
"607 118 CURVE",
"623 127 LINE",
"195 700 LINE",
"98 700 LINE",
"98 0 LINE",
"206 0 LINE",
"206 291 LINE",
"206 383 OFFCURVE",
"194 474 OFFCURVE",
"186 566 CURVE",
"175 552 LINE",
"596 0 LINE"
);
}
);
width = 793;
},
{
layerId = "950578AD-3C55-42C9-B412-F732192F54B4";
paths = (
{
closed = 1;
nodes = (
"815 166 LINE",
"816 131 LINE",
"816 -10 OFFCURVE",
"760 -95 OFFCURVE",
"630 -95 CURVE",
"669 -197 LINE",
"822 -197 OFFCURVE",
"939 -81 OFFCURVE",
"939 106 CURVE SMOOTH",
"939 178 LINE",
"939 700 LINE",
"936 700 OFFCURVE",
"810 700 OFFCURVE",
"811 700 CURVE",
"811 470 LINE",
"811 360 OFFCURVE",
"815 219 OFFCURVE",
"831 118 CURVE",
"857 147 LINE",
"289 700 LINE",
"182 700 LINE",
"182 0 LINE",
"310 0 LINE",
"310 291 LINE",
"310 383 OFFCURVE",
"298 474 OFFCURVE",
"290 566 CURVE",
"269 532 LINE",
"830 0 LINE"
);
}
);
width = 1121;
}
);
leftMetricsKey = N;
note = Eng;
rightMetricsKey = N;
unicode = 014A;
},
{
glyphname = Nhookleft;
lastChange = "2018-06-06 12:15:11 +0000";
layers = (
{
layerId = "3D0525B3-6B2A-4787-8D58-1F6DD6CCA7DC";
paths = (
{
closed = 1;
nodes = (
"190 291 LINE",
"190 383 OFFCURVE",
"178 474 OFFCURVE",
"170 566 CURVE",
"159 552 LINE",
"580 0 LINE",
"679 0 LINE",
"679 700 LINE",
"676 700 OFFCURVE",
"570 700 OFFCURVE",
"571 700 CURVE",
"571 470 LINE",
"571 360 OFFCURVE",
"575 219 OFFCURVE",
"591 118 CURVE",
"607 127 LINE",
"179 700 LINE",
"82 700 LINE",
"82 1 LINE SMOOTH",
"82 -73 OFFCURVE",
"47 -118 OFFCURVE",
"-34 -118 CURVE",
"5 -197 LINE",
"113 -197 OFFCURVE",
"190 -131 OFFCURVE",
"190 -24 CURVE SMOOTH"
);
}
);
width = 777;
},
{
layerId = "950578AD-3C55-42C9-B412-F732192F54B4";
paths = (
{
closed = 1;
nodes = (
"310 291 LINE",
"310 383 OFFCURVE",
"298 474 OFFCURVE",
"290 566 CURVE",
"269 532 LINE",
"830 0 LINE",
"939 0 LINE",
"939 700 LINE",
"936 700 OFFCURVE",
"810 700 OFFCURVE",
"811 700 CURVE",
"811 470 LINE",
"811 360 OFFCURVE",
"815 219 OFFCURVE",
"831 118 CURVE",
"857 147 LINE",
"289 700 LINE",
"182 700 LINE",
"182 131 LINE SMOOTH",
"182 -10 OFFCURVE",
"131 -95 OFFCURVE",
"1 -95 CURVE",
"40 -197 LINE",
"193 -197 OFFCURVE",
"310 -81 OFFCURVE",
"310 106 CURVE SMOOTH"
);
}
);
width = 1121;
}
);
rightMetricsKey = N;
unicode = 019D;
},
{
glyphname = O;
lastChange = "2018-07-17 14:14:17 +0000";
layers = (
{
anchors = (
{
name = bottom;
position = "{386, 0}";
},
{
name = center;
position = "{386, 350}";
},
{
name = ogonek;
position = "{690, 10}";
},
{
name = top;
position = "{386, 700}";
},
{
name = topleft;
position = "{25, 700}";
},
{
name = topright;
position = "{387, 706}";
}
);
layerId = "3D0525B3-6B2A-4787-8D58-1F6DD6CCA7DC";
paths = (
{
closed = 1;
nodes = (
"734 553 OFFCURVE",
"591 710 OFFCURVE",
"391 710 CURVE",
"190 710 OFFCURVE",
"48 553 OFFCURVE",
"48 350 CURVE",
"48 147 OFFCURVE",
"190 -10 OFFCURVE",
"391 -10 CURVE",
"591 -10 OFFCURVE",
"734 147 OFFCURVE",
"734 350 CURVE"
);
},
{
closed = 1;
nodes = (
"624 205 OFFCURVE",
"527 95 OFFCURVE",
"391 95 CURVE SMOOTH",
"253 95 OFFCURVE",
"158 204 OFFCURVE",
"158 350 CURVE",
"158 496 OFFCURVE",
"253 605 OFFCURVE",
"391 605 CURVE SMOOTH",
"527 605 OFFCURVE",
"624 495 OFFCURVE",
"624 350 CURVE"
);
}
);
width = 782;
},
{
anchors = (
{
name = bottom;
position = "{551, 0}";
},
{
name = center;
position = "{551, 350}";
},
{
name = ogonek;
position = "{646, 10}";
},
{
name = top;
position = "{551, 700}";
},
{
name = topleft;
position = "{20, 700}";
},
{
name = topright;
position = "{798, 710}";
}
);
layerId = "950578AD-3C55-42C9-B412-F732192F54B4";
paths = (
{
closed = 1;
nodes = (
"974 553 OFFCURVE",
"798 710 OFFCURVE",
"551 710 CURVE",
"303 710 OFFCURVE",
"128 553 OFFCURVE",
"128 350 CURVE",
"128 147 OFFCURVE",
"303 -10 OFFCURVE",
"551 -10 CURVE",
"798 -10 OFFCURVE",
"974 147 OFFCURVE",
"974 350 CURVE"
);
},
{
closed = 1;
nodes = (
"844 211 OFFCURVE",
"722 105 OFFCURVE",
"551 105 CURVE SMOOTH",
"377 105 OFFCURVE",
"258 210 OFFCURVE",
"258 350 CURVE",
"258 490 OFFCURVE",
"377 595 OFFCURVE",
"551 595 CURVE SMOOTH",
"722 595 OFFCURVE",
"844 489 OFFCURVE",
"844 350 CURVE"
);
}
);
width = 1102;
}
);
leftKerningGroup = C;
note = O;
rightKerningGroup = D;
unicode = 004F;
},
{
glyphname = Oslash;
lastChange = "2018-07-03 12:14:28 +0000";
layers = (
{
anchors = (
{
name = bottom;
position = "{368, 0}";
},
{
name = top;
position = "{368, 700}";
}
);
components = (
{
name = O;
transform = "{1, 0, 0, 1, 1, 0}";
}
);
layerId = "3D0525B3-6B2A-4787-8D58-1F6DD6CCA7DC";
paths = (
{
closed = 1;
nodes = (
"103 -33 LINE",
"697 694 LINE",
"629 741 LINE",
"40 20 LINE"
);
}
);
width = 770;
},
{
anchors = (
{
name = bottom;
position = "{551, 0}";
},
{
name = top;
position = "{551, 700}";
}
);
components = (
{
name = O;
}
);
layerId = "950578AD-3C55-42C9-B412-F732192F54B4";
paths = (
{
closed = 1;
nodes = (
"171 -34 LINE",
"985 669 LINE",
"919 737 LINE",
"111 39 LINE"
);
}
);
width = 1102;
}
);
note = Oslash;
unicode = 00D8;
},
{
glyphname = OE;
lastChange = "2018-06-06 11:22:16 +0000";
layers = (
{
anchors = (
{
name = bottom;
position = "{492, 0}";
},
{
name = top;
position = "{492, 700}";
}
);
layerId = "3D0525B3-6B2A-4787-8D58-1F6DD6CCA7DC";
paths = (
{
closed = 1;
nodes = (
"167 700 OFFCURVE",
"48 540 OFFCURVE",
"48 350 CURVE SMOOTH",
"48 157 OFFCURVE",
"160 0 OFFCURVE",
"375 0 CURVE SMOOTH",
"952 0 LINE",
"952 0 OFFCURVE",
"952 104 OFFCURVE",
"952 104 CURVE",
"612 104 LINE",
"619 97 LINE",
"619 316 LINE",
"613 307 LINE",
"897 307 LINE",
"897 411 LINE",
"610 411 LINE",
"619 402 LINE",
"619 614 LINE",
"610 596 LINE",
"952 596 LINE",
"952 700 LINE",
"395 700 LINE SMOOTH"
);
},
{
closed = 1;
nodes = (
"552 104 LINE",
"378 104 LINE SMOOTH",
"223 104 OFFCURVE",
"158 214 OFFCURVE",
"158 350 CURVE SMOOTH",
"158 483 OFFCURVE",
"229 596 OFFCURVE",
"398 596 CURVE SMOOTH",
"552 596 LINE",
"511 641 LINE",
"511 57 LINE"
);
}
);
width = 1002;
},
{
anchors = (
{
name = bottom;
position = "{736, 0}";
},
{
name = top;
position = "{736, 700}";
}
);
layerId = "950578AD-3C55-42C9-B412-F732192F54B4";
paths = (
{
closed = 1;
nodes = (
"271 700 OFFCURVE",
"128 540 OFFCURVE",
"128 350 CURVE SMOOTH",
"128 157 OFFCURVE",
"264 0 OFFCURVE",
"525 0 CURVE SMOOTH",
"1312 0 LINE",
"1312 0 OFFCURVE",
"1312 114 OFFCURVE",
"1312 114 CURVE",
"832 114 LINE",
"839 107 LINE",
"839 306 LINE",
"833 297 LINE",
"1257 297 LINE",
"1257 411 LINE",
"830 411 LINE",
"839 402 LINE",
"839 604 LINE",
"830 586 LINE",
"1312 586 LINE",
"1312 700 LINE",
"545 700 LINE SMOOTH"
);
},
{
closed = 1;
nodes = (
"772 114 LINE",
"528 114 LINE SMOOTH",
"338 114 OFFCURVE",
"258 220 OFFCURVE",
"258 350 CURVE SMOOTH",
"258 478 OFFCURVE",
"344 586 OFFCURVE",
"548 586 CURVE SMOOTH",
"772 586 LINE",
"731 641 LINE",
"731 57 LINE"
);
}
);
width = 1472;
}
);
leftMetricsKey = O;
note = OE;
rightMetricsKey = E;
unicode = 0152;
},
{
glyphname = P;
lastChange = "2018-07-17 14:28:18 +0000";
layers = (
{
anchors = (
{
name = bottom;
position = "{321, 0}";
},
{
name = top;
position = "{321, 700}";
}
);
layerId = "3D0525B3-6B2A-4787-8D58-1F6DD6CCA7DC";
paths = (
{
closed = 1;
nodes = (
"98 700 LINE",
"98 0 LINE",
"206 0 LINE",
"206 282 LINE",
"198 268 LINE",
"383 268 LINE SMOOTH",
"495 268 OFFCURVE",
"589 364 OFFCURVE",
"589 485 CURVE SMOOTH",
"589 606 OFFCURVE",
"495 700 OFFCURVE",
"383 700 CURVE SMOOTH"
);
},
{
closed = 1;
nodes = (
"197 372 LINE",
"206 358 LINE",
"206 611 LINE",
"197 596 LINE",
"381 596 LINE SMOOTH",
"434 596 OFFCURVE",
"479 547 OFFCURVE",
"479 485 CURVE SMOOTH",
"479 423 OFFCURVE",
"434 372 OFFCURVE",
"381 372 CURVE SMOOTH"
);
}
);
width = 634;
},
{
anchors = (
{
name = bottom;
position = "{477, 0}";
},
{
name = top;
position = "{477, 700}";
}
);
layerId = "950578AD-3C55-42C9-B412-F732192F54B4";
paths = (
{
closed = 1;
nodes = (
"182 700 LINE",
"182 0 LINE",
"310 0 LINE",
"310 282 LINE",
"302 258 LINE",
"563 258 LINE SMOOTH",
"710 258 OFFCURVE",
"833 358 OFFCURVE",
"833 485 CURVE SMOOTH",
"833 606 OFFCURVE",
"719 700 OFFCURVE",
"583 700 CURVE SMOOTH"
);
},
{
closed = 1;
nodes = (
"301 372 LINE",
"310 358 LINE",
"310 611 LINE",
"301 586 LINE",
"561 586 LINE SMOOTH",
"638 586 OFFCURVE",
"703 541 OFFCURVE",
"703 485 CURVE SMOOTH",
"703 423 OFFCURVE",
"638 372 OFFCURVE",
"561 372 CURVE SMOOTH"
);
}
);
width = 953;
}
);
leftMetricsKey = H;
note = P;
rightKerningGroup = P;
unicode = 0050;
},
{
glyphname = Thorn;
lastChange = "2018-08-06 14:52:10 +0000";
layers = (
{
anchors = (
{
name = bottom;
position = "{295, 0}";
},
{
name = top;
position = "{295, 700}";
}
);
layerId = "3D0525B3-6B2A-4787-8D58-1F6DD6CCA7DC";
paths = (
{
closed = 1;
nodes = (
"98 700 LINE",
"98 0 LINE",
"206 0 LINE",
"206 700 LINE"
);
},
{
closed = 1;
nodes = (
"198 141 LINE",
"383 141 LINE SMOOTH",
"495 141 OFFCURVE",
"589 237 OFFCURVE",
"589 358 CURVE SMOOTH",
"589 479 OFFCURVE",
"495 573 OFFCURVE",
"383 573 CURVE SMOOTH",
"118 573 LINE",
"147 469 LINE",
"381 469 LINE SMOOTH",
"434 469 OFFCURVE",
"479 420 OFFCURVE",
"479 358 CURVE SMOOTH",
"479 296 OFFCURVE",
"434 245 OFFCURVE",
"381 245 CURVE SMOOTH",
"197 245 LINE"
);
}
);
width = 634;
},
{
anchors = (
{
name = bottom;
position = "{477, 0}";
},
{
name = top;
position = "{477, 700}";
}
);
layerId = "950578AD-3C55-42C9-B412-F732192F54B4";
paths = (
{
closed = 1;
nodes = (
"182 700 LINE",
"182 0 LINE",
"310 0 LINE",
"310 700 LINE"
);
},
{
closed = 1;
nodes = (
"302 141 LINE",
"588 141 LINE SMOOTH",
"739 141 OFFCURVE",
"833 237 OFFCURVE",
"833 358 CURVE SMOOTH",
"833 499 OFFCURVE",
"739 573 OFFCURVE",
"588 573 CURVE SMOOTH",
"222 573 LINE",
"251 459 LINE",
"586 459 LINE SMOOTH",
"649 459 OFFCURVE",
"703 414 OFFCURVE",
"703 358 CURVE SMOOTH",
"703 301 OFFCURVE",
"649 255 OFFCURVE",
"586 255 CURVE SMOOTH",
"301 255 LINE"
);
}
);
width = 953;
}
);
leftMetricsKey = H;
note = Thorn;
rightMetricsKey = P;
unicode = 00DE;
},
{
glyphname = Q;
lastChange = "2018-06-06 12:18:13 +0000";
layers = (
{
anchors = (
{
name = bottom;
position = "{387, 0}";
},
{
name = top;
position = "{387, 700}";
}
);
layerId = "3D0525B3-6B2A-4787-8D58-1F6DD6CCA7DC";
paths = (
{
closed = 1;
nodes = (
"437 296 LINE",
"436 296 OFFCURVE",
"349 237 OFFCURVE",
"348 237 CURVE",
"613 -110 LINE",
"699 -48 LINE"
);
},
{
closed = 1;
nodes = (
"734 553 OFFCURVE",
"591 710 OFFCURVE",
"391 710 CURVE",
"190 710 OFFCURVE",
"48 553 OFFCURVE",
"48 350 CURVE",
"48 147 OFFCURVE",
"190 -10 OFFCURVE",
"391 -10 CURVE",
"591 -10 OFFCURVE",
"734 147 OFFCURVE",
"734 350 CURVE"
);
},
{
closed = 1;
nodes = (
"624 205 OFFCURVE",
"527 95 OFFCURVE",
"391 95 CURVE SMOOTH",
"253 95 OFFCURVE",
"158 204 OFFCURVE",
"158 350 CURVE",
"158 496 OFFCURVE",
"253 605 OFFCURVE",
"391 605 CURVE SMOOTH",
"527 605 OFFCURVE",
"624 495 OFFCURVE",
"624 350 CURVE"
);
}
);
width = 782;
},
{
anchors = (
{
name = bottom;
position = "{551, 0}";
},
{
name = top;
position = "{551, 700}";
}
);
layerId = "950578AD-3C55-42C9-B412-F732192F54B4";
paths = (
{
closed = 1;
nodes = (
"630 296 LINE",
"629 296 OFFCURVE",
"532 237 OFFCURVE",
"531 237 CURVE",
"796 -110 LINE",
"892 -48 LINE"
);
},
{
closed = 1;
nodes = (
"974 553 OFFCURVE",
"798 710 OFFCURVE",
"551 710 CURVE",
"303 710 OFFCURVE",
"128 553 OFFCURVE",
"128 350 CURVE",
"128 147 OFFCURVE",
"303 -10 OFFCURVE",
"551 -10 CURVE",
"798 -10 OFFCURVE",
"974 147 OFFCURVE",
"974 350 CURVE"
);
},
{
closed = 1;
nodes = (
"844 211 OFFCURVE",
"722 105 OFFCURVE",
"551 105 CURVE SMOOTH",
"377 105 OFFCURVE",
"258 210 OFFCURVE",
"258 350 CURVE",
"258 490 OFFCURVE",
"377 595 OFFCURVE",
"551 595 CURVE SMOOTH",
"722 595 OFFCURVE",
"844 489 OFFCURVE",
"844 350 CURVE"
);
}
);
width = 1102;
}
);
leftKerningGroup = C;
leftMetricsKey = O;
note = Q;
rightKerningGroup = D;
rightMetricsKey = O;
unicode = 0051;
},
{
glyphname = R;
lastChange = "2018-06-12 13:16:50 +0000";
layers = (
{
anchors = (
{
name = bottom;
position = "{365, 0}";
},
{
name = top;
position = "{325, 700}";
}
);
layerId = "3D0525B3-6B2A-4787-8D58-1F6DD6CCA7DC";
paths = (
{
closed = 1;
nodes = (
"520 263 OFFCURVE",
"617 365 OFFCURVE",
"617 477 CURVE",
"617 614 OFFCURVE",
"505 700 OFFCURVE",
"396 700 CURVE",
"98 700 LINE",
"98 0 LINE",
"206 0 LINE",
"206 630 LINE",
"196 596 LINE",
"378 596 LINE",
"448 596 OFFCURVE",
"507 551 OFFCURVE",
"507 478 CURVE",
"507 421 OFFCURVE",
"470 367 OFFCURVE",
"406 367 CURVE",
"193 367 LINE",
"193 263 LINE",
"396 263 LINE"
);
},
{
closed = 1;
nodes = (
"336 316 LINE",
"514 0 LINE",
"645 -1 LINE",
"447 341 LINE"
);
}
);
width = 695;
},
{
anchors = (
{
name = bottom;
position = "{506, 0}";
},
{
name = top;
position = "{466, 700}";
}
);
layerId = "950578AD-3C55-42C9-B412-F732192F54B4";
paths = (
{
closed = 1;
nodes = (
"756 263 OFFCURVE",
"861 369 OFFCURVE",
"861 481 CURVE",
"861 618 OFFCURVE",
"742 700 OFFCURVE",
"608 700 CURVE",
"182 700 LINE",
"182 0 LINE",
"310 0 LINE",
"310 630 LINE",
"300 586 LINE",
"568 586 LINE",
"656 586 OFFCURVE",
"731 548 OFFCURVE",
"731 481 CURVE",
"731 421 OFFCURVE",
"681 377 OFFCURVE",
"596 377 CURVE",
"297 377 LINE",
"297 263 LINE",
"623 263 LINE"
);
},
{
closed = 1;
nodes = (
"466 316 LINE",
"704 0 LINE",
"859 -1 LINE",
"601 341 LINE"
);
}
);
width = 1011;
}
);
leftMetricsKey = H;
note = R;
rightKerningGroup = R;
unicode = 0052;
},
{
glyphname = S;
lastChange = "2018-07-17 14:09:34 +0000";
layers = (
{
anchors = (
{
name = bottom;
position = "{321, 0}";
},
{
name = top;
position = "{321, 700}";
}
);
layerId = "3D0525B3-6B2A-4787-8D58-1F6DD6CCA7DC";
paths = (
{
closed = 1;
nodes = (
"50 126 LINE",
"116 30 OFFCURVE",
"206 -10 OFFCURVE",
"314 -10 CURVE SMOOTH",
"455 -10 OFFCURVE",
"569 75 OFFCURVE",
"569 200 CURVE",
"569 320 OFFCURVE",
"455 380 OFFCURVE",
"337 405 CURVE SMOOTH",
"250 423 OFFCURVE",
"193 449 OFFCURVE",
"193 517 CURVE",
"193 577 OFFCURVE",
"249 613 OFFCURVE",
"323 613 CURVE",
"396 613 OFFCURVE",
"451 572 OFFCURVE",
"487 512 CURVE",
"563 587 LINE",
"517 666 OFFCURVE",
"436 710 OFFCURVE",
"326 710 CURVE",
"198 710 OFFCURVE",
"85 634 OFFCURVE",
"85 514 CURVE",
"85 389 OFFCURVE",
"168 327 OFFCURVE",
"299 301 CURVE SMOOTH",
"401 281 OFFCURVE",
"461 246 OFFCURVE",
"461 180 CURVE",
"461 121 OFFCURVE",
"393 87 OFFCURVE",
"325 87 CURVE SMOOTH",
"230 87 OFFCURVE",
"179 132 OFFCURVE",
"124 211 CURVE"
);
}
);
width = 624;
},
{
anchors = (
{
name = bottom;
position = "{468, 0}";
},
{
name = top;
position = "{468, 700}";
}
);
layerId = "950578AD-3C55-42C9-B412-F732192F54B4";
paths = (
{
closed = 1;
nodes = (
"128 126 LINE",
"217 30 OFFCURVE",
"333 -10 OFFCURVE",
"478 -10 CURVE SMOOTH",
"678 -10 OFFCURVE",
"807 79 OFFCURVE",
"807 216 CURVE",
"807 365 OFFCURVE",
"656 393 OFFCURVE",
"495 413 CURVE SMOOTH",
"372 428 OFFCURVE",
"291 448 OFFCURVE",
"291 515 CURVE SMOOTH",
"291 571 OFFCURVE",
"369 603 OFFCURVE",
"471 603 CURVE",
"575 603 OFFCURVE",
"654 562 OFFCURVE",
"705 502 CURVE",
"781 587 LINE",
"721 666 OFFCURVE",
"616 710 OFFCURVE",
"474 710 CURVE",
"299 710 OFFCURVE",
"163 634 OFFCURVE",
"163 503 CURVE SMOOTH",
"163 379 OFFCURVE",
"277 322 OFFCURVE",
"457 299 CURVE SMOOTH",
"598 281 OFFCURVE",
"679 269 OFFCURVE",
"679 202 CURVE SMOOTH",
"679 130 OFFCURVE",
"577 97 OFFCURVE",
"479 97 CURVE SMOOTH",
"360 97 OFFCURVE",
"279 142 OFFCURVE",
"202 221 CURVE"
);
}
);
width = 935;
}
);
leftKerningGroup = S;
note = S;
rightKerningGroup = S;
unicode = 0053;
},
{
glyphname = Germandbls;
lastChange = "2018-07-21 18:27:37 +0000";
layers = (
{
layerId = "3D0525B3-6B2A-4787-8D58-1F6DD6CCA7DC";
paths = (
{
closed = 1;
nodes = (
"608 -9 OFFCURVE",
"707 78 OFFCURVE",
"707 184 CURVE SMOOTH",
"707 318 OFFCURVE",
"618 354 OFFCURVE",
"545 384 CURVE SMOOTH",
"491 407 OFFCURVE",
"445 433 OFFCURVE",
"445 486 CURVE SMOOTH",
"445 545 OFFCURVE",
"496 566 OFFCURVE",
"641 599 CURVE",
"651 672 LINE",
"560 708 OFFCURVE",
"492 726 OFFCURVE",
"407 726 CURVE SMOOTH",
"207 726 OFFCURVE",
"100 584 OFFCURVE",
"99 420 CURVE SMOOTH",
"98 1 LINE",
"206 1 LINE",
"208 433 LINE SMOOTH",
"209 558 OFFCURVE",
"291 634 OFFCURVE",
"417 632 CURVE",
"504 634 OFFCURVE",
"542 625 OFFCURVE",
"591 595 CURVE",
"541 643 LINE",
"438 634 OFFCURVE",
"338 582 OFFCURVE",
"338 460 CURVE SMOOTH",
"338 362 OFFCURVE",
"403 322 OFFCURVE",
"469 291 CURVE SMOOTH",
"535 260 OFFCURVE",
"601 239 OFFCURVE",
"602 171 CURVE SMOOTH",
"602 119 OFFCURVE",
"559 87 OFFCURVE",
"489 87 CURVE SMOOTH",
"443 87 OFFCURVE",
"393 118 OFFCURVE",
"362 155 CURVE",
"295 75 LINE",
"339 19 OFFCURVE",
"421 -11 OFFCURVE",
"493 -10 CURVE SMOOTH"
);
}
);
width = 762;
},
{
layerId = "950578AD-3C55-42C9-B412-F732192F54B4";
paths = (
{
closed = 1;
nodes = (
"857 -9 OFFCURVE",
"961 78 OFFCURVE",
"961 184 CURVE SMOOTH",
"961 325 OFFCURVE",
"867 363 OFFCURVE",
"789 394 CURVE SMOOTH",
"735 415 OFFCURVE",
"689 438 OFFCURVE",
"689 486 CURVE SMOOTH",
"689 545 OFFCURVE",
"740 566 OFFCURVE",
"885 599 CURVE",
"895 672 LINE",
"778 708 OFFCURVE",
"703 726 OFFCURVE",
"605 726 CURVE SMOOTH",
"344 726 OFFCURVE",
"184 563 OFFCURVE",
"183 340 CURVE SMOOTH",
"182 1 LINE",
"310 1 LINE",
"312 353 LINE SMOOTH",
"313 522 OFFCURVE",
"453 622 OFFCURVE",
"605 622 CURVE",
"685 622 OFFCURVE",
"746 597 OFFCURVE",
"785 598 CURVE",
"785 653 LINE",
"677 644 OFFCURVE",
"572 589 OFFCURVE",
"572 460 CURVE SMOOTH",
"572 362 OFFCURVE",
"642 322 OFFCURVE",
"713 291 CURVE SMOOTH",
"779 260 OFFCURVE",
"845 239 OFFCURVE",
"846 173 CURVE SMOOTH",
"846 125 OFFCURVE",
"803 97 OFFCURVE",
"733 97 CURVE SMOOTH",
"687 97 OFFCURVE",
"637 128 OFFCURVE",
"606 165 CURVE",
"539 75 LINE",
"583 19 OFFCURVE",
"665 -11 OFFCURVE",
"737 -10 CURVE SMOOTH"
);
}
);
width = 1089;
}
);
leftMetricsKey = H;
rightMetricsKey = S;
unicode = 1E9E;
},
{
glyphname = Schwa;
lastChange = "2018-06-06 11:22:30 +0000";
layers = (
{
layerId = "3D0525B3-6B2A-4787-8D58-1F6DD6CCA7DC";
paths = (
{
closed = 1;
nodes = (
"578 -10 OFFCURVE",
"732 151 OFFCURVE",
"732 350 CURVE SMOOTH",
"732 549 OFFCURVE",
"576 710 OFFCURVE",
"387 710 CURVE SMOOTH",
"275 710 OFFCURVE",
"192 681 OFFCURVE",
"116 606 CURVE",
"184 536 LINE",
"243 592 OFFCURVE",
"309 613 OFFCURVE",
"387 613 CURVE SMOOTH",
"519 613 OFFCURVE",
"629 526 OFFCURVE",
"629 351 CURVE SMOOTH",
"629 186 OFFCURVE",
"521 87 OFFCURVE",
"390 87 CURVE SMOOTH",
"273 87 OFFCURVE",
"172 177 OFFCURVE",
"152 296 CURVE",
"695 296 LINE",
"686 393 LINE",
"48 393 LINE",
"48 313 LINE",
"58 118 OFFCURVE",
"219 -10 OFFCURVE",
"390 -10 CURVE SMOOTH"
);
}
);
width = 780;
},
{
layerId = "950578AD-3C55-42C9-B412-F732192F54B4";
paths = (
{
closed = 1;
nodes = (
"658 -10 OFFCURVE",
"812 151 OFFCURVE",
"812 350 CURVE SMOOTH",
"812 549 OFFCURVE",
"656 710 OFFCURVE",
"467 710 CURVE SMOOTH",
"355 710 OFFCURVE",
"272 681 OFFCURVE",
"196 606 CURVE",
"264 536 LINE",
"323 592 OFFCURVE",
"389 613 OFFCURVE",
"467 613 CURVE SMOOTH",
"599 613 OFFCURVE",
"709 526 OFFCURVE",
"709 351 CURVE SMOOTH",
"709 186 OFFCURVE",
"601 87 OFFCURVE",
"470 87 CURVE SMOOTH",
"353 87 OFFCURVE",
"252 177 OFFCURVE",
"232 296 CURVE",
"775 296 LINE",
"766 393 LINE",
"128 393 LINE",
"128 313 LINE",
"138 118 OFFCURVE",
"299 -10 OFFCURVE",
"470 -10 CURVE SMOOTH"
);
}
);
width = 940;
}
);
leftMetricsKey = O;
rightMetricsKey = O;
unicode = 018F;
},
{
glyphname = T;
lastChange = "2018-07-17 14:24:24 +0000";
layers = (
{
anchors = (
{
name = bottom;
position = "{288, 0}";
},
{
name = center;
position = "{288, 350}";
},
{
name = top;
position = "{288, 700}";
}
);
layerId = "3D0525B3-6B2A-4787-8D58-1F6DD6CCA7DC";
paths = (
{
closed = 1;
nodes = (
"339 0 LINE",
"339 651 LINE",
"231 651 LINE",
"231 0 LINE"
);
},
{
closed = 1;
nodes = (
"541 596 LINE",
"541 700 LINE",
"35 700 LINE",
"35 596 LINE"
);
}
);
width = 576;
},
{
anchors = (
{
name = bottom;
position = "{423, 0}";
},
{
name = center;
position = "{423, 350}";
},
{
name = top;
position = "{423, 700}";
}
);
layerId = "950578AD-3C55-42C9-B412-F732192F54B4";
paths = (
{
closed = 1;
nodes = (
"484 0 LINE",
"484 651 LINE",
"356 651 LINE",
"356 0 LINE"
);
},
{
closed = 1;
nodes = (
"746 586 LINE",
"746 700 LINE",
"100 700 LINE",
"100 586 LINE"
);
}
);
width = 846;
}
);
leftKerningGroup = T;
note = T;
rightKerningGroup = T;
unicode = 0054;
},
{
glyphname = U;
lastChange = "2018-07-17 13:28:09 +0000";
layers = (
{
anchors = (
{
name = bottom;
position = "{380, 0}";
},
{
name = ogonek;
position = "{663, 10}";
},
{
name = top;
position = "{380, 700}";
},
{
name = topright;
position = "{522, 708}";
}
);
layerId = "3D0525B3-6B2A-4787-8D58-1F6DD6CCA7DC";
paths = (
{
closed = 1;
nodes = (
"559 701 LINE",
"559 278 LINE",
"559 173 OFFCURVE",
"476 98 OFFCURVE",
"380 98 CURVE",
"289 98 OFFCURVE",
"206 173 OFFCURVE",
"206 278 CURVE",
"206 701 LINE",
"98 701 LINE",
"98 269 LINE",
"98 110 OFFCURVE",
"217 -6 OFFCURVE",
"380 -6 CURVE",
"543 -6 OFFCURVE",
"662 110 OFFCURVE",
"662 269 CURVE",
"662 701 LINE"
);
}
);
width = 760;
},
{
anchors = (
{
name = bottom;
position = "{522, 0}";
},
{
name = ogonek;
position = "{940, 10}";
},
{
name = top;
position = "{522, 700}";
},
{
name = topright;
position = "{949, 700}";
}
);
layerId = "950578AD-3C55-42C9-B412-F732192F54B4";
paths = (
{
closed = 1;
nodes = (
"751 701 LINE",
"751 339 LINE",
"751 205 OFFCURVE",
"654 109 OFFCURVE",
"522 109 CURVE",
"396 109 OFFCURVE",
"298 205 OFFCURVE",
"298 339 CURVE",
"298 701 LINE",
"170 701 LINE",
"170 335 LINE",
"170 138 OFFCURVE",
"309 -6 OFFCURVE",
"522 -6 CURVE",
"735 -6 OFFCURVE",
"874 138 OFFCURVE",
"874 335 CURVE",
"874 701 LINE"
);
}
);
width = 1044;
}
);
leftKerningGroup = U;
note = U;
rightKerningGroup = U;
unicode = 0055;
},
{
glyphname = Uogonek;
lastChange = "2018-06-06 12:20:26 +0000";
layers = (
{
anchors = (
{
name = bottom;
position = "{354, 0}";
},
{
name = ogonek;
position = "{637, 10}";
},
{
name = top;
position = "{354, 700}";
},
{
name = topright;
position = "{688, 700}";
}
);
layerId = "3D0525B3-6B2A-4787-8D58-1F6DD6CCA7DC";
paths = (
{
closed = 1;
nodes = (
"82 129 OFFCURVE",
"191 -18 OFFCURVE",
"364 -18 CURVE SMOOTH",
"378 -18 OFFCURVE",
"442 -10 OFFCURVE",
"464 12 CURVE",
"451 52 LINE",
"364 25 OFFCURVE",
"312 -21 OFFCURVE",
"312 -87 CURVE SMOOTH",
"312 -157 OFFCURVE",
"366 -201 OFFCURVE",
"421 -201 CURVE SMOOTH",
"475 -201 OFFCURVE",
"519 -167 OFFCURVE",
"530 -139 CURVE",
"474 -99 LINE",
"466 -112 OFFCURVE",
"454 -124 OFFCURVE",
"437 -124 CURVE SMOOTH",
"410 -124 OFFCURVE",
"393 -109 OFFCURVE",
"393 -75 CURVE SMOOTH",
"393 -49 OFFCURVE",
"420 -14 OFFCURVE",
"475 8 CURVE SMOOTH",
"558 46 OFFCURVE",
"646 129 OFFCURVE",
"646 269 CURVE SMOOTH",
"646 701 LINE",
"543 701 LINE",
"543 278 LINE SMOOTH",
"543 167 OFFCURVE",
"460 88 OFFCURVE",
"364 88 CURVE SMOOTH",
"273 88 OFFCURVE",
"190 167 OFFCURVE",
"190 278 CURVE SMOOTH",
"190 701 LINE",
"82 701 LINE",
"82 269 LINE SMOOTH"
);
}
);
width = 728;
},
{
anchors = (
{
name = bottom;
position = "{522, 0}";
},
{
name = ogonek;
position = "{940, 10}";
},
{
name = top;
position = "{522, 700}";
},
{
name = topright;
position = "{949, 700}";
}
);
layerId = "950578AD-3C55-42C9-B412-F732192F54B4";
paths = (
{
closed = 1;
nodes = (
"170 138 OFFCURVE",
"309 -6 OFFCURVE",
"522 -6 CURVE",
"569 -6 OFFCURVE",
"612 16 OFFCURVE",
"651 38 CURVE",
"621 63 LINE",
"553 42 OFFCURVE",
"466 -8 OFFCURVE",
"466 -98 CURVE SMOOTH",
"466 -157 OFFCURVE",
"520 -201 OFFCURVE",
"575 -201 CURVE SMOOTH",
"629 -201 OFFCURVE",
"673 -167 OFFCURVE",
"684 -139 CURVE",
"628 -99 LINE",
"620 -112 OFFCURVE",
"608 -124 OFFCURVE",
"591 -124 CURVE SMOOTH",
"573 -124 OFFCURVE",
"557 -109 OFFCURVE",
"557 -88 CURVE SMOOTH",
"557 -56 OFFCURVE",
"582 -13 OFFCURVE",
"650 14 CURVE SMOOTH",
"773 63 OFFCURVE",
"874 181 OFFCURVE",
"874 335 CURVE",
"874 701 LINE",
"751 701 LINE",
"751 339 LINE",
"751 205 OFFCURVE",
"654 109 OFFCURVE",
"522 109 CURVE",
"396 109 OFFCURVE",
"298 205 OFFCURVE",
"298 339 CURVE",
"298 701 LINE",
"170 701 LINE",
"170 335 LINE"
);
}
);
width = 1044;
}
);
leftKerningGroup = U;
rightKerningGroup = U;
unicode = 0172;
},
{
glyphname = V;
lastChange = "2018-07-17 14:08:36 +0000";
layers = (
{
anchors = (
{
name = bottom;
position = "{357, 0}";
},
{
name = top;
position = "{357, 700}";
}
);
layerId = "3D0525B3-6B2A-4787-8D58-1F6DD6CCA7DC";
paths = (
{
closed = 1;
nodes = (
"565 700 LINE",
"410 275 LINE",
"388 216 OFFCURVE",
"367 157 OFFCURVE",
"351 98 CURVE",
"377 99 LINE",
"359 158 OFFCURVE",
"337 216 OFFCURVE",
"314 275 CURVE",
"147 700 LINE",
"24 700 LINE",
"304 0 LINE",
"409 0 LINE",
"691 700 LINE"
);
}
);
width = 715;
},
{
anchors = (
{
name = bottom;
position = "{476, 0}";
},
{
name = top;
position = "{476, 700}";
}
);
layerId = "950578AD-3C55-42C9-B412-F732192F54B4";
paths = (
{
closed = 1;
nodes = (
"723 700 LINE",
"550 281 LINE SMOOTH",
"523 215 OFFCURVE",
"491 125 OFFCURVE",
"467 60 CURVE",
"499 61 LINE",
"477 125 OFFCURVE",
"440 217 OFFCURVE",
"411 283 CURVE SMOOTH",
"224 700 LINE",
"92 700 LINE",
"405 0 LINE",
"555 0 LINE",
"860 700 LINE"
);
}
);
width = 952;
}
);
leftKerningGroup = V;
note = V;
rightKerningGroup = V;
unicode = 0056;
},
{
glyphname = W;
lastChange = "2018-07-17 14:11:30 +0000";
layers = (
{
anchors = (
{
name = bottom;
position = "{497, 0}";
},
{
name = top;
position = "{497, 700}";
}
);
layerId = "3D0525B3-6B2A-4787-8D58-1F6DD6CCA7DC";
paths = (
{
closed = 1;
nodes = (
"856 700 LINE",
"723 265 LINE SMOOTH",
"700 191 OFFCURVE",
"695 149 OFFCURVE",
"688 112 CURVE",
"708 119 LINE",
"699 153 OFFCURVE",
"691 194 OFFCURVE",
"664 263 CURVE SMOOTH",
"541 579 LINE",
"457 579 LINE",
"330 263 LINE SMOOTH",
"305 200 OFFCURVE",
"295 149 OFFCURVE",
"284 110 CURVE",
"308 109 LINE",
"300 149 OFFCURVE",
"293 200 OFFCURVE",
"274 262 CURVE SMOOTH",
"139 700 LINE",
"24 700 LINE",
"247 0 LINE",
"320 0 LINE",
"498 427 LINE",
"489 431 LINE",
"674 0 LINE",
"749 0 LINE",
"972 700 LINE"
);
}
);
width = 996;
},
{
anchors = (
{
name = bottom;
position = "{656, 0}";
},
{
name = top;
position = "{656, 640}";
}
);
layerId = "950578AD-3C55-42C9-B412-F732192F54B4";
paths = (
{
closed = 1;
nodes = (
"1084 700 LINE",
"920 296 LINE SMOOTH",
"895 236 OFFCURVE",
"872 157 OFFCURVE",
"856 102 CURVE",
"896 109 LINE",
"882 160 OFFCURVE",
"850 234 OFFCURVE",
"825 291 CURVE SMOOTH",
"701 579 LINE",
"597 579 LINE",
"467 289 LINE SMOOTH",
"440 229 OFFCURVE",
"410 153 OFFCURVE",
"391 100 CURVE",
"435 99 LINE",
"419 152 OFFCURVE",
"397 229 OFFCURVE",
"375 289 CURVE SMOOTH",
"227 700 LINE",
"92 700 LINE",
"350 0 LINE",
"443 0 LINE",
"660 447 LINE",
"631 451 LINE",
"837 0 LINE",
"932 0 LINE",
"1220 700 LINE"
);
}
);
width = 1312;
}
);
leftKerningGroup = W;
leftMetricsKey = V;
note = W;
rightKerningGroup = W;
rightMetricsKey = V;
unicode = 0057;
},
{
glyphname = X;
lastChange = "2018-07-17 13:52:19 +0000";
layers = (
{
anchors = (
{
name = bottom;
position = "{342, 0}";
},
{
name = top;
position = "{342, 700}";
}
);
layerId = "3D0525B3-6B2A-4787-8D58-1F6DD6CCA7DC";
paths = (
{
closed = 1;
nodes = (
"525 700 LINE",
"329 401 LINE",
"395 325 LINE",
"652 700 LINE"
);
},
{
closed = 1;
nodes = (
"30 700 LINE",
"303 314 LINE",
"525 0 LINE",
"663 0 LINE",
"387 390 LINE",
"167 700 LINE"
);
},
{
closed = 1;
nodes = (
"152 0 LINE",
"359 302 LINE",
"292 381 LINE",
"25 0 LINE"
);
}
);
width = 688;
},
{
anchors = (
{
name = bottom;
position = "{464, 0}";
},
{
name = top;
position = "{464, 700}";
}
);
layerId = "950578AD-3C55-42C9-B412-F732192F54B4";
paths = (
{
closed = 1;
nodes = (
"680 700 LINE",
"439 401 LINE",
"518 325 LINE",
"842 700 LINE"
);
},
{
closed = 1;
nodes = (
"80 700 LINE",
"417 316 LINE",
"685 0 LINE",
"853 0 LINE",
"504 397 LINE",
"247 700 LINE"
);
},
{
closed = 1;
nodes = (
"236 0 LINE",
"489 302 LINE",
"408 381 LINE",
"75 0 LINE"
);
}
);
width = 928;
}
);
leftKerningGroup = X;
note = X;
rightKerningGroup = X;
unicode = 0058;
},
{
glyphname = Y;
lastChange = "2018-07-17 14:14:55 +0000";
layers = (
{
anchors = (
{
name = bottom;
position = "{349, -1}";
},
{
name = top;
position = "{345, 700}";
},
{
name = topleft;
position = "{74, 700}";
}
);
layerId = "3D0525B3-6B2A-4787-8D58-1F6DD6CCA7DC";
paths = (
{
closed = 1;
nodes = (
"540 700 LINE",
"351 393 LINE",
"364 390 LINE",
"154 700 LINE",
"24 700 LINE",
"307 300 LINE",
"300 349 LINE",
"300 0 LINE",
"408 0 LINE",
"408 357 LINE",
"393 289 LINE",
"664 700 LINE"
);
}
);
width = 688;
},
{
anchors = (
{
name = bottom;
position = "{492, 0}";
},
{
name = top;
position = "{492, 700}";
},
{
name = topleft;
position = "{20, 700}";
}
);
layerId = "950578AD-3C55-42C9-B412-F732192F54B4";
paths = (
{
closed = 1;
nodes = (
"748 700 LINE",
"482 347 LINE",
"525 347 LINE",
"252 700 LINE",
"92 700 LINE",
"445 264 LINE",
"438 313 LINE",
"438 0 LINE",
"566 0 LINE",
"566 321 LINE",
"551 263 LINE",
"892 700 LINE"
);
}
);
width = 984;
}
);
leftKerningGroup = Y;
leftMetricsKey = V;
note = Y;
rightKerningGroup = Y;
rightMetricsKey = V;
unicode = 0059;
},
{
glyphname = Z;
lastChange = "2018-07-17 14:10:10 +0000";
layers = (
{
anchors = (
{
name = bottom;
position = "{320, 0}";
},
{
name = top;
position = "{320, 700}";
}
);
layerId = "3D0525B3-6B2A-4787-8D58-1F6DD6CCA7DC";
paths = (
{
closed = 1;
nodes = (
"76 700 LINE",
"76 596 LINE",
"464 596 LINE",
"449 613 LINE",
"50 79 LINE",
"50 0 LINE",
"594 0 LINE",
"594 104 LINE",
"170 104 LINE",
"186 87 LINE",
"583 622 LINE",
"583 700 LINE"
);
}
);
width = 644;
},
{
anchors = (
{
name = bottom;
position = "{442, 0}";
},
{
name = top;
position = "{442, 700}";
}
);
layerId = "950578AD-3C55-42C9-B412-F732192F54B4";
paths = (
{
closed = 1;
nodes = (
"126 700 LINE",
"126 590 LINE",
"654 590 LINE",
"605 613 LINE",
"100 79 LINE",
"100 0 LINE",
"784 0 LINE",
"784 110 LINE",
"220 110 LINE",
"268 87 LINE",
"773 622 LINE",
"773 700 LINE"
);
}
);
width = 884;
}
);
leftKerningGroup = Z;
note = Z;
rightKerningGroup = Z;
unicode = 005A;
},
{
glyphname = a;
lastChange = "2018-08-06 15:03:06 +0000";
layers = (
{
anchors = (
{
name = bottom;
position = "{311, -20}";
},
{
name = ogonek;
position = "{560, 3}";
},
{
name = top;
position = "{307, 530}";
}
);
layerId = "3D0525B3-6B2A-4787-8D58-1F6DD6CCA7DC";
paths = (
{
closed = 1;
nodes = (
"457 525 LINE",
"457 389 LINE",
"487 391 LINE",
"487 452 OFFCURVE",
"400 536 OFFCURVE",
"284 536 CURVE",
"146 536 OFFCURVE",
"38 424 OFFCURVE",
"38 264 CURVE",
"38 104 OFFCURVE",
"145 -10 OFFCURVE",
"287 -10 CURVE",
"394 -10 OFFCURVE",
"477 73 OFFCURVE",
"477 122 CURVE",
"457 125 LINE",
"457 0 LINE",
"561 0 LINE",
"561 525 LINE"
);
},
{
closed = 1;
nodes = (
"208 85 OFFCURVE",
"143 161 OFFCURVE",
"143 264 CURVE",
"143 366 OFFCURVE",
"208 441 OFFCURVE",
"301 441 CURVE",
"396 441 OFFCURVE",
"461 364 OFFCURVE",
"461 264 CURVE",
"461 161 OFFCURVE",
"396 85 OFFCURVE",
"301 85 CURVE"
);
}
);
width = 633;
},
{
anchors = (
{
name = bottom;
position = "{462, 0}";
},
{
name = ogonek;
position = "{904, 10}";
},
{
name = top;
position = "{502, 525}";
}
);
layerId = "950578AD-3C55-42C9-B412-F732192F54B4";
paths = (
{
closed = 1;
nodes = (
"681 525 LINE",
"681 389 LINE",
"711 411 LINE",
"711 464 OFFCURVE",
"593 536 OFFCURVE",
"438 536 CURVE",
"250 536 OFFCURVE",
"120 423 OFFCURVE",
"120 263 CURVE",
"120 104 OFFCURVE",
"241 -10 OFFCURVE",
"442 -10 CURVE",
"574 -10 OFFCURVE",
"701 74 OFFCURVE",
"701 125 CURVE",
"681 125 LINE",
"681 0 LINE",
"804 0 LINE",
"804 525 LINE"
);
},
{
closed = 1;
nodes = (
"336 95 OFFCURVE",
"245 167 OFFCURVE",
"245 263 CURVE",
"245 358 OFFCURVE",
"336 430 OFFCURVE",
"465 430 CURVE",
"596 430 OFFCURVE",
"685 358 OFFCURVE",
"685 263 CURVE",
"685 167 OFFCURVE",
"596 95 OFFCURVE",
"465 95 CURVE"
);
}
);
width = 1004;
}
);
leftKerningGroup = a;
note = a;
rightKerningGroup = a;
unicode = 0061;
},
{
glyphname = aogonek;
lastChange = "2018-06-06 12:23:00 +0000";
layers = (
{
layerId = "3D0525B3-6B2A-4787-8D58-1F6DD6CCA7DC";
paths = (
{
closed = 1;
nodes = (
"394 -10 OFFCURVE",
"477 73 OFFCURVE",
"477 122 CURVE",
"457 125 LINE",
"457 0 LINE",
"508 0 LINE",
"508 52 LINE",
"427 10 OFFCURVE",
"333 -43 OFFCURVE",
"333 -114 CURVE SMOOTH",
"333 -178 OFFCURVE",
"386 -221 OFFCURVE",
"453 -221 CURVE SMOOTH",
"501 -221 OFFCURVE",
"543 -200 OFFCURVE",
"577 -177 CURVE",
"538 -118 LINE",
"517 -133 OFFCURVE",
"493 -144 OFFCURVE",
"473 -144 CURVE SMOOTH",
"446 -144 OFFCURVE",
"426 -123 OFFCURVE",
"426 -100 CURVE SMOOTH",
"426 -63 OFFCURVE",
"496 -26 OFFCURVE",
"561 0 CURVE",
"561 525 LINE",
"457 525 LINE",
"457 389 LINE",
"487 391 LINE",
"487 452 OFFCURVE",
"400 536 OFFCURVE",
"284 536 CURVE",
"146 536 OFFCURVE",
"38 424 OFFCURVE",
"38 264 CURVE",
"38 104 OFFCURVE",
"145 -10 OFFCURVE",
"287 -10 CURVE"
);
},
{
closed = 1;
nodes = (
"208 85 OFFCURVE",
"143 161 OFFCURVE",
"143 264 CURVE",
"143 366 OFFCURVE",
"208 441 OFFCURVE",
"301 441 CURVE",
"396 441 OFFCURVE",
"461 364 OFFCURVE",
"461 264 CURVE",
"461 161 OFFCURVE",
"396 85 OFFCURVE",
"301 85 CURVE"
);
}
);
width = 620;
},
{
layerId = "950578AD-3C55-42C9-B412-F732192F54B4";
paths = (
{
closed = 1;
nodes = (
"574 -10 OFFCURVE",
"701 74 OFFCURVE",
"701 125 CURVE",
"681 125 LINE",
"681 0 LINE",
"778 0 LINE",
"751 52 LINE",
"670 10 OFFCURVE",
"576 -43 OFFCURVE",
"576 -114 CURVE SMOOTH",
"576 -178 OFFCURVE",
"629 -221 OFFCURVE",
"696 -221 CURVE SMOOTH",
"744 -221 OFFCURVE",
"786 -200 OFFCURVE",
"820 -177 CURVE",
"781 -118 LINE",
"760 -133 OFFCURVE",
"736 -144 OFFCURVE",
"716 -144 CURVE SMOOTH",
"689 -144 OFFCURVE",
"669 -123 OFFCURVE",
"669 -100 CURVE SMOOTH",
"669 -63 OFFCURVE",
"739 -26 OFFCURVE",
"804 0 CURVE",
"804 525 LINE",
"681 525 LINE",
"681 389 LINE",
"711 411 LINE",
"711 464 OFFCURVE",
"593 536 OFFCURVE",
"438 536 CURVE",
"250 536 OFFCURVE",
"120 423 OFFCURVE",
"120 263 CURVE",
"120 104 OFFCURVE",
"241 -10 OFFCURVE",
"442 -10 CURVE"
);
},
{
closed = 1;
nodes = (
"336 95 OFFCURVE",
"245 167 OFFCURVE",
"245 263 CURVE",
"245 358 OFFCURVE",
"336 430 OFFCURVE",
"465 430 CURVE",
"596 430 OFFCURVE",
"685 358 OFFCURVE",
"685 263 CURVE",
"685 167 OFFCURVE",
"596 95 OFFCURVE",
"465 95 CURVE"
);
}
);
width = 1004;
}
);
leftKerningGroup = a;
leftMetricsKey = a;
note = aogonek;
rightKerningGroup = a;
unicode = 0105;
},
{
glyphname = ae;
lastChange = "2018-06-06 12:24:11 +0000";
layers = (
{
anchors = (
{
name = bottom;
position = "{410, 0}";
},
{
name = top;
position = "{452, 515}";
}
);
layerId = "3D0525B3-6B2A-4787-8D58-1F6DD6CCA7DC";
paths = (
{
closed = 1;
nodes = (
"162 536 OFFCURVE",
"92 482 OFFCURVE",
"51 435 CURVE",
"118 373 LINE",
"149 413 OFFCURVE",
"192 447 OFFCURVE",
"262 447 CURVE",
"307 447 OFFCURVE",
"373 435 OFFCURVE",
"373 356 CURVE",
"373 257 LINE",
"466 263 LINE",
"466 388 LINE",
"466 502 OFFCURVE",
"358 536 OFFCURVE",
"264 536 CURVE"
);
},
{
closed = 1;
nodes = (
"556 84 OFFCURVE",
"466 151 OFFCURVE",
"466 264 CURVE",
"466 399 OFFCURVE",
"540 441 OFFCURVE",
"621 441 CURVE",
"686 441 OFFCURVE",
"747 394 OFFCURVE",
"754 326 CURVE",
"754 302 LINE",
"769 319 LINE",
"274 319 LINE SMOOTH",
"108 320 OFFCURVE",
"38 253 OFFCURVE",
"38 149 CURVE",
"38 39 OFFCURVE",
"132 -10 OFFCURVE",
"216 -10 CURVE",
"324 -10 OFFCURVE",
"399 61 OFFCURVE",
"430 107 CURVE",
"386 174 LINE",
"366 135 OFFCURVE",
"309 78 OFFCURVE",
"220 78 CURVE",
"179 78 OFFCURVE",
"135 100 OFFCURVE",
"135 151 CURVE",
"135 197 OFFCURVE",
"167 237 OFFCURVE",
"261 237 CURVE SMOOTH",
"858 237 LINE",
"859 281 LINE",
"859 432 OFFCURVE",
"753 535 OFFCURVE",
"621 536 CURVE SMOOTH",
"493 536 OFFCURVE",
"373 433 OFFCURVE",
"373 257 CURVE",
"373 102 OFFCURVE",
"479 -10 OFFCURVE",
"644 -10 CURVE SMOOTH",
"725 -10 OFFCURVE",
"806 28 OFFCURVE",
"849 69 CURVE",
"849 69 OFFCURVE",
"849 69 OFFCURVE",
"850 69 CURVE",
"799 144 LINE",
"769 118 OFFCURVE",
"727 84 OFFCURVE",
"654 84 CURVE SMOOTH"
);
}
);
width = 899;
},
{
anchors = (
{
name = bottom;
position = "{748, 0}";
},
{
name = top;
position = "{748, 525}";
}
);
layerId = "950578AD-3C55-42C9-B412-F732192F54B4";
paths = (
{
closed = 1;
nodes = (
"280 536 OFFCURVE",
"166 482 OFFCURVE",
"133 435 CURVE",
"200 358 LINE",
"223 398 OFFCURVE",
"310 432 OFFCURVE",
"414 432 CURVE",
"479 432 OFFCURVE",
"575 405 OFFCURVE",
"575 356 CURVE",
"575 257 LINE",
"688 263 LINE",
"688 388 LINE",
"688 502 OFFCURVE",
"543 536 OFFCURVE",
"416 536 CURVE"
);
},
{
closed = 1;
nodes = (
"812 99 OFFCURVE",
"688 151 OFFCURVE",
"688 264 CURVE",
"688 391 OFFCURVE",
"795 426 OFFCURVE",
"913 426 CURVE",
"1002 426 OFFCURVE",
"1086 388 OFFCURVE",
"1096 326 CURVE",
"1096 302 LINE",
"1111 319 LINE",
"426 319 LINE SMOOTH",
"177 320 OFFCURVE",
"120 253 OFFCURVE",
"120 149 CURVE",
"120 39 OFFCURVE",
"221 -10 OFFCURVE",
"368 -10 CURVE",
"511 -10 OFFCURVE",
"611 61 OFFCURVE",
"652 107 CURVE",
"588 174 LINE",
"560 135 OFFCURVE",
"488 78 OFFCURVE",
"372 78 CURVE",
"298 78 OFFCURVE",
"237 100 OFFCURVE",
"237 157 CURVE",
"237 207 OFFCURVE",
"282 232 OFFCURVE",
"413 232 CURVE SMOOTH",
"1220 232 LINE",
"1221 281 LINE",
"1221 432 OFFCURVE",
"1084 535 OFFCURVE",
"913 536 CURVE SMOOTH",
"739 536 OFFCURVE",
"575 433 OFFCURVE",
"575 257 CURVE",
"575 102 OFFCURVE",
"716 -10 OFFCURVE",
"936 -10 CURVE SMOOTH",
"1045 -10 OFFCURVE",
"1167 31 OFFCURVE",
"1211 69 CURVE",
"1211 69 OFFCURVE",
"1211 69 OFFCURVE",
"1212 69 CURVE",
"1161 159 LINE",
"1122 126 OFFCURVE",
"1054 99 OFFCURVE",
"946 99 CURVE SMOOTH"
);
}
);
width = 1366;
}
);
leftMetricsKey = a;
note = ae;
rightMetricsKey = e;
unicode = 00E6;
},
{
glyphname = b;
lastChange = "2018-06-06 12:24:37 +0000";
layers = (
{
anchors = (
{
name = bottom;
position = "{316, 0}";
},
{
name = top;
position = "{316, 510}";
}
);
layerId = "3D0525B3-6B2A-4787-8D58-1F6DD6CCA7DC";
paths = (
{
closed = 1;
nodes = (
"251 536 OFFCURVE",
"170 466 OFFCURVE",
"159 414 CURVE",
"175 405 LINE",
"175 740 LINE",
"72 740 LINE",
"72 3 LINE",
"175 3 LINE",
"175 131 LINE",
"149 117 LINE",
"161 65 OFFCURVE",
"244 -10 OFFCURVE",
"348 -10 CURVE",
"484 -10 OFFCURVE",
"590 104 OFFCURVE",
"590 264 CURVE",
"590 424 OFFCURVE",
"485 536 OFFCURVE",
"345 536 CURVE"
);
},
{
closed = 1;
nodes = (
"425 442 OFFCURVE",
"491 366 OFFCURVE",
"491 264 CURVE",
"491 162 OFFCURVE",
"425 84 OFFCURVE",
"331 84 CURVE",
"236 84 OFFCURVE",
"170 162 OFFCURVE",
"170 264 CURVE",
"170 366 OFFCURVE",
"236 442 OFFCURVE",
"331 442 CURVE"
);
}
);
width = 630;
},
{
anchors = (
{
name = bottom;
position = "{499, 0}";
},
{
name = top;
position = "{499, 507}";
}
);
layerId = "950578AD-3C55-42C9-B412-F732192F54B4";
paths = (
{
closed = 1;
nodes = (
"414 536 OFFCURVE",
"302 466 OFFCURVE",
"287 414 CURVE",
"323 405 LINE",
"323 740 LINE",
"200 740 LINE",
"200 3 LINE",
"323 3 LINE",
"323 131 LINE",
"277 117 LINE",
"293 65 OFFCURVE",
"405 -10 OFFCURVE",
"546 -10 CURVE",
"734 -10 OFFCURVE",
"868 104 OFFCURVE",
"868 264 CURVE",
"868 424 OFFCURVE",
"729 536 OFFCURVE",
"543 536 CURVE"
);
},
{
closed = 1;
nodes = (
"658 431 OFFCURVE",
"749 360 OFFCURVE",
"749 264 CURVE",
"749 168 OFFCURVE",
"658 94 OFFCURVE",
"529 94 CURVE",
"399 94 OFFCURVE",
"308 168 OFFCURVE",
"308 264 CURVE",
"308 360 OFFCURVE",
"399 431 OFFCURVE",
"529 431 CURVE"
);
}
);
width = 998;
}
);
leftKerningGroup = b;
leftMetricsKey = n;
note = b;
rightKerningGroup = b;
rightMetricsKey = o;
unicode = 0062;
},
{
glyphname = c;
lastChange = "2018-08-06 15:04:31 +0000";
layers = (
{
anchors = (
{
name = bottom;
position = "{259, 0}";
},
{
name = top;
position = "{299, 530}";
}
);
layerId = "3D0525B3-6B2A-4787-8D58-1F6DD6CCA7DC";
paths = (
{
closed = 1;
nodes = (
"138 367 OFFCURVE",
"210 443 OFFCURVE",
"305 443 CURVE SMOOTH",
"358 443 OFFCURVE",
"422 405 OFFCURVE",
"453 360 CURVE",
"510 430 LINE",
"472 493 OFFCURVE",
"392 536 OFFCURVE",
"295 536 CURVE",
"150 536 OFFCURVE",
"40 418 OFFCURVE",
"40 263 CURVE SMOOTH",
"40 108 OFFCURVE",
"150 -10 OFFCURVE",
"295 -10 CURVE",
"387 -10 OFFCURVE",
"471 38 OFFCURVE",
"510 93 CURVE",
"453 163 LINE",
"422 125 OFFCURVE",
"373 83 OFFCURVE",
"306 83 CURVE",
"217 83 OFFCURVE",
"138 159 OFFCURVE",
"138 263 CURVE SMOOTH"
);
}
);
width = 535;
},
{
anchors = (
{
name = bottom;
position = "{435, 0}";
},
{
name = top;
position = "{455, 525}";
}
);
layerId = "950578AD-3C55-42C9-B412-F732192F54B4";
paths = (
{
closed = 1;
nodes = (
"258 357 OFFCURVE",
"341 426 OFFCURVE",
"465 426 CURVE SMOOTH",
"547 426 OFFCURVE",
"640 388 OFFCURVE",
"693 340 CURVE",
"750 434 LINE",
"690 498 OFFCURVE",
"578 536 OFFCURVE",
"455 536 CURVE",
"270 536 OFFCURVE",
"130 418 OFFCURVE",
"130 263 CURVE SMOOTH",
"130 108 OFFCURVE",
"270 -10 OFFCURVE",
"455 -10 CURVE",
"581 -10 OFFCURVE",
"675 30 OFFCURVE",
"750 76 CURVE",
"693 166 LINE",
"639 136 OFFCURVE",
"569 99 OFFCURVE",
"466 99 CURVE",
"350 99 OFFCURVE",
"258 168 OFFCURVE",
"258 263 CURVE SMOOTH"
);
}
);
width = 870;
}
);
leftKerningGroup = c;
leftMetricsKey = o;
note = c;
rightKerningGroup = c;
unicode = 0063;
},
{
glyphname = d;
lastChange = "2018-08-06 15:05:03 +0000";
layers = (
{
anchors = (
{
name = bottom;
position = "{321, -20}";
},
{
name = center;
position = "{486, 614}";
},
{
name = top;
position = "{321, 530}";
},
{
name = topright;
position = "{608, 510}";
}
);
layerId = "3D0525B3-6B2A-4787-8D58-1F6DD6CCA7DC";
paths = (
{
closed = 1;
nodes = (
"461 740 LINE",
"461 389 LINE",
"491 391 LINE",
"491 452 OFFCURVE",
"403 536 OFFCURVE",
"288 536 CURVE",
"149 536 OFFCURVE",
"40 423 OFFCURVE",
"40 263 CURVE",
"40 104 OFFCURVE",
"149 -10 OFFCURVE",
"291 -10 CURVE",
"398 -10 OFFCURVE",
"481 74 OFFCURVE",
"481 125 CURVE",
"461 125 LINE",
"461 0 LINE",
"564 0 LINE",
"564 740 LINE"
);
},
{
closed = 1;
nodes = (
"211 79 OFFCURVE",
"145 158 OFFCURVE",
"145 263 CURVE",
"145 368 OFFCURVE",
"211 447 OFFCURVE",
"305 447 CURVE",
"400 447 OFFCURVE",
"465 368 OFFCURVE",
"465 263 CURVE",
"465 158 OFFCURVE",
"400 79 OFFCURVE",
"305 79 CURVE"
);
}
);
width = 634;
},
{
anchors = (
{
name = bottom;
position = "{492, 0}";
},
{
name = center;
position = "{721, 616}";
},
{
name = top;
position = "{492, 740}";
},
{
name = topright;
position = "{964, 525}";
}
);
layerId = "950578AD-3C55-42C9-B412-F732192F54B4";
paths = (
{
closed = 1;
nodes = (
"681 740 LINE",
"681 389 LINE",
"721 411 LINE",
"721 464 OFFCURVE",
"603 536 OFFCURVE",
"448 536 CURVE",
"260 536 OFFCURVE",
"130 423 OFFCURVE",
"130 263 CURVE",
"130 104 OFFCURVE",
"251 -10 OFFCURVE",
"431 -10 CURVE",
"589 -10 OFFCURVE",
"711 74 OFFCURVE",
"711 125 CURVE",
"681 125 LINE",
"681 0 LINE",
"804 0 LINE",
"804 740 LINE"
);
},
{
closed = 1;
nodes = (
"346 89 OFFCURVE",
"255 164 OFFCURVE",
"255 263 CURVE",
"255 362 OFFCURVE",
"346 437 OFFCURVE",
"475 437 CURVE",
"606 437 OFFCURVE",
"695 362 OFFCURVE",
"695 263 CURVE",
"695 164 OFFCURVE",
"606 89 OFFCURVE",
"475 89 CURVE"
);
}
);
width = 984;
}
);
leftKerningGroup = c;
leftMetricsKey = o;
note = d;
rightKerningGroup = d;
unicode = 0064;
},
{
glyphname = eth;
lastChange = "2018-07-03 12:19:29 +0000";
layers = (
{
layerId = "3D0525B3-6B2A-4787-8D58-1F6DD6CCA7DC";
paths = (
{
closed = 1;
nodes = (
"424 -7 OFFCURVE",
"534 102 OFFCURVE",
"534 281 CURVE",
"534 598 OFFCURVE",
"333 710 OFFCURVE",
"211 740 CURVE",
"169 662 LINE",
"346 609 OFFCURVE",
"410 530 OFFCURVE",
"418 379 CURVE",
"468 348 LINE",
"449 447 OFFCURVE",
"384 528 OFFCURVE",
"275 528 CURVE",
"156 528 OFFCURVE",
"40 411 OFFCURVE",
"40 262 CURVE",
"40 112 OFFCURVE",
"149 -7 OFFCURVE",
"287 -7 CURVE"
);
},
{
closed = 1;
nodes = (
"203 89 OFFCURVE",
"137 165 OFFCURVE",
"137 262 CURVE",
"137 358 OFFCURVE",
"203 432 OFFCURVE",
"287 432 CURVE",
"372 432 OFFCURVE",
"437 355 OFFCURVE",
"437 262 CURVE",
"437 165 OFFCURVE",
"371 89 OFFCURVE",
"287 89 CURVE"
);
},
{
closed = 1;
nodes = (
"353 574 LINE",
"394 591 LINE",
"507 617 LINE",
"489 683 LINE",
"343 650 LINE",
"288 630 LINE",
"143 593 LINE",
"156 528 LINE"
);
}
);
width = 574;
},
{
layerId = "950578AD-3C55-42C9-B412-F732192F54B4";
paths = (
{
closed = 1;
nodes = (
"640 -7 OFFCURVE",
"794 102 OFFCURVE",
"794 283 CURVE SMOOTH",
"794 481 OFFCURVE",
"593 680 OFFCURVE",
"471 740 CURVE",
"399 662 LINE",
"541 575 OFFCURVE",
"664 453 OFFCURVE",
"664 335 CURVE",
"698 348 LINE",
"672 447 OFFCURVE",
"584 528 OFFCURVE",
"435 528 CURVE",
"264 528 OFFCURVE",
"130 411 OFFCURVE",
"130 262 CURVE",
"130 112 OFFCURVE",
"250 -7 OFFCURVE",
"447 -7 CURVE"
);
},
{
closed = 1;
nodes = (
"345 89 OFFCURVE",
"255 165 OFFCURVE",
"255 262 CURVE",
"255 358 OFFCURVE",
"341 432 OFFCURVE",
"447 432 CURVE",
"572 432 OFFCURVE",
"667 355 OFFCURVE",
"667 262 CURVE",
"667 165 OFFCURVE",
"574 89 OFFCURVE",
"457 89 CURVE"
);
},
{
closed = 1;
nodes = (
"583 574 LINE",
"624 591 LINE",
"737 597 LINE",
"719 663 LINE",
"573 650 LINE",
"518 630 LINE",
"373 613 LINE",
"386 548 LINE"
);
}
);
width = 924;
}
);
leftMetricsKey = o;
note = eth;
rightMetricsKey = o;
unicode = 00F0;
},
{
glyphname = e;
lastChange = "2018-06-05 17:45:29 +0000";
layers = (
{
anchors = (
{
name = bottom;
position = "{292, -20}";
},
{
name = ogonek;
position = "{521, 10}";
},
{
name = top;
position = "{293, 530}";
}
);
layerId = "3D0525B3-6B2A-4787-8D58-1F6DD6CCA7DC";
paths = (
{
closed = 1;
nodes = (
"472 144 LINE",
"442 118 OFFCURVE",
"400 84 OFFCURVE",
"327 84 CURVE",
"217 84 OFFCURVE",
"142 154 OFFCURVE",
"142 264 CURVE",
"142 395 OFFCURVE",
"215 442 OFFCURVE",
"308 442 CURVE",
"373 442 OFFCURVE",
"434 395 OFFCURVE",
"441 327 CURVE",
"441 303 LINE",
"456 320 LINE",
"93 320 LINE",
"116 238 LINE",
"545 238 LINE",
"546 282 LINE",
"546 433 OFFCURVE",
"440 536 OFFCURVE",
"308 537 CURVE",
"163 536 OFFCURVE",
"40 433 OFFCURVE",
"40 257 CURVE",
"40 102 OFFCURVE",
"153 -10 OFFCURVE",
"317 -10 CURVE",
"398 -10 OFFCURVE",
"479 28 OFFCURVE",
"522 69 CURVE",
"522 69 OFFCURVE",
"522 69 OFFCURVE",
"523 69 CURVE"
);
}
);
width = 586;
},
{
anchors = (
{
name = bottom;
position = "{466, 0}";
},
{
name = ogonek;
position = "{838, 10}";
},
{
name = top;
position = "{466, 525}";
}
);
layerId = "950578AD-3C55-42C9-B412-F732192F54B4";
paths = (
{
closed = 1;
nodes = (
"712 154 LINE",
"668 128 OFFCURVE",
"605 94 OFFCURVE",
"497 94 CURVE",
"345 94 OFFCURVE",
"242 160 OFFCURVE",
"242 264 CURVE",
"242 388 OFFCURVE",
"341 432 OFFCURVE",
"468 432 CURVE",
"562 432 OFFCURVE",
"651 389 OFFCURVE",
"661 327 CURVE",
"661 303 LINE",
"696 320 LINE",
"193 320 LINE",
"216 228 LINE",
"785 228 LINE",
"786 282 LINE",
"786 433 OFFCURVE",
"644 536 OFFCURVE",
"468 537 CURVE",
"280 536 OFFCURVE",
"120 433 OFFCURVE",
"120 257 CURVE",
"120 102 OFFCURVE",
"266 -10 OFFCURVE",
"477 -10 CURVE",
"590 -10 OFFCURVE",
"702 28 OFFCURVE",
"762 69 CURVE",
"762 69 OFFCURVE",
"762 69 OFFCURVE",
"763 69 CURVE"
);
}
);
width = 931;
}
);
leftKerningGroup = c;
note = e;
rightKerningGroup = e;
unicode = 0065;
},
{
glyphname = eogonek;
lastChange = "2018-06-06 12:28:47 +0000";
layers = (
{
layerId = "3D0525B3-6B2A-4787-8D58-1F6DD6CCA7DC";
paths = (
{
closed = 1;
nodes = (
"373 -10 OFFCURVE",
"471 56 OFFCURVE",
"493 95 CURVE",
"453 70 LINE",
"376 23 OFFCURVE",
"283 -33 OFFCURVE",
"283 -108 CURVE SMOOTH",
"283 -184 OFFCURVE",
"336 -221 OFFCURVE",
"403 -221 CURVE SMOOTH",
"451 -221 OFFCURVE",
"493 -200 OFFCURVE",
"527 -177 CURVE",
"488 -118 LINE",
"467 -133 OFFCURVE",
"443 -144 OFFCURVE",
"425 -144 CURVE SMOOTH",
"396 -144 OFFCURVE",
"376 -118 OFFCURVE",
"376 -90 CURVE SMOOTH",
"376 -29 OFFCURVE",
"446 11 OFFCURVE",
"523 69 CURVE",
"472 144 LINE",
"442 118 OFFCURVE",
"400 84 OFFCURVE",
"327 84 CURVE",
"217 84 OFFCURVE",
"142 154 OFFCURVE",
"142 264 CURVE",
"142 395 OFFCURVE",
"215 442 OFFCURVE",
"308 442 CURVE",
"373 442 OFFCURVE",
"434 395 OFFCURVE",
"441 327 CURVE",
"441 303 LINE",
"456 320 LINE",
"93 320 LINE",
"116 238 LINE",
"545 238 LINE",
"546 282 LINE",
"546 433 OFFCURVE",
"440 536 OFFCURVE",
"308 537 CURVE",
"163 536 OFFCURVE",
"40 433 OFFCURVE",
"40 257 CURVE",
"40 102 OFFCURVE",
"153 -10 OFFCURVE",
"317 -10 CURVE"
);
}
);
width = 586;
},
{
layerId = "950578AD-3C55-42C9-B412-F732192F54B4";
paths = (
{
closed = 1;
nodes = (
"585 -10 OFFCURVE",
"648 24 OFFCURVE",
"692 50 CURVE",
"670 71 LINE",
"593 8 OFFCURVE",
"523 -38 OFFCURVE",
"523 -108 CURVE SMOOTH",
"523 -184 OFFCURVE",
"576 -221 OFFCURVE",
"643 -221 CURVE SMOOTH",
"691 -221 OFFCURVE",
"733 -200 OFFCURVE",
"767 -177 CURVE",
"728 -118 LINE",
"707 -133 OFFCURVE",
"683 -144 OFFCURVE",
"665 -144 CURVE SMOOTH",
"636 -144 OFFCURVE",
"616 -118 OFFCURVE",
"616 -90 CURVE SMOOTH",
"616 -28 OFFCURVE",
"686 13 OFFCURVE",
"763 69 CURVE",
"712 154 LINE",
"668 128 OFFCURVE",
"605 94 OFFCURVE",
"497 94 CURVE",
"345 94 OFFCURVE",
"242 160 OFFCURVE",
"242 264 CURVE",
"242 388 OFFCURVE",
"341 432 OFFCURVE",
"468 432 CURVE",
"562 432 OFFCURVE",
"651 389 OFFCURVE",
"661 327 CURVE",
"661 303 LINE",
"696 320 LINE",
"193 320 LINE",
"216 228 LINE",
"785 228 LINE",
"786 282 LINE",
"786 433 OFFCURVE",
"644 536 OFFCURVE",
"468 537 CURVE",
"280 536 OFFCURVE",
"120 433 OFFCURVE",
"120 257 CURVE",
"120 102 OFFCURVE",
"266 -10 OFFCURVE",
"477 -10 CURVE SMOOTH"
);
}
);
width = 931;
}
);
leftKerningGroup = c;
leftMetricsKey = e;
note = eogonek;
rightKerningGroup = e;
rightMetricsKey = e;
unicode = 0119;
},
{
glyphname = f;
lastChange = "2018-08-06 15:05:46 +0000";
layers = (
{
anchors = (
{
name = bottom;
position = "{197, 0}";
},
{
name = top;
position = "{197, 510}";
}
);
layerId = "3D0525B3-6B2A-4787-8D58-1F6DD6CCA7DC";
paths = (
{
closed = 1;
nodes = (
"357 516 LINE",
"45 516 LINE",
"45 421 LINE",
"357 421 LINE"
);
},
{
closed = 1;
nodes = (
"390 695 LINE",
"374 714 OFFCURVE",
"338 739 OFFCURVE",
"285 739 CURVE SMOOTH",
"193 739 OFFCURVE",
"129 675 OFFCURVE",
"129 584 CURVE SMOOTH",
"129 0 LINE SMOOTH",
"129 0 OFFCURVE",
"233 0 OFFCURVE",
"233 0 CURVE SMOOTH",
"233 584 LINE SMOOTH",
"233 617 OFFCURVE",
"249 653 OFFCURVE",
"297 653 CURVE SMOOTH",
"318 653 OFFCURVE",
"341 639 OFFCURVE",
"355 626 CURVE"
);
}
);
width = 393;
},
{
anchors = (
{
name = bottom;
position = "{365, 0}";
},
{
name = top;
position = "{941, 506}";
}
);
layerId = "950578AD-3C55-42C9-B412-F732192F54B4";
paths = (
{
closed = 1;
nodes = (
"597 506 LINE",
"145 506 LINE",
"145 401 LINE",
"597 401 LINE"
);
},
{
closed = 1;
nodes = (
"630 695 LINE",
"608 714 OFFCURVE",
"558 739 OFFCURVE",
"485 739 CURVE SMOOTH",
"358 739 OFFCURVE",
"269 650 OFFCURVE",
"269 524 CURVE SMOOTH",
"269 0 LINE SMOOTH",
"269 0 OFFCURVE",
"383 0 OFFCURVE",
"383 0 CURVE SMOOTH",
"383 524 LINE SMOOTH",
"383 581 OFFCURVE",
"412 643 OFFCURVE",
"497 643 CURVE SMOOTH",
"532 643 OFFCURVE",
"571 629 OFFCURVE",
"595 616 CURVE"
);
}
);
width = 730;
}
);
leftKerningGroup = f;
note = f;
rightKerningGroup = f;
unicode = 0066;
},
{
glyphname = g;
lastChange = "2018-08-06 15:05:59 +0000";
layers = (
{
anchors = (
{
name = bottom;
position = "{321, 0}";
},
{
name = top;
position = "{321, 535}";
}
);
layerId = "3D0525B3-6B2A-4787-8D58-1F6DD6CCA7DC";
paths = (
{
closed = 1;
nodes = (
"100 -167 LINE",
"145 -204 OFFCURVE",
"226 -230 OFFCURVE",
"301 -230 CURVE",
"445 -230 OFFCURVE",
"571 -156 OFFCURVE",
"571 32 CURVE",
"571 525 LINE",
"468 525 LINE",
"468 402 LINE",
"490 400 LINE",
"490 449 OFFCURVE",
"405 536 OFFCURVE",
"291 536 CURVE",
"150 536 OFFCURVE",
"40 423 OFFCURVE",
"40 263 CURVE",
"40 104 OFFCURVE",
"150 -10 OFFCURVE",
"294 -10 CURVE",
"387 -10 OFFCURVE",
"470 57 OFFCURVE",
"479 114 CURVE",
"468 121 LINE",
"468 20 LINE",
"468 -86 OFFCURVE",
"409 -138 OFFCURVE",
"301 -138 CURVE",
"243 -138 OFFCURVE",
"178 -118 OFFCURVE",
"138 -87 CURVE"
);
},
{
closed = 1;
nodes = (
"404 442 OFFCURVE",
"472 366 OFFCURVE",
"472 263 CURVE",
"472 160 OFFCURVE",
"404 85 OFFCURVE",
"305 85 CURVE",
"208 85 OFFCURVE",
"139 161 OFFCURVE",
"139 263 CURVE",
"139 365 OFFCURVE",
"208 442 OFFCURVE",
"305 442 CURVE"
);
}
);
width = 639;
},
{
anchors = (
{
name = bottom;
position = "{511, -230}";
},
{
name = top;
position = "{511, 525}";
}
);
layerId = "950578AD-3C55-42C9-B412-F732192F54B4";
paths = (
{
closed = 1;
nodes = (
"260 -167 LINE",
"305 -204 OFFCURVE",
"386 -230 OFFCURVE",
"461 -230 CURVE",
"663 -230 OFFCURVE",
"821 -145 OFFCURVE",
"821 72 CURVE",
"821 525 LINE",
"698 525 LINE",
"698 402 LINE",
"720 410 LINE",
"720 455 OFFCURVE",
"605 536 OFFCURVE",
"451 536 CURVE",
"261 536 OFFCURVE",
"130 423 OFFCURVE",
"130 263 CURVE SMOOTH",
"130 104 OFFCURVE",
"252 -10 OFFCURVE",
"434 -10 CURVE",
"572 -10 OFFCURVE",
"696 57 OFFCURVE",
"709 114 CURVE",
"698 121 LINE",
"698 60 LINE",
"698 -66 OFFCURVE",
"614 -122 OFFCURVE",
"461 -122 CURVE",
"403 -122 OFFCURVE",
"338 -102 OFFCURVE",
"298 -71 CURVE"
);
},
{
closed = 1;
nodes = (
"610 432 OFFCURVE",
"702 360 OFFCURVE",
"702 263 CURVE",
"702 166 OFFCURVE",
"610 95 OFFCURVE",
"475 95 CURVE",
"343 95 OFFCURVE",
"249 167 OFFCURVE",
"249 263 CURVE",
"249 359 OFFCURVE",
"343 432 OFFCURVE",
"475 432 CURVE"
);
}
);
width = 1021;
}
);
leftKerningGroup = g;
leftMetricsKey = o;
note = g;
rightKerningGroup = g;
rightMetricsKey = n;
unicode = 0067;
},
{
glyphname = h;
lastChange = "2018-06-06 11:25:36 +0000";
layers = (
{
anchors = (
{
name = bottom;
position = "{292, 0}";
},
{
name = center;
position = "{122, 593}";
},
{
name = top;
position = "{121, 729}";
}
);
layerId = "3D0525B3-6B2A-4787-8D58-1F6DD6CCA7DC";
paths = (
{
closed = 1;
nodes = (
"254 536 OFFCURVE",
"175 466 OFFCURVE",
"157 405 CURVE",
"175 417 LINE",
"175 740 LINE",
"72 740 LINE",
"72 0 LINE",
"72 0 OFFCURVE",
"175 0 OFFCURVE",
"175 0 CURVE",
"175 318 LINE",
"175 386 OFFCURVE",
"233 442 OFFCURVE",
"313 442 CURVE",
"398 447 OFFCURVE",
"424 389 OFFCURVE",
"424 313 CURVE",
"424 0 LINE",
"527 0 LINE",
"527 320 LINE",
"527 439 OFFCURVE",
"488 536 OFFCURVE",
"347 536 CURVE"
);
}
);
width = 595;
},
{
anchors = (
{
name = bottom;
position = "{508, 0}";
},
{
name = center;
position = "{276, 608}";
},
{
name = top;
position = "{255, 740}";
}
);
layerId = "950578AD-3C55-42C9-B412-F732192F54B4";
paths = (
{
closed = 1;
nodes = (
"423 536 OFFCURVE",
"311 450 OFFCURVE",
"285 375 CURVE",
"323 377 LINE",
"323 740 LINE",
"200 740 LINE",
"200 0 LINE",
"200 0 OFFCURVE",
"323 0 OFFCURVE",
"323 0 CURVE",
"323 278 LINE",
"323 338 OFFCURVE",
"406 422 OFFCURVE",
"521 422 CURVE",
"615 427 OFFCURVE",
"692 369 OFFCURVE",
"692 293 CURVE",
"692 0 LINE",
"815 0 LINE",
"815 300 LINE",
"815 430 OFFCURVE",
"728 536 OFFCURVE",
"555 536 CURVE"
);
}
);
width = 1015;
}
);
leftKerningGroup = b;
leftMetricsKey = n;
note = h;
rightKerningGroup = h;
rightMetricsKey = n;
unicode = 0068;
},
{
glyphname = idotless;
lastChange = "2018-06-06 12:32:57 +0000";
layers = (
{
anchors = (
{
name = bottom;
position = "{124, 0}";
},
{
name = ogonek;
position = "{208, 10}";
},
{
name = top;
position = "{124, 525}";
}
);
layerId = "3D0525B3-6B2A-4787-8D58-1F6DD6CCA7DC";
paths = (
{
closed = 1;
nodes = (
"175 525 LINE",
"72 525 LINE",
"72 0 LINE",
"121 0 LINE",
"175 0 LINE"
);
}
);
width = 243;
},
{
anchors = (
{
name = bottom;
position = "{252, 0}";
},
{
name = ogonek;
position = "{303, 0}";
},
{
name = top;
position = "{251, 525}";
}
);
layerId = "950578AD-3C55-42C9-B412-F732192F54B4";
paths = (
{
closed = 1;
nodes = (
"313 525 LINE",
"190 525 LINE",
"190 0 LINE",
"239 0 LINE",
"313 0 LINE"
);
}
);
width = 503;
}
);
note = dotlessi;
unicode = 0131;
},
{
glyphname = iogonek;
lastChange = "2018-06-06 11:37:17 +0000";
layers = (
{
components = (
{
name = dotaccentcomb;
transform = "{1, 0, 0, 1, 45, 0}";
}
);
layerId = "3D0525B3-6B2A-4787-8D58-1F6DD6CCA7DC";
paths = (
{
closed = 1;
nodes = (
"145 52 LINE",
"68 10 OFFCURVE",
"0 -43 OFFCURVE",
"0 -114 CURVE SMOOTH",
"0 -178 OFFCURVE",
"53 -221 OFFCURVE",
"120 -221 CURVE SMOOTH",
"164 -221 OFFCURVE",
"203 -200 OFFCURVE",
"234 -177 CURVE",
"195 -118 LINE",
"177 -133 OFFCURVE",
"157 -144 OFFCURVE",
"140 -144 CURVE SMOOTH",
"113 -144 OFFCURVE",
"93 -125 OFFCURVE",
"93 -102 CURVE SMOOTH",
"93 -63 OFFCURVE",
"137 -26 OFFCURVE",
"198 0 CURVE",
"198 525 LINE",
"95 525 LINE",
"95 7 LINE"
);
}
);
width = 289;
},
{
components = (
{
name = dotaccentcomb;
transform = "{1, 0, 0, 1, 133, 14}";
}
);
layerId = "950578AD-3C55-42C9-B412-F732192F54B4";
paths = (
{
closed = 1;
nodes = (
"233 35 LINE",
"158 -8 OFFCURVE",
"124 -45 OFFCURVE",
"124 -97 CURVE SMOOTH",
"124 -156 OFFCURVE",
"178 -200 OFFCURVE",
"233 -200 CURVE SMOOTH",
"287 -200 OFFCURVE",
"331 -166 OFFCURVE",
"342 -138 CURVE",
"286 -98 LINE",
"278 -111 OFFCURVE",
"266 -123 OFFCURVE",
"249 -123 CURVE SMOOTH",
"228 -123 OFFCURVE",
"215 -108 OFFCURVE",
"215 -87 CURVE SMOOTH",
"215 -48 OFFCURVE",
"269 -12 OFFCURVE",
"323 0 CURVE",
"323 525 LINE",
"200 525 LINE",
"200 -35 LINE"
);
}
);
width = 523;
}
);
note = iogonek;
unicode = 012F;
},
{
glyphname = jdotless;
lastChange = "2018-05-30 12:19:31 +0000";
layers = (
{
anchors = (
{
name = bottom;
position = "{151, 0}";
},
{
name = top;
position = "{138, 531}";
}
);
layerId = "3D0525B3-6B2A-4787-8D58-1F6DD6CCA7DC";
paths = (
{
closed = 1;
nodes = (
"188 -131 OFFCURVE",
"188 -24 CURVE SMOOTH",
"188 525 LINE",
"85 525 LINE",
"85 1 LINE SMOOTH",
"85 -73 OFFCURVE",
"50 -118 OFFCURVE",
"-31 -118 CURVE",
"8 -197 LINE",
"110 -197 OFFCURVE"
);
}
);
width = 263;
},
{
anchors = (
{
name = bottom;
position = "{255, -230}";
},
{
name = top;
position = "{340, 525}";
}
);
layerId = "950578AD-3C55-42C9-B412-F732192F54B4";
paths = (
{
closed = 1;
nodes = (
"399 -81 OFFCURVE",
"399 106 CURVE SMOOTH",
"399 525 LINE",
"276 525 LINE",
"276 131 LINE SMOOTH",
"276 -10 OFFCURVE",
"220 -95 OFFCURVE",
"90 -95 CURVE",
"129 -197 LINE",
"282 -197 OFFCURVE"
);
}
);
width = 599;
}
);
note = dotlessj;
unicode = 0237;
},
{
glyphname = k;
lastChange = "2018-06-06 12:29:25 +0000";
layers = (
{
anchors = (
{
name = bottom;
position = "{277, 0}";
},
{
name = top;
position = "{277, 510}";
}
);
layerId = "3D0525B3-6B2A-4787-8D58-1F6DD6CCA7DC";
paths = (
{
closed = 1;
nodes = (
"175 0 LINE",
"175 740 LINE",
"72 740 LINE",
"72 0 LINE"
);
},
{
closed = 1;
nodes = (
"412 525 LINE",
"161 276 LINE",
"166 164 LINE",
"551 525 LINE"
);
},
{
closed = 1;
nodes = (
"558 0 LINE",
"301 298 LINE",
"228 231 LINE",
"426 0 LINE"
);
}
);
width = 568;
},
{
anchors = (
{
name = bottom;
position = "{476, 0}";
},
{
name = top;
position = "{476, 740}";
}
);
layerId = "950578AD-3C55-42C9-B412-F732192F54B4";
paths = (
{
closed = 1;
nodes = (
"313 0 LINE",
"313 740 LINE",
"200 740 LINE",
"200 0 LINE"
);
},
{
closed = 1;
nodes = (
"658 525 LINE",
"289 246 LINE",
"297 134 LINE",
"822 525 LINE"
);
},
{
closed = 1;
nodes = (
"826 0 LINE",
"489 358 LINE",
"401 291 LINE",
"674 0 LINE"
);
}
);
width = 951;
}
);
leftKerningGroup = b;
leftMetricsKey = l;
note = k;
rightKerningGroup = k;
unicode = 006B;
},
{
glyphname = kgreenlandic;
lastChange = "2018-06-05 17:21:25 +0000";
layers = (
{
anchors = (
{
name = bottom;
position = "{293, 0}";
},
{
name = top;
position = "{293, 510}";
}
);
layerId = "3D0525B3-6B2A-4787-8D58-1F6DD6CCA7DC";
paths = (
{
closed = 1;
nodes = (
"169 0 LINE",
"169 525 LINE",
"72 525 LINE",
"72 0 LINE"
);
},
{
closed = 1;
nodes = (
"406 525 LINE",
"155 256 LINE",
"160 154 LINE",
"274 269 LINE",
"527 525 LINE"
);
},
{
closed = 1;
nodes = (
"532 -1 LINE",
"285 319 LINE",
"216 272 LINE",
"409 0 LINE"
);
}
);
width = 554;
},
{
anchors = (
{
name = bottom;
position = "{448, 0}";
},
{
name = top;
position = "{448, 525}";
}
);
layerId = "950578AD-3C55-42C9-B412-F732192F54B4";
paths = (
{
closed = 1;
nodes = (
"323 0 LINE",
"323 525 LINE",
"200 525 LINE",
"200 0 LINE"
);
},
{
closed = 1;
nodes = (
"650 525 LINE",
"309 256 LINE",
"309 143 LINE",
"440 252 LINE",
"821 525 LINE"
);
},
{
closed = 1;
nodes = (
"822 -1 LINE",
"505 329 LINE",
"410 282 LINE",
"673 0 LINE"
);
}
);
width = 907;
}
);
leftMetricsKey = l;
rightMetricsKey = v;
unicode = 0138;
},
{
glyphname = l;
lastChange = "2018-06-06 11:38:02 +0000";
layers = (
{
anchors = (
{
name = bottom;
position = "{120, 0}";
},
{
name = center;
position = "{120, 289}";
},
{
name = top;
position = "{121, 740}";
},
{
name = topright;
position = "{227, 580}";
}
);
layerId = "3D0525B3-6B2A-4787-8D58-1F6DD6CCA7DC";
paths = (
{
closed = 1;
nodes = (
"175 0 LINE",
"175 740 LINE",
"72 740 LINE",
"72 0 LINE"
);
}
);
width = 250;
},
{
anchors = (
{
name = bottom;
position = "{262, 0}";
},
{
name = center;
position = "{262, 370}";
},
{
name = top;
position = "{262, 740}";
},
{
name = topright;
position = "{503, 740}";
}
);
layerId = "950578AD-3C55-42C9-B412-F732192F54B4";
paths = (
{
closed = 1;
nodes = (
"323 0 LINE",
"323 740 LINE",
"200 740 LINE",
"200 0 LINE"
);
}
);
width = 523;
}
);
leftKerningGroup = b;
leftMetricsKey = n;
note = l;
rightKerningGroup = l;
unicode = 006C;
},
{
glyphname = lslash;
lastChange = "2018-06-06 11:39:19 +0000";
layers = (
{
components = (
{
name = l;
transform = "{1, 0, 0, 1, -2, 0}";
}
);
layerId = "3D0525B3-6B2A-4787-8D58-1F6DD6CCA7DC";
paths = (
{
closed = 1;
nodes = (
"31 292 LINE",
"256 394 LINE",
"220 468 LINE",
"-3 369 LINE"
);
}
);
width = 253;
},
{
components = (
{
name = l;
transform = "{1, 0, 0, 1, 106, 0}";
}
);
layerId = "950578AD-3C55-42C9-B412-F732192F54B4";
paths = (
{
closed = 1;
nodes = (
"201 294 LINE",
"575 389 LINE",
"546 478 LINE",
"175 386 LINE"
);
}
);
width = 750;
}
);
note = lslash;
unicode = 0142;
},
{
glyphname = m;
lastChange = "2018-06-06 11:39:29 +0000";
layers = (
{
anchors = (
{
name = bottom;
position = "{466, 0}";
},
{
name = top;
position = "{466, 510}";
}
);
layerId = "3D0525B3-6B2A-4787-8D58-1F6DD6CCA7DC";
paths = (
{
closed = 1;
nodes = (
"246 534 OFFCURVE",
"172 460 OFFCURVE",
"155 401 CURVE",
"174 413 LINE",
"174 525 LINE",
"70 525 LINE",
"70 0 LINE",
"174 0 LINE",
"174 316 LINE",
"174 383 OFFCURVE",
"229 439 OFFCURVE",
"306 439 CURVE",
"379 439 OFFCURVE",
"409 386 OFFCURVE",
"409 311 CURVE",
"409 0 LINE",
"513 0 LINE",
"513 314 LINE",
"513 383 OFFCURVE",
"568 439 OFFCURVE",
"646 439 CURVE",
"727 439 OFFCURVE",
"751 386 OFFCURVE",
"751 309 CURVE",
"751 0 LINE",
"855 0 LINE",
"855 315 LINE",
"855 436 OFFCURVE",
"816 534 OFFCURVE",
"680 534 CURVE",
"596 534 OFFCURVE",
"522 471 OFFCURVE",
"497 420 CURVE",
"490 403 LINE",
"506 399 LINE",
"488 481 OFFCURVE",
"436 534 OFFCURVE",
"339 534 CURVE"
);
}
);
width = 921;
},
{
anchors = (
{
name = bottom;
position = "{743, 0}";
},
{
name = top;
position = "{743, 525}";
}
);
layerId = "950578AD-3C55-42C9-B412-F732192F54B4";
paths = (
{
closed = 1;
nodes = (
"411 534 OFFCURVE",
"308 440 OFFCURVE",
"285 381 CURVE",
"324 373 LINE",
"324 525 LINE",
"200 525 LINE",
"200 0 LINE",
"324 0 LINE",
"324 276 LINE",
"324 335 OFFCURVE",
"404 419 OFFCURVE",
"516 419 CURVE",
"632 419 OFFCURVE",
"679 366 OFFCURVE",
"679 291 CURVE",
"679 0 LINE",
"803 0 LINE",
"803 254 LINE",
"803 345 OFFCURVE",
"898 419 OFFCURVE",
"1021 419 CURVE",
"1121 419 OFFCURVE",
"1161 366 OFFCURVE",
"1161 289 CURVE",
"1161 0 LINE",
"1285 0 LINE",
"1285 295 LINE",
"1285 427 OFFCURVE",
"1226 534 OFFCURVE",
"1037 534 CURVE",
"904 534 OFFCURVE",
"802 442 OFFCURVE",
"767 394 CURVE",
"760 377 LINE",
"796 359 LINE",
"788 479 OFFCURVE",
"687 534 OFFCURVE",
"567 534 CURVE"
);
}
);
width = 1485;
}
);
leftKerningGroup = m;
note = m;
rightKerningGroup = h;
unicode = 006D;
},
{
glyphname = n;
lastChange = "2018-06-05 17:23:02 +0000";
layers = (
{
anchors = (
{
name = bottom;
position = "{303, 0}";
},
{
name = top;
position = "{303, 510}";
}
);
layerId = "3D0525B3-6B2A-4787-8D58-1F6DD6CCA7DC";
paths = (
{
closed = 1;
nodes = (
"254 536 OFFCURVE",
"175 466 OFFCURVE",
"157 405 CURVE",
"175 417 LINE",
"175 525 LINE",
"72 525 LINE",
"72 0 LINE",
"72 0 OFFCURVE",
"175 0 OFFCURVE",
"175 0 CURVE",
"175 318 LINE",
"175 386 OFFCURVE",
"233 442 OFFCURVE",
"313 442 CURVE",
"398 447 OFFCURVE",
"424 389 OFFCURVE",
"424 313 CURVE",
"424 0 LINE",
"527 0 LINE",
"527 320 LINE",
"527 439 OFFCURVE",
"488 536 OFFCURVE",
"347 536 CURVE"
);
}
);
width = 595;
},
{
anchors = (
{
name = bottom;
position = "{508, 0}";
},
{
name = top;
position = "{528, 525}";
}
);
layerId = "950578AD-3C55-42C9-B412-F732192F54B4";
paths = (
{
closed = 1;
nodes = (
"418 536 OFFCURVE",
"330 450 OFFCURVE",
"285 375 CURVE",
"323 377 LINE",
"323 525 LINE",
"200 525 LINE",
"200 0 LINE",
"200 0 OFFCURVE",
"323 0 OFFCURVE",
"323 0 CURVE",
"323 278 LINE",
"323 338 OFFCURVE",
"406 422 OFFCURVE",
"521 422 CURVE",
"615 427 OFFCURVE",
"692 369 OFFCURVE",
"692 293 CURVE",
"692 0 LINE",
"815 0 LINE",
"815 300 LINE",
"815 430 OFFCURVE",
"724 536 OFFCURVE",
"545 536 CURVE"
);
}
);
width = 1015;
}
);
leftKerningGroup = m;
note = n;
rightKerningGroup = h;
unicode = 006E;
},
{
glyphname = eng;
lastChange = "2018-06-06 12:30:37 +0000";
layers = (
{
anchors = (
{
name = bottom;
position = "{286, 0}";
},
{
name = top;
position = "{295, 510}";
}
);
components = (
{
name = n;
}
);
layerId = "3D0525B3-6B2A-4787-8D58-1F6DD6CCA7DC";
paths = (
{
closed = 1;
nodes = (
"424 -73 OFFCURVE",
"389 -118 OFFCURVE",
"308 -118 CURVE",
"347 -197 LINE",
"449 -197 OFFCURVE",
"527 -131 OFFCURVE",
"527 -24 CURVE SMOOTH",
"527 25 LINE",
"424 1 LINE"
);
}
);
width = 595;
},
{
components = (
{
name = n;
}
);
layerId = "950578AD-3C55-42C9-B412-F732192F54B4";
paths = (
{
closed = 1;
nodes = (
"692 -59 OFFCURVE",
"636 -95 OFFCURVE",
"506 -95 CURVE",
"545 -197 LINE",
"698 -197 OFFCURVE",
"815 -131 OFFCURVE",
"815 -25 CURVE",
"815 14 LINE",
"692 0 LINE"
);
}
);
width = 1015;
}
);
leftMetricsKey = n;
note = eng;
rightMetricsKey = n;
unicode = 014B;
},
{
glyphname = nhookleft;
lastChange = "2018-06-06 12:30:53 +0000";
layers = (
{
components = (
{
name = n;
transform = "{1, 0, 0, 1, 15, 0}";
}
);
layerId = "3D0525B3-6B2A-4787-8D58-1F6DD6CCA7DC";
paths = (
{
closed = 1;
nodes = (
"85 -73 OFFCURVE",
"50 -118 OFFCURVE",
"-31 -118 CURVE",
"8 -197 LINE",
"110 -197 OFFCURVE",
"188 -131 OFFCURVE",
"188 -24 CURVE SMOOTH",
"188 25 LINE",
"85 1 LINE"
);
}
);
width = 610;
},
{
components = (
{
name = n;
transform = "{1, 0, 0, 1, 76, 0}";
}
);
layerId = "950578AD-3C55-42C9-B412-F732192F54B4";
paths = (
{
closed = 1;
nodes = (
"276 -59 OFFCURVE",
"220 -95 OFFCURVE",
"90 -95 CURVE",
"129 -197 LINE",
"282 -197 OFFCURVE",
"399 -131 OFFCURVE",
"399 -25 CURVE",
"399 14 LINE",
"276 0 LINE"
);
}
);
width = 1091;
}
);
leftMetricsKey = j;
rightMetricsKey = n;
unicode = 0272;
},
{
glyphname = o;
lastChange = "2018-08-06 15:06:08 +0000";
layers = (
{
anchors = (
{
name = bottom;
position = "{305, 0}";
},
{
name = center;
position = "{305, 256}";
},
{
name = ogonek;
position = "{547, 10}";
},
{
name = top;
position = "{305, 513}";
},
{
name = topright;
position = "{319, 531}";
}
);
layerId = "3D0525B3-6B2A-4787-8D58-1F6DD6CCA7DC";
paths = (
{
closed = 1;
nodes = (
"575 423 OFFCURVE",
"458 536 OFFCURVE",
"308 536 CURVE",
"157 536 OFFCURVE",
"40 423 OFFCURVE",
"40 263 CURVE",
"40 103 OFFCURVE",
"157 -10 OFFCURVE",
"308 -10 CURVE",
"458 -10 OFFCURVE",
"575 103 OFFCURVE",
"575 263 CURVE"
);
},
{
closed = 1;
nodes = (
"472 158 OFFCURVE",
"400 84 OFFCURVE",
"308 84 CURVE",
"216 84 OFFCURVE",
"143 158 OFFCURVE",
"145 263 CURVE",
"143 369 OFFCURVE",
"216 442 OFFCURVE",
"308 442 CURVE",
"400 442 OFFCURVE",
"472 369 OFFCURVE",
"470 263 CURVE"
);
}
);
width = 615;
},
{
anchors = (
{
name = bottom;
position = "{478, 0}";
},
{
name = center;
position = "{478, 263}";
},
{
name = ogonek;
position = "{860, 10}";
},
{
name = top;
position = "{478, 525}";
},
{
name = topright;
position = "{596, 475}";
}
);
layerId = "950578AD-3C55-42C9-B412-F732192F54B4";
paths = (
{
closed = 1;
nodes = (
"825 423 OFFCURVE",
"683 536 OFFCURVE",
"478 536 CURVE",
"272 536 OFFCURVE",
"130 423 OFFCURVE",
"130 263 CURVE",
"130 103 OFFCURVE",
"272 -10 OFFCURVE",
"478 -10 CURVE",
"683 -10 OFFCURVE",
"825 103 OFFCURVE",
"825 263 CURVE"
);
},
{
closed = 1;
nodes = (
"703 164 OFFCURVE",
"604 94 OFFCURVE",
"478 94 CURVE",
"352 94 OFFCURVE",
"252 164 OFFCURVE",
"255 263 CURVE",
"252 363 OFFCURVE",
"352 432 OFFCURVE",
"478 432 CURVE",
"604 432 OFFCURVE",
"703 363 OFFCURVE",
"700 263 CURVE"
);
}
);
width = 955;
}
);
leftKerningGroup = c;
note = o;
rightKerningGroup = b;
unicode = 006F;
},
{
glyphname = oogonek;
lastChange = "2018-06-06 11:54:40 +0000";
layers = (
{
layerId = "3D0525B3-6B2A-4787-8D58-1F6DD6CCA7DC";
paths = (
{
closed = 1;
nodes = (
"210 79 OFFCURVE",
"136 155 OFFCURVE",
"136 263 CURVE",
"136 372 OFFCURVE",
"210 447 OFFCURVE",
"304 447 CURVE",
"398 447 OFFCURVE",
"471 372 OFFCURVE",
"471 263 CURVE",
"471 155 OFFCURVE",
"398 79 OFFCURVE",
"304 79 CURVE"
);
},
{
closed = 1;
nodes = (
"326 -10 OFFCURVE",
"388 19 OFFCURVE",
"403 31 CURVE",
"408 78 LINE",
"338 57 OFFCURVE",
"250 14 OFFCURVE",
"250 -91 CURVE",
"250 -165 OFFCURVE",
"303 -201 OFFCURVE",
"356 -201 CURVE",
"410 -201 OFFCURVE",
"450 -164 OFFCURVE",
"467 -133 CURVE",
"422 -89 LINE",
"410 -107 OFFCURVE",
"392 -124 OFFCURVE",
"370 -124 CURVE",
"352 -124 OFFCURVE",
"331 -106 OFFCURVE",
"331 -73 CURVE",
"331 -34 OFFCURVE",
"370 -6 OFFCURVE",
"421 19 CURVE",
"510 58 OFFCURVE",
"568 149 OFFCURVE",
"568 263 CURVE",
"568 423 OFFCURVE",
"452 536 OFFCURVE",
"304 536 CURVE",
"155 536 OFFCURVE",
"39 423 OFFCURVE",
"39 263 CURVE",
"39 103 OFFCURVE",
"155 -10 OFFCURVE",
"304 -10 CURVE"
);
}
);
width = 607;
},
{
layerId = "950578AD-3C55-42C9-B412-F732192F54B4";
paths = (
{
closed = 1;
nodes = (
"352 94 OFFCURVE",
"252 164 OFFCURVE",
"255 263 CURVE",
"252 363 OFFCURVE",
"352 432 OFFCURVE",
"478 432 CURVE",
"604 432 OFFCURVE",
"703 363 OFFCURVE",
"700 263 CURVE",
"703 164 OFFCURVE",
"604 94 OFFCURVE",
"478 94 CURVE"
);
},
{
closed = 1;
nodes = (
"540 -10 OFFCURVE",
"586 4 OFFCURVE",
"634 23 CURVE",
"629 78 LINE",
"559 57 OFFCURVE",
"467 14 OFFCURVE",
"467 -91 CURVE",
"467 -165 OFFCURVE",
"524 -201 OFFCURVE",
"577 -201 CURVE",
"631 -201 OFFCURVE",
"671 -164 OFFCURVE",
"688 -133 CURVE",
"643 -89 LINE",
"631 -107 OFFCURVE",
"613 -124 OFFCURVE",
"591 -124 CURVE",
"573 -124 OFFCURVE",
"548 -106 OFFCURVE",
"548 -73 CURVE",
"548 -34 OFFCURVE",
"593 -6 OFFCURVE",
"646 19 CURVE SMOOTH",
"754 70 OFFCURVE",
"825 152 OFFCURVE",
"825 263 CURVE",
"825 423 OFFCURVE",
"683 536 OFFCURVE",
"478 536 CURVE",
"272 536 OFFCURVE",
"130 423 OFFCURVE",
"130 263 CURVE",
"130 103 OFFCURVE",
"272 -10 OFFCURVE",
"478 -10 CURVE"
);
}
);
width = 955;
}
);
leftKerningGroup = o;
rightKerningGroup = b;
unicode = 01EB;
},
{
glyphname = oslash;
lastChange = "2018-06-06 11:52:17 +0000";
layers = (
{
anchors = (
{
name = top;
position = "{305, 530}";
}
);
components = (
{
name = o;
}
);
layerId = "3D0525B3-6B2A-4787-8D58-1F6DD6CCA7DC";
paths = (
{
closed = 1;
nodes = (
"107 -35 LINE",
"561 496 LINE",
"494 545 LINE",
"41 13 LINE"
);
}
);
width = 615;
},
{
components = (
{
name = o;
}
);
layerId = "950578AD-3C55-42C9-B412-F732192F54B4";
paths = (
{
closed = 1;
nodes = (
"198 -15 LINE",
"800 476 LINE",
"743 536 LINE",
"141 43 LINE"
);
}
);
width = 955;
}
);
leftKerningGroup = o;
leftMetricsKey = o;
note = oslash;
rightKerningGroup = b;
rightMetricsKey = o;
unicode = 00F8;
},
{
glyphname = p;
lastChange = "2018-08-06 15:08:13 +0000";
layers = (
{
anchors = (
{
name = bottom;
position = "{317, 0}";
},
{
name = top;
position = "{317, 510}";
}
);
layerId = "3D0525B3-6B2A-4787-8D58-1F6DD6CCA7DC";
paths = (
{
closed = 1;
nodes = (
"252 534 OFFCURVE",
"171 467 OFFCURVE",
"160 414 CURVE",
"176 405 LINE",
"176 526 LINE",
"72 526 LINE",
"72 -220 LINE",
"176 -220 LINE",
"176 131 LINE",
"150 117 LINE",
"162 65 OFFCURVE",
"245 -9 OFFCURVE",
"349 -9 CURVE",
"485 -9 OFFCURVE",
"591 104 OFFCURVE",
"591 263 CURVE",
"591 422 OFFCURVE",
"486 534 OFFCURVE",
"346 534 CURVE"
);
},
{
closed = 1;
nodes = (
"426 439 OFFCURVE",
"492 364 OFFCURVE",
"492 263 CURVE",
"492 163 OFFCURVE",
"426 86 OFFCURVE",
"332 86 CURVE",
"237 86 OFFCURVE",
"171 163 OFFCURVE",
"171 263 CURVE",
"171 364 OFFCURVE",
"237 439 OFFCURVE",
"332 439 CURVE"
);
}
);
width = 631;
},
{
anchors = (
{
name = bottom;
position = "{505, 0}";
},
{
name = top;
position = "{505, 525}";
}
);
layerId = "950578AD-3C55-42C9-B412-F732192F54B4";
paths = (
{
closed = 1;
nodes = (
"435 534 OFFCURVE",
"323 467 OFFCURVE",
"308 414 CURVE",
"324 405 LINE",
"324 526 LINE",
"200 526 LINE",
"200 -220 LINE",
"324 -220 LINE",
"324 131 LINE",
"298 117 LINE",
"314 65 OFFCURVE",
"426 -9 OFFCURVE",
"567 -9 CURVE",
"752 -9 OFFCURVE",
"879 104 OFFCURVE",
"879 263 CURVE",
"879 422 OFFCURVE",
"754 534 OFFCURVE",
"564 534 CURVE"
);
},
{
closed = 1;
nodes = (
"669 429 OFFCURVE",
"760 358 OFFCURVE",
"760 263 CURVE",
"760 169 OFFCURVE",
"669 96 OFFCURVE",
"540 96 CURVE",
"410 96 OFFCURVE",
"319 169 OFFCURVE",
"319 263 CURVE",
"319 358 OFFCURVE",
"410 429 OFFCURVE",
"540 429 CURVE"
);
}
);
width = 1009;
}
);
leftKerningGroup = p;
leftMetricsKey = n;
note = p;
rightKerningGroup = b;
rightMetricsKey = o;
unicode = 0070;
},
{
glyphname = thorn;
lastChange = "2018-06-06 12:31:34 +0000";
layers = (
{
anchors = (
{
name = bottom;
position = "{284, 0}";
},
{
name = top;
position = "{284, 499}";
}
);
layerId = "3D0525B3-6B2A-4787-8D58-1F6DD6CCA7DC";
paths = (
{
closed = 1;
nodes = (
"252 534 OFFCURVE",
"171 467 OFFCURVE",
"160 414 CURVE",
"176 405 LINE",
"176 740 LINE",
"72 740 LINE",
"72 -220 LINE",
"176 -220 LINE",
"176 131 LINE",
"150 117 LINE",
"162 65 OFFCURVE",
"245 -9 OFFCURVE",
"349 -9 CURVE",
"485 -9 OFFCURVE",
"591 104 OFFCURVE",
"591 263 CURVE",
"591 422 OFFCURVE",
"486 534 OFFCURVE",
"346 534 CURVE"
);
},
{
closed = 1;
nodes = (
"426 439 OFFCURVE",
"492 364 OFFCURVE",
"492 263 CURVE",
"492 163 OFFCURVE",
"426 86 OFFCURVE",
"332 86 CURVE",
"237 86 OFFCURVE",
"171 163 OFFCURVE",
"171 263 CURVE",
"171 364 OFFCURVE",
"237 439 OFFCURVE",
"332 439 CURVE"
);
}
);
width = 631;
},
{
anchors = (
{
name = bottom;
position = "{505, 0}";
},
{
name = top;
position = "{505, 525}";
}
);
layerId = "950578AD-3C55-42C9-B412-F732192F54B4";
paths = (
{
closed = 1;
nodes = (
"435 534 OFFCURVE",
"323 467 OFFCURVE",
"308 414 CURVE",
"324 405 LINE",
"324 740 LINE",
"200 740 LINE",
"200 -220 LINE",
"324 -220 LINE",
"324 131 LINE",
"298 117 LINE",
"314 65 OFFCURVE",
"426 -9 OFFCURVE",
"567 -9 CURVE",
"742 -9 OFFCURVE",
"879 104 OFFCURVE",
"879 263 CURVE",
"879 422 OFFCURVE",
"744 534 OFFCURVE",
"564 534 CURVE"
);
},
{
closed = 1;
nodes = (
"669 429 OFFCURVE",
"760 358 OFFCURVE",
"760 263 CURVE",
"760 169 OFFCURVE",
"669 96 OFFCURVE",
"540 96 CURVE",
"410 96 OFFCURVE",
"319 169 OFFCURVE",
"319 263 CURVE",
"319 358 OFFCURVE",
"410 429 OFFCURVE",
"540 429 CURVE"
);
}
);
width = 1009;
}
);
leftMetricsKey = p;
note = thorn;
rightMetricsKey = p;
unicode = 00FE;
},
{
glyphname = q;
lastChange = "2018-06-06 12:31:42 +0000";
layers = (
{
anchors = (
{
name = bottom;
position = "{315, 0}";
},
{
name = top;
position = "{315, 510}";
}
);
layerId = "3D0525B3-6B2A-4787-8D58-1F6DD6CCA7DC";
paths = (
{
closed = 1;
nodes = (
"455 526 LINE",
"455 389 LINE",
"485 391 LINE",
"485 452 OFFCURVE",
"398 536 OFFCURVE",
"285 536 CURVE",
"148 536 OFFCURVE",
"40 423 OFFCURVE",
"40 263 CURVE",
"40 104 OFFCURVE",
"148 -10 OFFCURVE",
"288 -10 CURVE",
"393 -10 OFFCURVE",
"475 74 OFFCURVE",
"475 125 CURVE",
"455 125 LINE",
"455 -220 LINE",
"558 -220 LINE",
"558 526 LINE"
);
},
{
closed = 1;
nodes = (
"205 85 OFFCURVE",
"139 161 OFFCURVE",
"139 263 CURVE",
"139 365 OFFCURVE",
"205 442 OFFCURVE",
"299 442 CURVE",
"394 442 OFFCURVE",
"459 365 OFFCURVE",
"459 263 CURVE",
"459 161 OFFCURVE",
"394 85 OFFCURVE",
"299 85 CURVE"
);
}
);
width = 626;
},
{
anchors = (
{
name = bottom;
position = "{499, 0}";
},
{
name = top;
position = "{499, 525}";
}
);
layerId = "950578AD-3C55-42C9-B412-F732192F54B4";
paths = (
{
closed = 1;
nodes = (
"695 526 LINE",
"695 389 LINE",
"725 391 LINE",
"725 452 OFFCURVE",
"608 536 OFFCURVE",
"455 536 CURVE",
"273 536 OFFCURVE",
"130 423 OFFCURVE",
"130 263 CURVE",
"130 104 OFFCURVE",
"273 -10 OFFCURVE",
"458 -10 CURVE",
"602 -10 OFFCURVE",
"715 74 OFFCURVE",
"715 125 CURVE",
"695 125 LINE",
"695 -220 LINE",
"818 -220 LINE",
"818 526 LINE"
);
},
{
closed = 1;
nodes = (
"340 95 OFFCURVE",
"254 167 OFFCURVE",
"254 263 CURVE",
"254 359 OFFCURVE",
"340 432 OFFCURVE",
"461 432 CURVE",
"602 432 OFFCURVE",
"699 359 OFFCURVE",
"699 263 CURVE",
"699 167 OFFCURVE",
"602 95 OFFCURVE",
"461 95 CURVE"
);
}
);
width = 998;
}
);
leftKerningGroup = c;
leftMetricsKey = o;
note = q;
rightKerningGroup = q;
unicode = 0071;
},
{
glyphname = r;
lastChange = "2018-06-06 11:56:40 +0000";
layers = (
{
anchors = (
{
name = bottom;
position = "{126, 0}";
},
{
name = top;
position = "{217, 510}";
}
);
layerId = "3D0525B3-6B2A-4787-8D58-1F6DD6CCA7DC";
paths = (
{
closed = 1;
nodes = (
"393 526 LINE",
"381 532 OFFCURVE",
"358 536 OFFCURVE",
"336 536 CURVE",
"262 536 OFFCURVE",
"188 476 OFFCURVE",
"166 400 CURVE",
"176 360 LINE",
"176 525 LINE",
"72 525 LINE",
"72 0 LINE",
"176 0 LINE",
"176 290 LINE",
"176 373 OFFCURVE",
"247 426 OFFCURVE",
"311 426 CURVE SMOOTH",
"332 426 OFFCURVE",
"353 420 OFFCURVE",
"366 414 CURVE"
);
}
);
width = 403;
},
{
anchors = (
{
name = bottom;
position = "{257, 0}";
},
{
name = top;
position = "{391, 525}";
}
);
layerId = "950578AD-3C55-42C9-B412-F732192F54B4";
paths = (
{
closed = 1;
nodes = (
"661 506 LINE",
"634 525 OFFCURVE",
"583 536 OFFCURVE",
"534 536 CURVE",
"430 536 OFFCURVE",
"325 449 OFFCURVE",
"294 340 CURVE",
"324 334 LINE",
"324 525 LINE",
"200 525 LINE",
"200 0 LINE",
"324 0 LINE",
"324 260 LINE",
"324 334 OFFCURVE",
"399 412 OFFCURVE",
"519 412 CURVE SMOOTH",
"557 412 OFFCURVE",
"604 401 OFFCURVE",
"634 384 CURVE"
);
}
);
width = 781;
}
);
leftKerningGroup = m;
leftMetricsKey = n;
note = r;
rightKerningGroup = r;
unicode = 0072;
},
{
glyphname = s;
lastChange = "2018-07-03 12:32:19 +0000";
layers = (
{
anchors = (
{
name = bottom;
position = "{238, 0}";
},
{
name = top;
position = "{238, 530}";
}
);
layerId = "3D0525B3-6B2A-4787-8D58-1F6DD6CCA7DC";
paths = (
{
closed = 1;
nodes = (
"434 452 LINE",
"386 511 OFFCURVE",
"304 536 OFFCURVE",
"241 536 CURVE",
"142 536 OFFCURVE",
"53 478 OFFCURVE",
"53 385 CURVE",
"53 273 OFFCURVE",
"148 240 OFFCURVE",
"234 217 CURVE",
"292 202 OFFCURVE",
"342 190 OFFCURVE",
"342 142 CURVE",
"342 92 OFFCURVE",
"293 75 OFFCURVE",
"256 75 CURVE",
"189 75 OFFCURVE",
"146 100 OFFCURVE",
"110 141 CURVE",
"40 81 LINE",
"92 14 OFFCURVE",
"171 -10 OFFCURVE",
"247 -10 CURVE",
"342 -10 OFFCURVE",
"437 48 OFFCURVE",
"437 146 CURVE",
"437 259 OFFCURVE",
"349 286 OFFCURVE",
"267 308 CURVE",
"204 324 OFFCURVE",
"155 340 OFFCURVE",
"154 388 CURVE",
"154 439 OFFCURVE",
"204 451 OFFCURVE",
"246 451 CURVE",
"286 451 OFFCURVE",
"338 424 OFFCURVE",
"375 387 CURVE"
);
}
);
width = 477;
},
{
anchors = (
{
name = bottom;
position = "{391, 0}";
},
{
name = top;
position = "{411, 525}";
}
);
layerId = "950578AD-3C55-42C9-B412-F732192F54B4";
paths = (
{
closed = 1;
nodes = (
"674 452 LINE",
"609 511 OFFCURVE",
"492 536 OFFCURVE",
"399 536 CURVE",
"248 536 OFFCURVE",
"132 478 OFFCURVE",
"132 384 CURVE SMOOTH",
"132 274 OFFCURVE",
"244 241 OFFCURVE",
"384 217 CURVE SMOOTH",
"477 202 OFFCURVE",
"562 187 OFFCURVE",
"562 142 CURVE",
"562 94 OFFCURVE",
"470 84 OFFCURVE",
"406 84 CURVE SMOOTH",
"307 84 OFFCURVE",
"243 115 OFFCURVE",
"190 166 CURVE",
"120 91 LINE",
"190 17 OFFCURVE",
"295 -10 OFFCURVE",
"418 -10 CURVE",
"562 -10 OFFCURVE",
"677 48 OFFCURVE",
"677 161 CURVE SMOOTH",
"677 264 OFFCURVE",
"544 297 OFFCURVE",
"417 317 CURVE SMOOTH",
"326 331 OFFCURVE",
"249 348 OFFCURVE",
"248 388 CURVE",
"248 431 OFFCURVE",
"337 441 OFFCURVE",
"399 441 CURVE",
"473 441 OFFCURVE",
"558 412 OFFCURVE",
"615 372 CURVE"
);
}
);
width = 797;
}
);
leftKerningGroup = s;
note = s;
rightKerningGroup = s;
unicode = 0073;
},
{
glyphname = germandbls;
lastChange = "2018-06-06 11:59:57 +0000";
layers = (
{
layerId = "3D0525B3-6B2A-4787-8D58-1F6DD6CCA7DC";
paths = (
{
closed = 1;
nodes = (
"226 -1 LINE",
"226 502 LINE",
"226 582 OFFCURVE",
"269 644 OFFCURVE",
"350 644 CURVE",
"416 644 OFFCURVE",
"457 614 OFFCURVE",
"457 565 CURVE",
"457 523 OFFCURVE",
"424 485 OFFCURVE",
"344 450 CURVE",
"344 385 LINE",
"459 357 OFFCURVE",
"525 311 OFFCURVE",
"525 206 CURVE",
"525 128 OFFCURVE",
"483 68 OFFCURVE",
"414 68 CURVE",
"386 68 OFFCURVE",
"356 87 OFFCURVE",
"327 112 CURVE",
"275 57 LINE",
"305 19 OFFCURVE",
"348 -10 OFFCURVE",
"410 -10 CURVE",
"530 -10 OFFCURVE",
"622 84 OFFCURVE",
"622 218 CURVE",
"622 342 OFFCURVE",
"535 415 OFFCURVE",
"447 443 CURVE",
"449 439 LINE",
"506 464 OFFCURVE",
"553 514 OFFCURVE",
"553 574 CURVE",
"553 662 OFFCURVE",
"483 734 OFFCURVE",
"354 734 CURVE",
"208 734 OFFCURVE",
"129 630 OFFCURVE",
"129 499 CURVE",
"129 -1 LINE"
);
},
{
closed = 1;
nodes = (
"180 404 LINE",
"180 497 LINE",
"45 497 LINE",
"45 404 LINE"
);
}
);
width = 662;
},
{
layerId = "950578AD-3C55-42C9-B412-F732192F54B4";
paths = (
{
closed = 1;
nodes = (
"371 -1 LINE",
"371 502 LINE",
"371 574 OFFCURVE",
"438 629 OFFCURVE",
"565 629 CURVE",
"649 629 OFFCURVE",
"702 597 OFFCURVE",
"702 545 CURVE",
"702 503 OFFCURVE",
"661 465 OFFCURVE",
"559 430 CURVE",
"559 365 LINE",
"693 339 OFFCURVE",
"770 295 OFFCURVE",
"770 196 CURVE",
"770 138 OFFCURVE",
"724 94 OFFCURVE",
"659 94 CURVE",
"600 94 OFFCURVE",
"541 114 OFFCURVE",
"486 146 CURVE",
"444 57 LINE",
"491 19 OFFCURVE",
"558 -10 OFFCURVE",
"655 -10 CURVE",
"798 -10 OFFCURVE",
"907 80 OFFCURVE",
"907 208 CURVE",
"907 332 OFFCURVE",
"785 413 OFFCURVE",
"662 443 CURVE",
"664 399 LINE",
"759 428 OFFCURVE",
"838 485 OFFCURVE",
"838 554 CURVE",
"838 653 OFFCURVE",
"743 734 OFFCURVE",
"569 734 CURVE",
"361 734 OFFCURVE",
"248 630 OFFCURVE",
"248 499 CURVE",
"248 -1 LINE"
);
},
{
closed = 1;
nodes = (
"325 404 LINE",
"325 497 LINE",
"145 497 LINE",
"145 404 LINE"
);
}
);
width = 1027;
}
);
leftMetricsKey = f;
note = germandbls;
rightMetricsKey = s;
unicode = 00DF;
},
{
glyphname = t;
lastChange = "2018-08-06 15:09:15 +0000";
layers = (
{
anchors = (
{
name = bottom;
position = "{176, 0}";
},
{
name = center;
position = "{176, 256}";
},
{
name = top;
position = "{177, 646}";
},
{
name = topright;
position = "{302, 548}";
}
);
layerId = "3D0525B3-6B2A-4787-8D58-1F6DD6CCA7DC";
paths = (
{
closed = 1;
nodes = (
"234 659 LINE",
"131 659 LINE",
"131 0 LINE",
"234 0 LINE"
);
},
{
closed = 1;
nodes = (
"356 519 LINE",
"22 519 LINE",
"22 423 LINE",
"356 423 LINE"
);
}
);
width = 378;
},
{
anchors = (
{
name = bottom;
position = "{355, 0}";
},
{
name = center;
position = "{355, 233}";
},
{
name = top;
position = "{355, 585}";
},
{
name = topright;
position = "{729, 525}";
}
);
layerId = "950578AD-3C55-42C9-B412-F732192F54B4";
paths = (
{
closed = 1;
nodes = (
"417 659 LINE",
"294 659 LINE",
"294 0 LINE",
"417 0 LINE"
);
},
{
closed = 1;
nodes = (
"599 509 LINE",
"125 509 LINE",
"125 403 LINE",
"599 403 LINE"
);
}
);
width = 749;
}
);
leftKerningGroup = t;
note = t;
rightKerningGroup = t;
unicode = 0074;
},
{
glyphname = u;
lastChange = "2018-06-06 12:07:31 +0000";
layers = (
{
anchors = (
{
name = bottom;
position = "{299, 0}";
},
{
name = ogonek;
position = "{530, 0}";
},
{
name = top;
position = "{299, 510}";
},
{
name = topright;
position = "{386, 532}";
}
);
layerId = "3D0525B3-6B2A-4787-8D58-1F6DD6CCA7DC";
paths = (
{
closed = 1;
nodes = (
"430 128 OFFCURVE",
"370 80 OFFCURVE",
"298 80 CURVE SMOOTH",
"211 80 OFFCURVE",
"175 149 OFFCURVE",
"175 229 CURVE",
"175 525 LINE",
"72 525 LINE",
"72 201 LINE",
"72 69 OFFCURVE",
"146 -10 OFFCURVE",
"256 -10 CURVE SMOOTH",
"360 -10 OFFCURVE",
"428 61 OFFCURVE",
"448 122 CURVE",
"430 110 LINE",
"430 0 LINE",
"533 0 LINE",
"533 525 LINE",
"533 525 OFFCURVE",
"430 525 OFFCURVE",
"430 525 CURVE",
"430 209 LINE SMOOTH"
);
}
);
width = 605;
},
{
anchors = (
{
name = bottom;
position = "{506, 0}";
},
{
name = ogonek;
position = "{830, 11}";
},
{
name = top;
position = "{506, 525}";
},
{
name = topright;
position = "{810, 481}";
}
);
layerId = "950578AD-3C55-42C9-B412-F732192F54B4";
paths = (
{
closed = 1;
nodes = (
"688 169 OFFCURVE",
"596 103 OFFCURVE",
"486 103 CURVE SMOOTH",
"364 103 OFFCURVE",
"313 169 OFFCURVE",
"313 299 CURVE",
"313 525 LINE",
"190 525 LINE",
"190 241 LINE",
"190 84 OFFCURVE",
"292 -10 OFFCURVE",
"444 -10 CURVE SMOOTH",
"586 -10 OFFCURVE",
"679 61 OFFCURVE",
"706 122 CURVE",
"688 110 LINE",
"688 0 LINE",
"811 0 LINE",
"811 525 LINE",
"811 525 OFFCURVE",
"688 525 OFFCURVE",
"688 525 CURVE",
"688 279 LINE SMOOTH"
);
}
);
width = 1011;
}
);
leftKerningGroup = u;
note = u;
rightKerningGroup = u;
unicode = 0075;
},
{
glyphname = v;
lastChange = "2018-08-06 15:03:31 +0000";
layers = (
{
anchors = (
{
name = bottom;
position = "{287, 0}";
},
{
name = top;
position = "{287, 510}";
}
);
layerId = "3D0525B3-6B2A-4787-8D58-1F6DD6CCA7DC";
paths = (
{
closed = 1;
nodes = (
"22 525 LINE",
"244 0 LINE",
"318 0 LINE",
"551 525 LINE",
"445 525 LINE",
"274 123 LINE",
"293 132 LINE",
"133 525 LINE"
);
}
);
width = 573;
},
{
anchors = (
{
name = bottom;
position = "{435, 0}";
},
{
name = top;
position = "{435, 525}";
}
);
layerId = "950578AD-3C55-42C9-B412-F732192F54B4";
paths = (
{
closed = 1;
nodes = (
"85 525 LINE",
"373 0 LINE",
"487 0 LINE",
"784 525 LINE",
"648 525 LINE",
"407 71 LINE",
"456 80 LINE",
"226 525 LINE"
);
}
);
width = 869;
}
);
leftKerningGroup = v;
note = v;
rightKerningGroup = v;
unicode = 0076;
},
{
glyphname = w;
lastChange = "2018-08-06 15:07:43 +0000";
layers = (
{
anchors = (
{
name = bottom;
position = "{390, 0}";
},
{
name = top;
position = "{390, 505}";
}
);
layerId = "3D0525B3-6B2A-4787-8D58-1F6DD6CCA7DC";
paths = (
{
closed = 1;
nodes = (
"654 525 LINE",
"525 132 LINE",
"552 134 LINE",
"422 442 LINE",
"360 442 LINE",
"231 135 LINE",
"254 133 LINE",
"126 526 LINE",
"22 525 LINE",
"201 0 LINE",
"271 0 LINE",
"397 331 LINE",
"374 334 LINE",
"510 0 LINE",
"581 0 LINE",
"758 525 LINE"
);
}
);
width = 780;
},
{
anchors = (
{
name = bottom;
position = "{543, 0}";
},
{
name = top;
position = "{543, 505}";
}
);
layerId = "950578AD-3C55-42C9-B412-F732192F54B4";
paths = (
{
closed = 1;
nodes = (
"877 525 LINE",
"720 112 LINE",
"757 114 LINE",
"594 442 LINE",
"486 442 LINE",
"326 115 LINE",
"369 113 LINE",
"219 526 LINE",
"85 525 LINE",
"298 0 LINE",
"388 0 LINE",
"548 331 LINE",
"525 334 LINE",
"697 0 LINE",
"788 0 LINE",
"1001 525 LINE"
);
}
);
width = 1086;
}
);
leftKerningGroup = w;
leftMetricsKey = v;
note = w;
rightKerningGroup = w;
rightMetricsKey = v;
unicode = 0077;
},
{
glyphname = x;
lastChange = "2018-08-06 15:03:40 +0000";
layers = (
{
anchors = (
{
name = bottom;
position = "{277, 0}";
},
{
name = top;
position = "{277, 510}";
}
);
layerId = "3D0525B3-6B2A-4787-8D58-1F6DD6CCA7DC";
paths = (
{
closed = 1;
nodes = (
"15 525 LINE",
"236 240 LINE",
"421 0 LINE",
"547 0 LINE",
"312 307 LINE",
"145 525 LINE"
);
},
{
closed = 1;
nodes = (
"137 -1 LINE",
"279 190 LINE",
"223 270 LINE",
"16 0 LINE"
);
},
{
closed = 1;
nodes = (
"407 525 LINE",
"278 326 LINE",
"335 254 LINE",
"529 525 LINE"
);
}
);
width = 562;
},
{
anchors = (
{
name = bottom;
position = "{496, 0}";
},
{
name = top;
position = "{496, 525}";
}
);
layerId = "950578AD-3C55-42C9-B412-F732192F54B4";
paths = (
{
closed = 1;
nodes = (
"150 525 LINE",
"448 233 LINE",
"671 0 LINE",
"842 0 LINE",
"536 302 LINE",
"325 525 LINE"
);
},
{
closed = 1;
nodes = (
"317 -1 LINE",
"509 218 LINE",
"418 280 LINE",
"151 0 LINE"
);
},
{
closed = 1;
nodes = (
"667 525 LINE",
"468 320 LINE",
"550 248 LINE",
"834 525 LINE"
);
}
);
width = 992;
}
);
leftKerningGroup = x;
note = x;
rightKerningGroup = x;
unicode = 0078;
},
{
glyphname = y;
lastChange = "2018-08-06 15:03:48 +0000";
layers = (
{
anchors = (
{
name = bottom;
position = "{502, 0}";
},
{
name = top;
position = "{297, 510}";
}
);
layerId = "3D0525B3-6B2A-4787-8D58-1F6DD6CCA7DC";
paths = (
{
closed = 1;
nodes = (
"309 59 LINE",
"299 88 OFFCURVE",
"288 120 OFFCURVE",
"278 146 CURVE SMOOTH",
"132 525 LINE",
"15 525 LINE",
"252 -52 LINE"
);
},
{
closed = 1;
nodes = (
"277 -230 LINE",
"372 0 LINE",
"588 525 LINE",
"475 525 LINE",
"335 146 LINE SMOOTH",
"325 118 OFFCURVE",
"314 87 OFFCURVE",
"303 58 CURVE",
"258 -33 LINE",
"175 -230 LINE"
);
}
);
width = 603;
},
{
anchors = (
{
name = bottom;
position = "{733, 0}";
},
{
name = top;
position = "{472, 525}";
}
);
layerId = "950578AD-3C55-42C9-B412-F732192F54B4";
paths = (
{
closed = 1;
nodes = (
"496 39 LINE",
"483 90 OFFCURVE",
"450 153 OFFCURVE",
"404 238 CURVE SMOOTH",
"249 525 LINE",
"110 525 LINE",
"437 -52 LINE"
);
},
{
closed = 1;
nodes = (
"412 -230 LINE",
"541 1 LINE",
"833 525 LINE",
"697 525 LINE",
"547 238 LINE SMOOTH",
"506 160 OFFCURVE",
"480 98 OFFCURVE",
"460 48 CURVE",
"412 -14 LINE",
"286 -230 LINE"
);
}
);
width = 943;
}
);
leftKerningGroup = y;
note = y;
rightKerningGroup = y;
unicode = 0079;
},
{
glyphname = z;
lastChange = "2018-06-05 17:36:37 +0000";
layers = (
{
anchors = (
{
name = bottom;
position = "{240, 0}";
},
{
name = top;
position = "{248, 510}";
}
);
layerId = "3D0525B3-6B2A-4787-8D58-1F6DD6CCA7DC";
paths = (
{
closed = 1;
nodes = (
"162 89 LINE",
"166 84 LINE",
"433 441 LINE",
"433 525 LINE",
"50 525 LINE",
"50 436 LINE",
"321 436 LINE",
"321 448 LINE",
"50 86 LINE",
"50 0 LINE",
"439 0 LINE",
"439 89 LINE"
);
}
);
width = 482;
},
{
anchors = (
{
name = bottom;
position = "{365, 0}";
},
{
name = top;
position = "{365, 525}";
}
);
layerId = "950578AD-3C55-42C9-B412-F732192F54B4";
paths = (
{
closed = 1;
nodes = (
"212 104 LINE",
"242 84 LINE",
"623 441 LINE",
"623 525 LINE",
"100 525 LINE",
"100 421 LINE",
"511 421 LINE",
"484 448 LINE",
"100 86 LINE",
"100 0 LINE",
"629 0 LINE",
"629 104 LINE"
);
}
);
width = 729;
}
);
leftKerningGroup = z;
note = z;
rightKerningGroup = z;
unicode = 007A;
},
{
glyphname = ordfeminine;
lastChange = "2018-06-06 12:33:34 +0000";
layers = (
{
layerId = "3D0525B3-6B2A-4787-8D58-1F6DD6CCA7DC";
paths = (
{
closed = 1;
nodes = (
"213 391 OFFCURVE",
"257 462 OFFCURVE",
"257 512 CURVE",
"242 474 LINE",
"242 401 LINE",
"335 401 LINE",
"335 715 LINE",
"242 715 LINE",
"242 648 LINE",
"257 592 LINE",
"257 679 OFFCURVE",
"217 721 OFFCURVE",
"155 721 CURVE",
"69 721 OFFCURVE",
"15 650 OFFCURVE",
"15 562 CURVE",
"15 469 OFFCURVE",
"57 391 OFFCURVE",
"143 391 CURVE"
);
},
{
closed = 1;
nodes = (
"128 458 OFFCURVE",
"108 505 OFFCURVE",
"108 562 CURVE",
"108 613 OFFCURVE",
"136 654 OFFCURVE",
"171 654 CURVE",
"218 654 OFFCURVE",
"246 616 OFFCURVE",
"246 555 CURVE",
"246 493 OFFCURVE",
"213 458 OFFCURVE",
"172 458 CURVE"
);
}
);
width = 365;
},
{
layerId = "950578AD-3C55-42C9-B412-F732192F54B4";
paths = (
{
closed = 1;
nodes = (
"298 391 OFFCURVE",
"342 462 OFFCURVE",
"342 512 CURVE",
"327 474 LINE",
"327 401 LINE",
"420 401 LINE",
"420 715 LINE",
"327 715 LINE",
"327 648 LINE",
"342 592 LINE",
"342 679 OFFCURVE",
"302 721 OFFCURVE",
"240 721 CURVE",
"154 721 OFFCURVE",
"100 650 OFFCURVE",
"100 562 CURVE",
"100 469 OFFCURVE",
"142 391 OFFCURVE",
"228 391 CURVE"
);
},
{
closed = 1;
nodes = (
"213 458 OFFCURVE",
"193 505 OFFCURVE",
"193 562 CURVE",
"193 613 OFFCURVE",
"221 654 OFFCURVE",
"256 654 CURVE",
"303 654 OFFCURVE",
"331 616 OFFCURVE",
"331 555 CURVE",
"331 493 OFFCURVE",
"298 458 OFFCURVE",
"257 458 CURVE"
);
}
);
width = 520;
}
);
note = ordfeminine;
unicode = 00AA;
},
{
glyphname = ordmasculine;
lastChange = "2018-06-06 12:34:21 +0000";
layers = (
{
layerId = "3D0525B3-6B2A-4787-8D58-1F6DD6CCA7DC";
paths = (
{
closed = 1;
nodes = (
"334 640 OFFCURVE",
"266 710 OFFCURVE",
"176 710 CURVE",
"86 710 OFFCURVE",
"20 640 OFFCURVE",
"20 549 CURVE",
"20 459 OFFCURVE",
"86 392 OFFCURVE",
"176 392 CURVE",
"266 392 OFFCURVE",
"334 459 OFFCURVE",
"334 549 CURVE"
);
},
{
closed = 1;
nodes = (
"245 500 OFFCURVE",
"218 463 OFFCURVE",
"176 463 CURVE",
"134 463 OFFCURVE",
"108 500 OFFCURVE",
"108 549 CURVE",
"108 601 OFFCURVE",
"134 639 OFFCURVE",
"176 639 CURVE",
"218 639 OFFCURVE",
"245 601 OFFCURVE",
"245 549 CURVE"
);
}
);
width = 354;
},
{
layerId = "950578AD-3C55-42C9-B412-F732192F54B4";
paths = (
{
closed = 1;
nodes = (
"434 640 OFFCURVE",
"366 710 OFFCURVE",
"276 710 CURVE",
"186 710 OFFCURVE",
"120 640 OFFCURVE",
"120 549 CURVE",
"120 459 OFFCURVE",
"186 392 OFFCURVE",
"276 392 CURVE",
"366 392 OFFCURVE",
"434 459 OFFCURVE",
"434 549 CURVE"
);
},
{
closed = 1;
nodes = (
"345 500 OFFCURVE",
"318 463 OFFCURVE",
"276 463 CURVE",
"234 463 OFFCURVE",
"208 500 OFFCURVE",
"208 549 CURVE",
"208 601 OFFCURVE",
"234 639 OFFCURVE",
"276 639 CURVE",
"318 639 OFFCURVE",
"345 601 OFFCURVE",
"345 549 CURVE"
);
}
);
width = 554;
}
);
note = ordmasculine;
unicode = 00BA;
},
{
glyphname = pi;
lastChange = "2018-05-26 19:14:24 +0000";
layers = (
{
layerId = "3D0525B3-6B2A-4787-8D58-1F6DD6CCA7DC";
paths = (
{
closed = 1;
nodes = (
"205 0 LINE",
"205 438 LINE",
"192 425 LINE",
"419 425 LINE",
"409 460 LINE",
"409 0 LINE",
"500 0 LINE",
"500 438 LINE",
"491 425 LINE",
"574 425 LINE",
"574 526 LINE",
"40 526 LINE",
"40 425 LINE",
"131 425 LINE",
"114 476 LINE",
"114 0 LINE"
);
}
);
width = 614;
},
{
layerId = "950578AD-3C55-42C9-B412-F732192F54B4";
paths = (
{
closed = 1;
nodes = (
"355 0 LINE",
"355 438 LINE",
"342 425 LINE",
"649 425 LINE",
"639 460 LINE",
"639 0 LINE",
"730 0 LINE",
"730 438 LINE",
"721 425 LINE",
"874 425 LINE",
"874 526 LINE",
"120 526 LINE",
"120 425 LINE",
"281 425 LINE",
"264 476 LINE",
"264 0 LINE"
);
}
);
width = 994;
}
);
note = pi;
unicode = 03C0;
},
{
glyphname = zero;
lastChange = "2018-06-06 12:38:23 +0000";
layers = (
{
layerId = "3D0525B3-6B2A-4787-8D58-1F6DD6CCA7DC";
paths = (
{
closed = 1;
nodes = (
"472 -10 OFFCURVE",
"561 141 OFFCURVE",
"561 350 CURVE",
"561 559 OFFCURVE",
"472 710 OFFCURVE",
"303 710 CURVE",
"135 710 OFFCURVE",
"46 559 OFFCURVE",
"46 350 CURVE",
"46 141 OFFCURVE",
"135 -10 OFFCURVE",
"303 -10 CURVE"
);
},
{
closed = 1;
nodes = (
"207 88 OFFCURVE",
"150 182 OFFCURVE",
"150 350 CURVE",
"150 518 OFFCURVE",
"207 612 OFFCURVE",
"303 612 CURVE",
"399 612 OFFCURVE",
"456 518 OFFCURVE",
"456 350 CURVE",
"456 182 OFFCURVE",
"399 88 OFFCURVE",
"303 88 CURVE"
);
}
);
width = 607;
},
{
layerId = "950578AD-3C55-42C9-B412-F732192F54B4";
paths = (
{
closed = 1;
nodes = (
"618 -10 OFFCURVE",
"725 141 OFFCURVE",
"725 350 CURVE",
"725 559 OFFCURVE",
"618 710 OFFCURVE",
"417 710 CURVE",
"210 710 OFFCURVE",
"100 559 OFFCURVE",
"100 350 CURVE",
"100 141 OFFCURVE",
"210 -10 OFFCURVE",
"417 -10 CURVE"
);
},
{
closed = 1;
nodes = (
"296 103 OFFCURVE",
"224 192 OFFCURVE",
"224 350 CURVE",
"224 508 OFFCURVE",
"296 597 OFFCURVE",
"417 597 CURVE",
"532 597 OFFCURVE",
"600 508 OFFCURVE",
"600 350 CURVE",
"600 192 OFFCURVE",
"532 103 OFFCURVE",
"417 103 CURVE"
);
}
);
width = 825;
}
);
unicode = 0030;
},
{
glyphname = one;
lastChange = "2018-06-06 12:38:37 +0000";
layers = (
{
layerId = "3D0525B3-6B2A-4787-8D58-1F6DD6CCA7DC";
paths = (
{
closed = 1;
nodes = (
"326 49 LINE",
"326 710 LINE",
"274 710 LINE",
"87 610 LINE",
"116 516 LINE",
"254 589 LINE",
"217 617 LINE",
"217 49 LINE"
);
},
{
closed = 1;
nodes = (
"440 104 LINE",
"106 104 LINE",
"106 0 LINE",
"440 0 LINE"
);
}
);
width = 500;
},
{
layerId = "950578AD-3C55-42C9-B412-F732192F54B4";
paths = (
{
closed = 1;
nodes = (
"419 49 LINE",
"419 710 LINE",
"321 710 LINE",
"140 610 LINE",
"179 506 LINE",
"311 579 LINE",
"290 617 LINE",
"290 49 LINE"
);
},
{
closed = 1;
nodes = (
"543 110 LINE",
"159 110 LINE",
"159 0 LINE",
"543 0 LINE"
);
}
);
width = 663;
}
);
unicode = 0031;
},
{
glyphname = two;
lastChange = "2018-06-06 12:38:45 +0000";
layers = (
{
layerId = "3D0525B3-6B2A-4787-8D58-1F6DD6CCA7DC";
paths = (
{
closed = 1;
nodes = (
"172 104 LINE",
"192 74 LINE",
"351 247 LINE SMOOTH",
"431 335 OFFCURVE",
"494 425 OFFCURVE",
"494 517 CURVE SMOOTH",
"494 636 OFFCURVE",
"405 710 OFFCURVE",
"291 710 CURVE SMOOTH",
"184 710 OFFCURVE",
"87 649 OFFCURVE",
"51 525 CURVE",
"134 473 LINE",
"164 570 OFFCURVE",
"232 610 OFFCURVE",
"278 610 CURVE",
"341 610 OFFCURVE",
"383 575 OFFCURVE",
"383 509 CURVE",
"383 445 OFFCURVE",
"329 384 OFFCURVE",
"274 323 CURVE SMOOTH",
"60 82 LINE",
"93 0 LINE",
"516 0 LINE",
"516 104 LINE"
);
}
);
width = 548;
},
{
layerId = "950578AD-3C55-42C9-B412-F732192F54B4";
paths = (
{
closed = 1;
nodes = (
"231 114 LINE",
"261 60 LINE",
"420 218 LINE SMOOTH",
"509 307 OFFCURVE",
"643 398 OFFCURVE",
"643 522 CURVE SMOOTH",
"643 632 OFFCURVE",
"558 710 OFFCURVE",
"414 710 CURVE SMOOTH",
"273 710 OFFCURVE",
"171 638 OFFCURVE",
"110 538 CURVE",
"193 471 LINE",
"250 565 OFFCURVE",
"323 601 OFFCURVE",
"401 601 CURVE SMOOTH",
"474 601 OFFCURVE",
"512 566 OFFCURVE",
"512 509 CURVE SMOOTH",
"512 447 OFFCURVE",
"432 380 OFFCURVE",
"360 311 CURVE SMOOTH",
"119 82 LINE",
"152 0 LINE",
"665 0 LINE",
"665 114 LINE"
);
}
);
width = 775;
}
);
unicode = 0032;
},
{
glyphname = three;
lastChange = "2018-06-06 12:38:49 +0000";
layers = (
{
layerId = "3D0525B3-6B2A-4787-8D58-1F6DD6CCA7DC";
paths = (
{
closed = 1;
nodes = (
"20 138 LINE",
"70 55 OFFCURVE",
"132 -10 OFFCURVE",
"251 -10 CURVE",
"377 -10 OFFCURVE",
"494 82 OFFCURVE",
"494 227 CURVE",
"494 350 OFFCURVE",
"398 443 OFFCURVE",
"283 443 CURVE",
"267 443 OFFCURVE",
"236 437 OFFCURVE",
"226 432 CURVE",
"251 406 LINE",
"480 660 LINE",
"460 700 LINE",
"59 700 LINE",
"59 600 LINE",
"357 600 LINE",
"336 631 LINE",
"120 393 LINE",
"150 314 LINE",
"186 329 OFFCURVE",
"230 344 OFFCURVE",
"265 344 CURVE",
"320 344 OFFCURVE",
"386 311 OFFCURVE",
"386 221 CURVE",
"386 132 OFFCURVE",
"318 85 OFFCURVE",
"259 85 CURVE SMOOTH",
"182 85 OFFCURVE",
"134 146 OFFCURVE",
"104 191 CURVE"
);
}
);
width = 529;
},
{
layerId = "950578AD-3C55-42C9-B412-F732192F54B4";
paths = (
{
closed = 1;
nodes = (
"90 138 LINE",
"151 55 OFFCURVE",
"238 -10 OFFCURVE",
"371 -10 CURVE",
"535 -10 OFFCURVE",
"664 82 OFFCURVE",
"664 227 CURVE",
"664 344 OFFCURVE",
"556 431 OFFCURVE",
"437 431 CURVE",
"404 431 OFFCURVE",
"363 427 OFFCURVE",
"346 422 CURVE",
"371 366 LINE",
"650 630 LINE",
"630 700 LINE",
"129 700 LINE",
"129 586 LINE",
"527 586 LINE",
"506 641 LINE",
"240 393 LINE",
"270 299 LINE",
"308 312 OFFCURVE",
"361 327 OFFCURVE",
"404 327 CURVE SMOOTH",
"462 327 OFFCURVE",
"536 301 OFFCURVE",
"536 218 CURVE",
"536 129 OFFCURVE",
"447 99 OFFCURVE",
"369 99 CURVE SMOOTH",
"272 99 OFFCURVE",
"212 160 OFFCURVE",
"174 205 CURVE"
);
}
);
width = 764;
}
);
unicode = 0033;
},
{
glyphname = four;
lastChange = "2018-06-06 12:38:54 +0000";
layers = (
{
layerId = "3D0525B3-6B2A-4787-8D58-1F6DD6CCA7DC";
paths = (
{
closed = 1;
nodes = (
"456 0 LINE",
"456 700 LINE",
"373 700 LINE",
"30 280 LINE",
"76 190 LINE",
"578 190 LINE",
"578 289 LINE",
"143 289 LINE",
"147 277 LINE",
"377 558 LINE",
"352 564 LINE",
"352 0 LINE"
);
}
);
width = 620;
},
{
layerId = "950578AD-3C55-42C9-B412-F732192F54B4";
paths = (
{
closed = 1;
nodes = (
"556 0 LINE",
"556 700 LINE",
"453 700 LINE",
"70 280 LINE",
"116 190 LINE",
"718 190 LINE",
"718 299 LINE",
"183 299 LINE",
"207 277 LINE",
"477 582 LINE",
"432 588 LINE",
"432 0 LINE"
);
}
);
width = 778;
}
);
unicode = 0034;
},
{
glyphname = five;
lastChange = "2018-06-06 12:39:01 +0000";
layers = (
{
layerId = "3D0525B3-6B2A-4787-8D58-1F6DD6CCA7DC";
paths = (
{
closed = 1;
nodes = (
"398 -7 OFFCURVE",
"508 98 OFFCURVE",
"508 238 CURVE SMOOTH",
"508 379 OFFCURVE",
"405 468 OFFCURVE",
"284 468 CURVE",
"227 468 OFFCURVE",
"158 445 OFFCURVE",
"140 426 CURVE",
"165 397 LINE",
"198 619 LINE",
"177 600 LINE",
"487 600 LINE",
"487 700 LINE",
"109 700 LINE",
"68 403 LINE",
"125 326 LINE",
"151 339 OFFCURVE",
"197 368 OFFCURVE",
"265 368 CURVE",
"341 368 OFFCURVE",
"401 310 OFFCURVE",
"401 228 CURVE",
"401 153 OFFCURVE",
"341 92 OFFCURVE",
"257 92 CURVE",
"189 92 OFFCURVE",
"147 129 OFFCURVE",
"99 182 CURVE",
"39 115 LINE",
"83 45 OFFCURVE",
"155 -7 OFFCURVE",
"257 -7 CURVE"
);
}
);
width = 568;
},
{
layerId = "950578AD-3C55-42C9-B412-F732192F54B4";
paths = (
{
closed = 1;
nodes = (
"531 -7 OFFCURVE",
"659 98 OFFCURVE",
"659 238 CURVE SMOOTH",
"659 379 OFFCURVE",
"538 468 OFFCURVE",
"395 468 CURVE",
"322 468 OFFCURVE",
"234 445 OFFCURVE",
"211 426 CURVE",
"250 397 LINE",
"283 619 LINE",
"248 580 LINE",
"598 580 LINE",
"598 700 LINE",
"180 700 LINE",
"139 403 LINE",
"196 311 LINE",
"229 324 OFFCURVE",
"289 353 OFFCURVE",
"376 353 CURVE",
"463 353 OFFCURVE",
"532 310 OFFCURVE",
"532 228 CURVE",
"532 153 OFFCURVE",
"464 106 OFFCURVE",
"368 106 CURVE",
"283 106 OFFCURVE",
"230 147 OFFCURVE",
"170 206 CURVE",
"110 115 LINE",
"162 45 OFFCURVE",
"247 -7 OFFCURVE",
"368 -7 CURVE"
);
}
);
width = 759;
}
);
unicode = 0035;
},
{
glyphname = six;
lastChange = "2018-06-06 12:39:05 +0000";
layers = (
{
layerId = "3D0525B3-6B2A-4787-8D58-1F6DD6CCA7DC";
paths = (
{
closed = 1;
nodes = (
"430 0 OFFCURVE",
"522 118 OFFCURVE",
"522 260 CURVE SMOOTH",
"522 382 OFFCURVE",
"426 489 OFFCURVE",
"308 489 CURVE SMOOTH",
"211 489 OFFCURVE",
"148 428 OFFCURVE",
"108 363 CURVE",
"133 260 LINE",
"151 336 OFFCURVE",
"199 433 OFFCURVE",
"249 517 CURVE SMOOTH",
"359 702 LINE",
"355 712 LINE",
"250 712 LINE",
"159 558 LINE SMOOTH",
"102 462 OFFCURVE",
"40 336 OFFCURVE",
"40 247 CURVE SMOOTH",
"40 100 OFFCURVE",
"149 0 OFFCURVE",
"283 0 CURVE"
);
},
{
closed = 1;
nodes = (
"197 100 OFFCURVE",
"145 170 OFFCURVE",
"145 248 CURVE SMOOTH",
"145 321 OFFCURVE",
"198 389 OFFCURVE",
"285 389 CURVE SMOOTH",
"362 389 OFFCURVE",
"414 316 OFFCURVE",
"414 247 CURVE SMOOTH",
"414 154 OFFCURVE",
"353 100 OFFCURVE",
"283 100 CURVE"
);
}
);
width = 557;
},
{
layerId = "950578AD-3C55-42C9-B412-F732192F54B4";
paths = (
{
closed = 1;
nodes = (
"571 0 OFFCURVE",
"682 118 OFFCURVE",
"682 260 CURVE SMOOTH",
"682 392 OFFCURVE",
"568 489 OFFCURVE",
"428 489 CURVE SMOOTH",
"287 489 OFFCURVE",
"196 413 OFFCURVE",
"138 333 CURVE",
"223 260 LINE",
"237 336 OFFCURVE",
"302 440 OFFCURVE",
"377 517 CURVE SMOOTH",
"557 702 LINE",
"553 712 LINE",
"405 712 LINE",
"275 571 LINE SMOOTH",
"184 472 OFFCURVE",
"110 363 OFFCURVE",
"110 247 CURVE SMOOTH",
"110 100 OFFCURVE",
"237 0 OFFCURVE",
"393 0 CURVE"
);
},
{
closed = 1;
nodes = (
"294 114 OFFCURVE",
"235 177 OFFCURVE",
"235 248 CURVE SMOOTH",
"235 313 OFFCURVE",
"295 374 OFFCURVE",
"395 374 CURVE SMOOTH",
"490 374 OFFCURVE",
"554 309 OFFCURVE",
"554 247 CURVE SMOOTH",
"554 163 OFFCURVE",
"479 114 OFFCURVE",
"393 114 CURVE"
);
}
);
width = 792;
}
);
unicode = 0036;
},
{
glyphname = seven;
lastChange = "2018-06-06 12:39:13 +0000";
layers = (
{
layerId = "3D0525B3-6B2A-4787-8D58-1F6DD6CCA7DC";
paths = (
{
closed = 1;
nodes = (
"218 0 LINE",
"497 631 LINE",
"483 700 LINE",
"50 700 LINE",
"50 600 LINE",
"404 600 LINE",
"392 632 LINE",
"102 0 LINE"
);
}
);
width = 542;
},
{
layerId = "950578AD-3C55-42C9-B412-F732192F54B4";
paths = (
{
closed = 1;
nodes = (
"328 0 LINE",
"607 631 LINE",
"593 700 LINE",
"90 700 LINE",
"90 585 LINE",
"514 585 LINE",
"482 632 LINE",
"192 0 LINE"
);
}
);
width = 697;
}
);
unicode = 0037;
},
{
glyphname = eight;
lastChange = "2018-06-06 12:39:19 +0000";
layers = (
{
layerId = "3D0525B3-6B2A-4787-8D58-1F6DD6CCA7DC";
paths = (
{
closed = 1;
nodes = (
"445 384 OFFCURVE",
"508 425 OFFCURVE",
"508 509 CURVE SMOOTH",
"508 613 OFFCURVE",
"412 700 OFFCURVE",
"289 700 CURVE",
"166 700 OFFCURVE",
"70 613 OFFCURVE",
"70 509 CURVE SMOOTH",
"70 432 OFFCURVE",
"126 385 OFFCURVE",
"182 364 CURVE",
"188 385 LINE",
"123 356 OFFCURVE",
"53 301 OFFCURVE",
"53 200 CURVE SMOOTH",
"53 88 OFFCURVE",
"157 -3 OFFCURVE",
"289 -3 CURVE",
"422 -3 OFFCURVE",
"526 88 OFFCURVE",
"526 200 CURVE SMOOTH",
"526 278 OFFCURVE",
"471 349 OFFCURVE",
"392 381 CURVE",
"395 364 LINE"
);
},
{
closed = 1;
nodes = (
"177 558 OFFCURVE",
"224 600 OFFCURVE",
"289 600 CURVE",
"354 600 OFFCURVE",
"401 558 OFFCURVE",
"401 506 CURVE",
"401 452 OFFCURVE",
"351 414 OFFCURVE",
"289 414 CURVE SMOOTH",
"227 414 OFFCURVE",
"177 452 OFFCURVE",
"177 506 CURVE"
);
},
{
closed = 1;
nodes = (
"215 97 OFFCURVE",
"160 144 OFFCURVE",
"160 204 CURVE",
"160 272 OFFCURVE",
"218 318 OFFCURVE",
"289 318 CURVE SMOOTH",
"361 318 OFFCURVE",
"419 272 OFFCURVE",
"419 204 CURVE",
"419 144 OFFCURVE",
"364 97 OFFCURVE",
"289 97 CURVE"
);
}
);
width = 579;
},
{
layerId = "950578AD-3C55-42C9-B412-F732192F54B4";
paths = (
{
closed = 1;
nodes = (
"605 366 OFFCURVE",
"660 411 OFFCURVE",
"660 504 CURVE SMOOTH",
"660 611 OFFCURVE",
"549 700 OFFCURVE",
"406 700 CURVE",
"263 700 OFFCURVE",
"151 611 OFFCURVE",
"151 504 CURVE SMOOTH",
"151 419 OFFCURVE",
"200 367 OFFCURVE",
"249 344 CURVE",
"255 395 LINE",
"190 366 OFFCURVE",
"120 312 OFFCURVE",
"120 213 CURVE SMOOTH",
"120 94 OFFCURVE",
"237 -3 OFFCURVE",
"406 -3 CURVE",
"576 -3 OFFCURVE",
"693 94 OFFCURVE",
"693 213 CURVE SMOOTH",
"693 290 OFFCURVE",
"638 360 OFFCURVE",
"559 391 CURVE",
"562 344 LINE"
);
},
{
closed = 1;
nodes = (
"278 548 OFFCURVE",
"332 585 OFFCURVE",
"406 585 CURVE",
"479 585 OFFCURVE",
"533 548 OFFCURVE",
"533 502 CURVE",
"533 453 OFFCURVE",
"477 419 OFFCURVE",
"406 419 CURVE SMOOTH",
"335 419 OFFCURVE",
"278 453 OFFCURVE",
"278 502 CURVE"
);
},
{
closed = 1;
nodes = (
"315 112 OFFCURVE",
"247 157 OFFCURVE",
"247 216 CURVE",
"247 274 OFFCURVE",
"318 313 OFFCURVE",
"406 313 CURVE SMOOTH",
"495 313 OFFCURVE",
"566 274 OFFCURVE",
"566 216 CURVE",
"566 157 OFFCURVE",
"498 112 OFFCURVE",
"406 112 CURVE"
);
}
);
width = 813;
}
);
unicode = 0038;
},
{
glyphname = nine;
lastChange = "2018-06-06 12:39:25 +0000";
layers = (
{
layerId = "3D0525B3-6B2A-4787-8D58-1F6DD6CCA7DC";
paths = (
{
closed = 1;
nodes = (
"138 712 OFFCURVE",
"30 608 OFFCURVE",
"30 462 CURVE SMOOTH",
"30 344 OFFCURVE",
"126 243 OFFCURVE",
"241 243 CURVE",
"324 243 OFFCURVE",
"393 299 OFFCURVE",
"435 369 CURVE",
"432 452 LINE",
"224 10 LINE",
"228 0 LINE",
"334 0 LINE",
"417 174 LINE SMOOTH",
"469 284 OFFCURVE",
"516 392 OFFCURVE",
"516 478 CURVE SMOOTH",
"516 610 OFFCURVE",
"405 712 OFFCURVE",
"274 712 CURVE"
);
},
{
closed = 1;
nodes = (
"350 612 OFFCURVE",
"400 547 OFFCURVE",
"400 474 CURVE SMOOTH",
"400 406 OFFCURVE",
"349 343 OFFCURVE",
"264 343 CURVE SMOOTH",
"191 343 OFFCURVE",
"141 411 OFFCURVE",
"141 475 CURVE SMOOTH",
"141 562 OFFCURVE",
"199 612 OFFCURVE",
"266 612 CURVE"
);
}
);
width = 551;
},
{
layerId = "950578AD-3C55-42C9-B412-F732192F54B4";
paths = (
{
closed = 1;
nodes = (
"236 712 OFFCURVE",
"110 608 OFFCURVE",
"110 462 CURVE SMOOTH",
"110 344 OFFCURVE",
"210 243 OFFCURVE",
"344 243 CURVE",
"448 243 OFFCURVE",
"518 303 OFFCURVE",
"585 379 CURVE",
"572 452 LINE",
"290 10 LINE",
"294 0 LINE",
"429 0 LINE",
"532 174 LINE SMOOTH",
"593 276 OFFCURVE",
"666 392 OFFCURVE",
"666 478 CURVE SMOOTH",
"666 610 OFFCURVE",
"542 712 OFFCURVE",
"394 712 CURVE"
);
},
{
closed = 1;
nodes = (
"482 597 OFFCURVE",
"540 539 OFFCURVE",
"540 474 CURVE SMOOTH",
"540 414 OFFCURVE",
"481 358 OFFCURVE",
"384 358 CURVE SMOOTH",
"299 358 OFFCURVE",
"241 418 OFFCURVE",
"241 475 CURVE SMOOTH",
"241 552 OFFCURVE",
"308 597 OFFCURVE",
"386 597 CURVE"
);
}
);
width = 776;
}
);
unicode = 0039;
},
{
glyphname = zero.dnom;
lastChange = "2018-06-05 17:06:34 +0000";
layers = (
{
layerId = "3D0525B3-6B2A-4787-8D58-1F6DD6CCA7DC";
paths = (
{
closed = 1;
nodes = (
"271 -10 OFFCURVE",
"334 71 OFFCURVE",
"334 174 CURVE",
"334 278 OFFCURVE",
"276 359 OFFCURVE",
"183 359 CURVE",
"89 359 OFFCURVE",
"30 278 OFFCURVE",
"30 174 CURVE",
"30 71 OFFCURVE",
"93 -10 OFFCURVE",
"183 -10 CURVE"
);
},
{
closed = 1;
nodes = (
"137 64 OFFCURVE",
"112 110 OFFCURVE",
"112 174 CURVE",
"112 237 OFFCURVE",
"138 285 OFFCURVE",
"183 285 CURVE",
"228 285 OFFCURVE",
"252 237 OFFCURVE",
"252 174 CURVE",
"252 110 OFFCURVE",
"227 64 OFFCURVE",
"183 64 CURVE"
);
}
);
width = 364;
},
{
layerId = "950578AD-3C55-42C9-B412-F732192F54B4";
paths = (
{
closed = 1;
nodes = (
"271 -10 OFFCURVE",
"334 71 OFFCURVE",
"334 174 CURVE",
"334 278 OFFCURVE",
"276 359 OFFCURVE",
"183 359 CURVE",
"89 359 OFFCURVE",
"30 278 OFFCURVE",
"30 174 CURVE",
"30 71 OFFCURVE",
"93 -10 OFFCURVE",
"183 -10 CURVE"
);
},
{
closed = 1;
nodes = (
"137 64 OFFCURVE",
"112 110 OFFCURVE",
"112 174 CURVE",
"112 237 OFFCURVE",
"138 285 OFFCURVE",
"183 285 CURVE",
"228 285 OFFCURVE",
"252 237 OFFCURVE",
"252 174 CURVE",
"252 110 OFFCURVE",
"227 64 OFFCURVE",
"183 64 CURVE"
);
}
);
width = 364;
}
);
},
{
glyphname = one.dnom;
lastChange = "2018-06-05 17:06:42 +0000";
layers = (
{
layerId = "3D0525B3-6B2A-4787-8D58-1F6DD6CCA7DC";
paths = (
{
closed = 1;
nodes = (
"201 -2 OFFCURVE",
"201 -2 CURVE",
"201 346 LINE",
"145 346 LINE",
"47 288 LINE",
"82 222 LINE",
"132 254 LINE",
"126 272 LINE",
"126 -2 LINE",
"126 -2 OFFCURVE"
);
}
);
width = 281;
},
{
layerId = "950578AD-3C55-42C9-B412-F732192F54B4";
paths = (
{
closed = 1;
nodes = (
"201 -2 OFFCURVE",
"201 -2 CURVE",
"201 346 LINE",
"145 346 LINE",
"47 288 LINE",
"82 222 LINE",
"132 254 LINE",
"126 272 LINE",
"126 -2 LINE",
"126 -2 OFFCURVE"
);
}
);
width = 281;
}
);
},
{
glyphname = two.dnom;
lastChange = "2018-06-05 17:06:54 +0000";
layers = (
{
layerId = "3D0525B3-6B2A-4787-8D58-1F6DD6CCA7DC";
paths = (
{
closed = 1;
nodes = (
"296 0 LINE",
"296 67 LINE",
"142 67 LINE",
"138 58 LINE",
"205 123 LINE SMOOTH",
"239 156 OFFCURVE",
"293 202 OFFCURVE",
"293 251 CURVE",
"293 304 OFFCURVE",
"258 361 OFFCURVE",
"176 361 CURVE",
"114 361 OFFCURVE",
"66 315 OFFCURVE",
"42 275 CURVE",
"94 238 LINE",
"124 271 OFFCURVE",
"148 289 OFFCURVE",
"169 289 CURVE",
"193 289 OFFCURVE",
"209 274 OFFCURVE",
"209 249 CURVE",
"209 216 OFFCURVE",
"166 182 OFFCURVE",
"133 148 CURVE SMOOTH",
"56 71 LINE",
"65 0 LINE"
);
}
);
width = 346;
},
{
layerId = "950578AD-3C55-42C9-B412-F732192F54B4";
paths = (
{
closed = 1;
nodes = (
"296 0 LINE",
"296 67 LINE",
"142 67 LINE",
"138 58 LINE",
"205 123 LINE SMOOTH",
"239 156 OFFCURVE",
"293 202 OFFCURVE",
"293 251 CURVE",
"293 304 OFFCURVE",
"258 361 OFFCURVE",
"176 361 CURVE",
"114 361 OFFCURVE",
"66 315 OFFCURVE",
"42 275 CURVE",
"94 238 LINE",
"124 271 OFFCURVE",
"148 289 OFFCURVE",
"169 289 CURVE",
"193 289 OFFCURVE",
"209 274 OFFCURVE",
"209 249 CURVE",
"209 216 OFFCURVE",
"166 182 OFFCURVE",
"133 148 CURVE SMOOTH",
"56 71 LINE",
"65 0 LINE"
);
}
);
width = 346;
}
);
},
{
glyphname = three.dnom;
lastChange = "2018-06-05 17:07:03 +0000";
layers = (
{
layerId = "3D0525B3-6B2A-4787-8D58-1F6DD6CCA7DC";
paths = (
{
closed = 1;
nodes = (
"231 -10 OFFCURVE",
"297 33 OFFCURVE",
"297 111 CURVE",
"297 171 OFFCURVE",
"259 216 OFFCURVE",
"186 216 CURVE",
"177 216 OFFCURVE",
"164 211 OFFCURVE",
"160 209 CURVE",
"173 202 LINE",
"272 284 LINE",
"265 350 LINE",
"79 350 LINE",
"79 282 LINE",
"209 282 LINE",
"190 288 LINE",
"88 200 LINE",
"109 143 LINE",
"126 148 OFFCURVE",
"145 155 OFFCURVE",
"165 155 CURVE",
"198 155 OFFCURVE",
"222 138 OFFCURVE",
"222 110 CURVE",
"222 73 OFFCURVE",
"191 56 OFFCURVE",
"159 56 CURVE",
"140 56 OFFCURVE",
"119 61 OFFCURVE",
"90 79 CURVE",
"57 24 LINE",
"84 4 OFFCURVE",
"126 -10 OFFCURVE",
"165 -10 CURVE"
);
}
);
width = 342;
},
{
layerId = "950578AD-3C55-42C9-B412-F732192F54B4";
paths = (
{
closed = 1;
nodes = (
"231 -10 OFFCURVE",
"297 33 OFFCURVE",
"297 111 CURVE",
"297 171 OFFCURVE",
"259 216 OFFCURVE",
"186 216 CURVE",
"177 216 OFFCURVE",
"164 211 OFFCURVE",
"160 209 CURVE",
"173 202 LINE",
"272 284 LINE",
"265 350 LINE",
"79 350 LINE",
"79 282 LINE",
"209 282 LINE",
"190 288 LINE",
"88 200 LINE",
"109 143 LINE",
"126 148 OFFCURVE",
"145 155 OFFCURVE",
"165 155 CURVE",
"198 155 OFFCURVE",
"222 138 OFFCURVE",
"222 110 CURVE",
"222 73 OFFCURVE",
"191 56 OFFCURVE",
"159 56 CURVE",
"140 56 OFFCURVE",
"119 61 OFFCURVE",
"90 79 CURVE",
"57 24 LINE",
"84 4 OFFCURVE",
"126 -10 OFFCURVE",
"165 -10 CURVE"
);
}
);
width = 342;
}
);
},
{
glyphname = four.dnom;
lastChange = "2018-06-05 17:07:10 +0000";
layers = (
{
layerId = "3D0525B3-6B2A-4787-8D58-1F6DD6CCA7DC";
paths = (
{
closed = 1;
nodes = (
"279 -2 LINE",
"279 356 LINE",
"213 356 LINE",
"45 150 LINE",
"62 81 LINE",
"340 81 LINE",
"340 149 LINE",
"113 149 LINE",
"110 130 LINE",
"236 276 LINE",
"204 290 LINE",
"204 -2 LINE"
);
}
);
width = 390;
},
{
layerId = "950578AD-3C55-42C9-B412-F732192F54B4";
paths = (
{
closed = 1;
nodes = (
"279 -2 LINE",
"279 356 LINE",
"213 356 LINE",
"45 150 LINE",
"62 81 LINE",
"340 81 LINE",
"340 149 LINE",
"113 149 LINE",
"110 130 LINE",
"236 276 LINE",
"204 290 LINE",
"204 -2 LINE"
);
}
);
width = 390;
}
);
},
{
glyphname = five.dnom;
lastChange = "2018-06-05 17:07:16 +0000";
layers = (
{
layerId = "3D0525B3-6B2A-4787-8D58-1F6DD6CCA7DC";
paths = (
{
closed = 1;
nodes = (
"240 -9 OFFCURVE",
"306 39 OFFCURVE",
"306 121 CURVE",
"306 188 OFFCURVE",
"256 235 OFFCURVE",
"199 235 CURVE",
"155 235 OFFCURVE",
"126 219 OFFCURVE",
"106 189 CURVE",
"137 172 LINE",
"152 297 LINE",
"125 276 LINE",
"289 276 LINE",
"289 345 LINE",
"86 345 LINE",
"63 182 LINE",
"98 142 LINE",
"115 153 OFFCURVE",
"132 166 OFFCURVE",
"168 166 CURVE",
"205 166 OFFCURVE",
"226 141 OFFCURVE",
"226 114 CURVE",
"226 80 OFFCURVE",
"199 59 OFFCURVE",
"159 59 CURVE",
"128 59 OFFCURVE",
"104 71 OFFCURVE",
"87 86 CURVE",
"50 28 LINE",
"74 9 OFFCURVE",
"119 -9 OFFCURVE",
"155 -9 CURVE"
);
}
);
width = 358;
},
{
layerId = "950578AD-3C55-42C9-B412-F732192F54B4";
paths = (
{
closed = 1;
nodes = (
"240 -9 OFFCURVE",
"306 39 OFFCURVE",
"306 121 CURVE",
"306 188 OFFCURVE",
"256 235 OFFCURVE",
"199 235 CURVE",
"155 235 OFFCURVE",
"126 219 OFFCURVE",
"106 189 CURVE",
"137 172 LINE",
"152 297 LINE",
"125 276 LINE",
"289 276 LINE",
"289 345 LINE",
"86 345 LINE",
"63 182 LINE",
"98 142 LINE",
"115 153 OFFCURVE",
"132 166 OFFCURVE",
"168 166 CURVE",
"205 166 OFFCURVE",
"226 141 OFFCURVE",
"226 114 CURVE",
"226 80 OFFCURVE",
"199 59 OFFCURVE",
"159 59 CURVE",
"128 59 OFFCURVE",
"104 71 OFFCURVE",
"87 86 CURVE",
"50 28 LINE",
"74 9 OFFCURVE",
"119 -9 OFFCURVE",
"155 -9 CURVE"
);
}
);
width = 356;
}
);
},
{
glyphname = six.dnom;
lastChange = "2018-06-05 17:07:27 +0000";
layers = (
{
layerId = "3D0525B3-6B2A-4787-8D58-1F6DD6CCA7DC";
paths = (
{
closed = 1;
nodes = (
"243 -11 OFFCURVE",
"303 42 OFFCURVE",
"303 118 CURVE",
"303 175 OFFCURVE",
"260 223 OFFCURVE",
"191 223 CURVE",
"140 223 OFFCURVE",
"96 184 OFFCURVE",
"74 117 CURVE",
"126 178 LINE",
"130 250 OFFCURVE",
"164 285 OFFCURVE",
"202 285 CURVE",
"227 285 OFFCURVE",
"241 279 OFFCURVE",
"256 269 CURVE",
"284 326 LINE",
"267 344 OFFCURVE",
"229 358 OFFCURVE",
"199 358 CURVE",
"110 358 OFFCURVE",
"40 263 OFFCURVE",
"40 139 CURVE",
"40 62 OFFCURVE",
"89 -11 OFFCURVE",
"172 -11 CURVE"
);
},
{
closed = 1;
nodes = (
"140 52 OFFCURVE",
"119 77 OFFCURVE",
"119 108 CURVE",
"119 136 OFFCURVE",
"141 161 OFFCURVE",
"173 161 CURVE",
"202 161 OFFCURVE",
"224 136 OFFCURVE",
"224 107 CURVE",
"224 76 OFFCURVE",
"199 52 OFFCURVE",
"172 52 CURVE"
);
}
);
width = 343;
},
{
layerId = "950578AD-3C55-42C9-B412-F732192F54B4";
paths = (
{
closed = 1;
nodes = (
"233 -11 OFFCURVE",
"293 42 OFFCURVE",
"293 118 CURVE",
"293 175 OFFCURVE",
"250 223 OFFCURVE",
"181 223 CURVE",
"130 223 OFFCURVE",
"86 184 OFFCURVE",
"64 117 CURVE",
"116 178 LINE",
"120 250 OFFCURVE",
"154 285 OFFCURVE",
"192 285 CURVE",
"217 285 OFFCURVE",
"231 279 OFFCURVE",
"246 269 CURVE",
"274 326 LINE",
"257 344 OFFCURVE",
"219 358 OFFCURVE",
"189 358 CURVE",
"100 358 OFFCURVE",
"30 263 OFFCURVE",
"30 139 CURVE",
"30 62 OFFCURVE",
"79 -11 OFFCURVE",
"162 -11 CURVE"
);
},
{
closed = 1;
nodes = (
"130 52 OFFCURVE",
"109 77 OFFCURVE",
"109 108 CURVE",
"109 136 OFFCURVE",
"131 161 OFFCURVE",
"163 161 CURVE",
"192 161 OFFCURVE",
"214 136 OFFCURVE",
"214 107 CURVE",
"214 76 OFFCURVE",
"189 52 OFFCURVE",
"162 52 CURVE"
);
}
);
width = 333;
}
);
},
{
glyphname = seven.dnom;
lastChange = "2018-06-05 17:07:36 +0000";
layers = (
{
layerId = "3D0525B3-6B2A-4787-8D58-1F6DD6CCA7DC";
paths = (
{
closed = 1;
nodes = (
"159 0 LINE",
"296 294 LINE",
"269 344 LINE",
"53 344 LINE",
"53 276 LINE",
"232 276 LINE",
"220 307 LINE",
"84 9 LINE",
"84 0 LINE"
);
}
);
width = 326;
},
{
layerId = "950578AD-3C55-42C9-B412-F732192F54B4";
paths = (
{
closed = 1;
nodes = (
"159 0 LINE",
"296 294 LINE",
"269 344 LINE",
"53 344 LINE",
"53 276 LINE",
"232 276 LINE",
"220 307 LINE",
"84 9 LINE",
"84 0 LINE"
);
}
);
width = 326;
}
);
},
{
glyphname = eight.dnom;
lastChange = "2018-06-05 17:07:45 +0000";
layers = (
{
layerId = "3D0525B3-6B2A-4787-8D58-1F6DD6CCA7DC";
paths = (
{
closed = 1;
nodes = (
"249 -11 OFFCURVE",
"309 38 OFFCURVE",
"309 97 CURVE",
"309 135 OFFCURVE",
"279 170 OFFCURVE",
"236 188 CURVE",
"237 177 LINE",
"264 188 OFFCURVE",
"300 212 OFFCURVE",
"300 255 CURVE",
"300 313 OFFCURVE",
"245 358 OFFCURVE",
"177 358 CURVE",
"108 358 OFFCURVE",
"54 313 OFFCURVE",
"54 255 CURVE",
"54 214 OFFCURVE",
"85 188 OFFCURVE",
"117 177 CURVE",
"120 188 LINE",
"86 173 OFFCURVE",
"44 145 OFFCURVE",
"44 97 CURVE",
"44 38 OFFCURVE",
"104 -11 OFFCURVE",
"177 -11 CURVE"
);
},
{
closed = 1;
nodes = (
"150 213 OFFCURVE",
"129 230 OFFCURVE",
"129 253 CURVE",
"129 277 OFFCURVE",
"149 294 OFFCURVE",
"177 294 CURVE",
"203 294 OFFCURVE",
"225 277 OFFCURVE",
"225 253 CURVE",
"225 230 OFFCURVE",
"202 213 OFFCURVE",
"177 213 CURVE"
);
},
{
closed = 1;
nodes = (
"146 52 OFFCURVE",
"121 75 OFFCURVE",
"121 104 CURVE",
"121 132 OFFCURVE",
"147 151 OFFCURVE",
"177 151 CURVE",
"206 151 OFFCURVE",
"233 132 OFFCURVE",
"233 104 CURVE",
"233 75 OFFCURVE",
"208 52 OFFCURVE",
"177 52 CURVE"
);
}
);
width = 353;
},
{
layerId = "950578AD-3C55-42C9-B412-F732192F54B4";
paths = (
{
closed = 1;
nodes = (
"249 -11 OFFCURVE",
"309 38 OFFCURVE",
"309 97 CURVE",
"309 135 OFFCURVE",
"279 170 OFFCURVE",
"236 188 CURVE",
"237 177 LINE",
"264 188 OFFCURVE",
"300 212 OFFCURVE",
"300 255 CURVE",
"300 313 OFFCURVE",
"245 358 OFFCURVE",
"177 358 CURVE",
"108 358 OFFCURVE",
"54 313 OFFCURVE",
"54 255 CURVE",
"54 214 OFFCURVE",
"85 188 OFFCURVE",
"117 177 CURVE",
"120 188 LINE",
"86 173 OFFCURVE",
"44 145 OFFCURVE",
"44 97 CURVE",
"44 38 OFFCURVE",
"104 -11 OFFCURVE",
"177 -11 CURVE"
);
},
{
closed = 1;
nodes = (
"150 213 OFFCURVE",
"129 230 OFFCURVE",
"129 253 CURVE",
"129 277 OFFCURVE",
"149 294 OFFCURVE",
"177 294 CURVE",
"203 294 OFFCURVE",
"225 277 OFFCURVE",
"225 253 CURVE",
"225 230 OFFCURVE",
"202 213 OFFCURVE",
"177 213 CURVE"
);
},
{
closed = 1;
nodes = (
"146 52 OFFCURVE",
"121 75 OFFCURVE",
"121 104 CURVE",
"121 132 OFFCURVE",
"147 151 OFFCURVE",
"177 151 CURVE",
"206 151 OFFCURVE",
"233 132 OFFCURVE",
"233 104 CURVE",
"233 75 OFFCURVE",
"208 52 OFFCURVE",
"177 52 CURVE"
);
}
);
width = 353;
}
);
},
{
glyphname = nine.dnom;
lastChange = "2018-06-05 17:07:57 +0000";
layers = (
{
layerId = "3D0525B3-6B2A-4787-8D58-1F6DD6CCA7DC";
paths = (
{
closed = 1;
nodes = (
"242 -12 OFFCURVE",
"298 84 OFFCURVE",
"298 207 CURVE",
"298 284 OFFCURVE",
"249 358 OFFCURVE",
"165 358 CURVE",
"94 358 OFFCURVE",
"35 304 OFFCURVE",
"35 228 CURVE",
"35 171 OFFCURVE",
"78 123 OFFCURVE",
"146 123 CURVE",
"197 123 OFFCURVE",
"242 162 OFFCURVE",
"263 229 CURVE",
"212 168 LINE",
"209 97 OFFCURVE",
"191 62 OFFCURVE",
"145 62 CURVE SMOOTH",
"128 62 OFFCURVE",
"108 72 OFFCURVE",
"94 82 CURVE",
"61 28 LINE",
"74 11 OFFCURVE",
"116 -12 OFFCURVE",
"150 -12 CURVE"
);
},
{
closed = 1;
nodes = (
"135 185 OFFCURVE",
"114 210 OFFCURVE",
"114 239 CURVE",
"114 271 OFFCURVE",
"138 294 OFFCURVE",
"166 294 CURVE",
"197 294 OFFCURVE",
"219 270 OFFCURVE",
"219 238 CURVE",
"219 210 OFFCURVE",
"197 185 OFFCURVE",
"164 185 CURVE"
);
}
);
width = 333;
},
{
layerId = "950578AD-3C55-42C9-B412-F732192F54B4";
paths = (
{
closed = 1;
nodes = (
"242 -12 OFFCURVE",
"298 84 OFFCURVE",
"298 207 CURVE",
"298 284 OFFCURVE",
"249 358 OFFCURVE",
"165 358 CURVE",
"94 358 OFFCURVE",
"35 304 OFFCURVE",
"35 228 CURVE",
"35 171 OFFCURVE",
"78 123 OFFCURVE",
"146 123 CURVE",
"197 123 OFFCURVE",
"242 162 OFFCURVE",
"263 229 CURVE",
"212 168 LINE",
"209 97 OFFCURVE",
"191 62 OFFCURVE",
"145 62 CURVE SMOOTH",
"128 62 OFFCURVE",
"108 72 OFFCURVE",
"94 82 CURVE",
"61 28 LINE",
"74 11 OFFCURVE",
"116 -12 OFFCURVE",
"150 -12 CURVE"
);
},
{
closed = 1;
nodes = (
"135 185 OFFCURVE",
"114 210 OFFCURVE",
"114 239 CURVE",
"114 271 OFFCURVE",
"138 294 OFFCURVE",
"166 294 CURVE",
"197 294 OFFCURVE",
"219 270 OFFCURVE",
"219 238 CURVE",
"219 210 OFFCURVE",
"197 185 OFFCURVE",
"164 185 CURVE"
);
}
);
width = 333;
}
);
},
{
glyphname = fraction;
lastChange = "2018-06-06 12:48:37 +0000";
layers = (
{
layerId = "3D0525B3-6B2A-4787-8D58-1F6DD6CCA7DC";
paths = (
{
closed = 1;
nodes = (
"118 0 LINE",
"323 307 LINE",
"586 700 LINE",
"483 700 LINE",
"241 335 LINE",
"20 0 LINE"
);
}
);
width = 606;
},
{
layerId = "950578AD-3C55-42C9-B412-F732192F54B4";
paths = (
{
closed = 1;
nodes = (
"271 0 LINE",
"471 296 LINE",
"760 700 LINE",
"632 700 LINE",
"386 337 LINE",
"150 0 LINE"
);
}
);
width = 900;
}
);
note = fraction;
unicode = 2044;
},
{
glyphname = period;
lastChange = "2018-07-17 14:03:50 +0000";
layers = (
{
layerId = "3D0525B3-6B2A-4787-8D58-1F6DD6CCA7DC";
paths = (
{
closed = 1;
nodes = (
"161 -11 OFFCURVE",
"183 26 OFFCURVE",
"183 64 CURVE SMOOTH",
"183 109 OFFCURVE",
"161 139 OFFCURVE",
"114 139 CURVE SMOOTH",
"67 139 OFFCURVE",
"45 102 OFFCURVE",
"45 64 CURVE SMOOTH",
"45 19 OFFCURVE",
"67 -11 OFFCURVE",
"114 -11 CURVE SMOOTH"
);
}
);
width = 228;
},
{
layerId = "950578AD-3C55-42C9-B412-F732192F54B4";
paths = (
{
closed = 1;
nodes = (
"345 -11 OFFCURVE",
"378 26 OFFCURVE",
"378 64 CURVE SMOOTH",
"378 109 OFFCURVE",
"345 139 OFFCURVE",
"274 139 CURVE SMOOTH",
"203 139 OFFCURVE",
"170 102 OFFCURVE",
"170 64 CURVE SMOOTH",
"170 19 OFFCURVE",
"203 -11 OFFCURVE",
"274 -11 CURVE SMOOTH"
);
}
);
width = 548;
}
);
leftKerningGroup = period;
note = period;
unicode = 002E;
},
{
glyphname = comma;
lastChange = "2018-07-17 14:02:48 +0000";
layers = (
{
layerId = "3D0525B3-6B2A-4787-8D58-1F6DD6CCA7DC";
paths = (
{
closed = 1;
nodes = (
"221 77 OFFCURVE",
"177 117 OFFCURVE",
"132 117 CURVE",
"98 117 OFFCURVE",
"71 97 OFFCURVE",
"71 64 CURVE",
"71 11 OFFCURVE",
"129 -1 OFFCURVE",
"129 -42 CURVE SMOOTH",
"129 -68 OFFCURVE",
"96 -106 OFFCURVE",
"50 -133 CURVE",
"88 -179 LINE",
"156 -153 OFFCURVE",
"221 -81 OFFCURVE",
"221 4 CURVE SMOOTH"
);
}
);
width = 281;
},
{
layerId = "950578AD-3C55-42C9-B412-F732192F54B4";
paths = (
{
closed = 1;
nodes = (
"356 84 OFFCURVE",
"289 147 OFFCURVE",
"221 147 CURVE",
"171 147 OFFCURVE",
"131 124 OFFCURVE",
"131 75 CURVE",
"131 8 OFFCURVE",
"234 9 OFFCURVE",
"234 -45 CURVE SMOOTH",
"234 -74 OFFCURVE",
"189 -110 OFFCURVE",
"125 -148 CURVE",
"173 -203 LINE",
"262 -164 OFFCURVE",
"356 -75 OFFCURVE",
"356 5 CURVE SMOOTH"
);
}
);
width = 506;
}
);
leftKerningGroup = comma;
note = comma;
unicode = 002C;
},
{
glyphname = colon;
lastChange = "2018-06-06 13:59:16 +0000";
layers = (
{
layerId = "3D0525B3-6B2A-4787-8D58-1F6DD6CCA7DC";
paths = (
{
closed = 1;
nodes = (
"181 385 OFFCURVE",
"203 422 OFFCURVE",
"203 460 CURVE SMOOTH",
"203 505 OFFCURVE",
"181 535 OFFCURVE",
"134 535 CURVE SMOOTH",
"87 535 OFFCURVE",
"65 498 OFFCURVE",
"65 460 CURVE SMOOTH",
"65 415 OFFCURVE",
"87 385 OFFCURVE",
"134 385 CURVE SMOOTH"
);
},
{
closed = 1;
nodes = (
"181 -11 OFFCURVE",
"203 26 OFFCURVE",
"203 64 CURVE SMOOTH",
"203 109 OFFCURVE",
"181 139 OFFCURVE",
"134 139 CURVE SMOOTH",
"87 139 OFFCURVE",
"65 102 OFFCURVE",
"65 64 CURVE SMOOTH",
"65 19 OFFCURVE",
"87 -11 OFFCURVE",
"134 -11 CURVE SMOOTH"
);
}
);
width = 268;
},
{
layerId = "950578AD-3C55-42C9-B412-F732192F54B4";
paths = (
{
closed = 1;
nodes = (
"345 386 OFFCURVE",
"378 423 OFFCURVE",
"378 461 CURVE SMOOTH",
"378 506 OFFCURVE",
"345 536 OFFCURVE",
"274 536 CURVE SMOOTH",
"203 536 OFFCURVE",
"170 499 OFFCURVE",
"170 461 CURVE SMOOTH",
"170 416 OFFCURVE",
"203 386 OFFCURVE",
"274 386 CURVE SMOOTH"
);
},
{
closed = 1;
nodes = (
"345 -11 OFFCURVE",
"378 26 OFFCURVE",
"378 64 CURVE SMOOTH",
"378 109 OFFCURVE",
"345 139 OFFCURVE",
"274 139 CURVE SMOOTH",
"203 139 OFFCURVE",
"170 102 OFFCURVE",
"170 64 CURVE SMOOTH",
"170 19 OFFCURVE",
"203 -11 OFFCURVE",
"274 -11 CURVE SMOOTH"
);
}
);
width = 548;
}
);
note = colon;
unicode = 003A;
},
{
glyphname = semicolon;
lastChange = "2018-05-21 15:37:31 +0000";
layers = (
{
components = (
{
name = comma;
transform = "{1, 0, 0, 1, -7, 0}";
}
);
layerId = "3D0525B3-6B2A-4787-8D58-1F6DD6CCA7DC";
paths = (
{
closed = 1;
nodes = (
"177 385 OFFCURVE",
"199 422 OFFCURVE",
"199 460 CURVE SMOOTH",
"199 505 OFFCURVE",
"177 535 OFFCURVE",
"130 535 CURVE SMOOTH",
"83 535 OFFCURVE",
"61 498 OFFCURVE",
"61 460 CURVE SMOOTH",
"61 415 OFFCURVE",
"83 385 OFFCURVE",
"130 385 CURVE SMOOTH"
);
}
);
width = 257;
},
{
components = (
{
name = comma;
transform = "{1, 0, 0, 1, -7, 0}";
}
);
layerId = "950578AD-3C55-42C9-B412-F732192F54B4";
paths = (
{
closed = 1;
nodes = (
"340 385 OFFCURVE",
"373 422 OFFCURVE",
"373 460 CURVE SMOOTH",
"373 505 OFFCURVE",
"340 535 OFFCURVE",
"269 535 CURVE SMOOTH",
"198 535 OFFCURVE",
"165 498 OFFCURVE",
"165 460 CURVE SMOOTH",
"165 415 OFFCURVE",
"198 385 OFFCURVE",
"269 385 CURVE SMOOTH"
);
}
);
width = 519;
}
);
note = semicolon;
unicode = 003B;
},
{
glyphname = exclam;
lastChange = "2018-05-26 14:26:58 +0000";
layers = (
{
components = (
{
name = period;
}
);
layerId = "3D0525B3-6B2A-4787-8D58-1F6DD6CCA7DC";
paths = (
{
closed = 1;
nodes = (
"147 241 LINE",
"161 351 OFFCURVE",
"171 500 OFFCURVE",
"171 630 CURVE SMOOTH",
"171 700 LINE",
"63 700 LINE",
"63 630 LINE SMOOTH",
"63 500 OFFCURVE",
"74 351 OFFCURVE",
"87 241 CURVE"
);
}
);
width = 236;
},
{
components = (
{
name = period;
}
);
layerId = "950578AD-3C55-42C9-B412-F732192F54B4";
paths = (
{
closed = 1;
nodes = (
"305 241 LINE",
"336 351 OFFCURVE",
"359 500 OFFCURVE",
"359 630 CURVE SMOOTH",
"359 700 LINE",
"191 700 LINE",
"191 630 LINE SMOOTH",
"191 500 OFFCURVE",
"216 351 OFFCURVE",
"245 241 CURVE"
);
}
);
width = 548;
}
);
note = exclam;
unicode = 0021;
},
{
glyphname = question;
lastChange = "2018-05-26 14:28:58 +0000";
layers = (
{
components = (
{
name = period;
transform = "{1, 0, 0, 1, 113, 0}";
}
);
layerId = "3D0525B3-6B2A-4787-8D58-1F6DD6CCA7DC";
paths = (
{
closed = 1;
nodes = (
"193 211 LINE",
"270 211 LINE",
"290 314 LINE",
"270 295 LINE",
"371 325 OFFCURVE",
"471 407 OFFCURVE",
"471 511 CURVE SMOOTH",
"471 625 OFFCURVE",
"372 709 OFFCURVE",
"249 709 CURVE SMOOTH",
"159 709 OFFCURVE",
"77 655 OFFCURVE",
"22 570 CURVE",
"97 507 LINE",
"132 571 OFFCURVE",
"183 612 OFFCURVE",
"239 612 CURVE SMOOTH",
"306 612 OFFCURVE",
"358 570 OFFCURVE",
"358 511 CURVE SMOOTH",
"358 433 OFFCURVE",
"291 385 OFFCURVE",
"167 352 CURVE"
);
}
);
width = 511;
},
{
components = (
{
name = period;
transform = "{1, 0, 0, 1, 138, 0}";
}
);
layerId = "950578AD-3C55-42C9-B412-F732192F54B4";
paths = (
{
closed = 1;
nodes = (
"361 211 LINE",
"448 211 LINE",
"468 314 LINE",
"438 295 LINE",
"574 325 OFFCURVE",
"709 407 OFFCURVE",
"709 511 CURVE SMOOTH",
"709 625 OFFCURVE",
"599 709 OFFCURVE",
"438 709 CURVE SMOOTH",
"300 709 OFFCURVE",
"192 655 OFFCURVE",
"120 570 CURVE",
"195 492 LINE",
"248 556 OFFCURVE",
"324 597 OFFCURVE",
"430 597 CURVE SMOOTH",
"503 597 OFFCURVE",
"576 570 OFFCURVE",
"576 511 CURVE SMOOTH",
"576 440 OFFCURVE",
"491 397 OFFCURVE",
"335 367 CURVE"
);
}
);
width = 829;
}
);
note = question;
unicode = 003F;
},
{
glyphname = bullet;
lastChange = "2018-05-26 14:36:17 +0000";
layers = (
{
layerId = "3D0525B3-6B2A-4787-8D58-1F6DD6CCA7DC";
paths = (
{
closed = 1;
nodes = (
"248 216 OFFCURVE",
"310 276 OFFCURVE",
"310 351 CURVE SMOOTH",
"310 429 OFFCURVE",
"247 488 OFFCURVE",
"173 488 CURVE SMOOTH",
"99 488 OFFCURVE",
"37 429 OFFCURVE",
"37 351 CURVE SMOOTH",
"37 276 OFFCURVE",
"98 216 OFFCURVE",
"173 216 CURVE SMOOTH"
);
}
);
width = 346;
},
{
layerId = "950578AD-3C55-42C9-B412-F732192F54B4";
paths = (
{
closed = 1;
nodes = (
"386 216 OFFCURVE",
"448 276 OFFCURVE",
"448 351 CURVE SMOOTH",
"448 429 OFFCURVE",
"385 488 OFFCURVE",
"311 488 CURVE SMOOTH",
"237 488 OFFCURVE",
"175 429 OFFCURVE",
"175 351 CURVE SMOOTH",
"175 276 OFFCURVE",
"236 216 OFFCURVE",
"311 216 CURVE SMOOTH"
);
}
);
width = 623;
}
);
note = bullet;
unicode = 2022;
},
{
glyphname = asterisk;
lastChange = "2018-07-17 13:43:19 +0000";
layers = (
{
layerId = "3D0525B3-6B2A-4787-8D58-1F6DD6CCA7DC";
paths = (
{
closed = 1;
nodes = (
"234 376 LINE",
"226 491 LINE",
"215 493 LINE",
"319 423 LINE",
"356 487 LINE",
"244 542 LINE",
"244 531 LINE",
"357 586 LINE",
"320 651 LINE",
"217 581 LINE",
"225 573 LINE",
"234 700 LINE",
"159 700 LINE",
"167 585 LINE",
"172 583 LINE",
"68 653 LINE",
"30 589 LINE",
"142 535 LINE",
"144 540 LINE",
"32 486 LINE",
"69 421 LINE",
"172 491 LINE",
"167 491 LINE",
"159 376 LINE"
);
}
);
width = 387;
},
{
layerId = "950578AD-3C55-42C9-B412-F732192F54B4";
paths = (
{
closed = 1;
nodes = (
"379 313 LINE",
"371 451 LINE",
"358 442 LINE",
"480 359 LINE",
"538 435 LINE",
"374 522 LINE",
"378 484 LINE",
"537 573 LINE",
"489 650 LINE",
"356 557 LINE",
"370 533 LINE",
"379 700 LINE",
"284 700 LINE",
"292 545 LINE",
"314 556 LINE",
"179 652 LINE",
"120 576 LINE",
"280 491 LINE",
"310 525 LINE",
"131 429 LINE",
"179 352 LINE",
"294 438 LINE",
"292 451 LINE",
"284 313 LINE"
);
}
);
width = 659;
}
);
note = asterisk;
unicode = 002A;
},
{
glyphname = numbersign;
lastChange = "2018-05-26 14:42:27 +0000";
layers = (
{
layerId = "3D0525B3-6B2A-4787-8D58-1F6DD6CCA7DC";
paths = (
{
closed = 1;
nodes = (
"191 0 LINE",
"311 700 LINE",
"221 700 LINE",
"101 0 LINE"
);
},
{
closed = 1;
nodes = (
"647 453 LINE",
"647 536 LINE",
"69 536 LINE",
"69 453 LINE"
);
},
{
closed = 1;
nodes = (
"457 0 LINE",
"577 700 LINE",
"487 700 LINE",
"367 0 LINE"
);
},
{
closed = 1;
nodes = (
"610 173 LINE",
"610 256 LINE",
"31 256 LINE",
"31 173 LINE"
);
}
);
width = 678;
},
{
layerId = "950578AD-3C55-42C9-B412-F732192F54B4";
paths = (
{
closed = 1;
nodes = (
"305 0 LINE",
"425 700 LINE",
"325 700 LINE",
"205 0 LINE"
);
},
{
closed = 1;
nodes = (
"856 438 LINE",
"856 536 LINE",
"128 536 LINE",
"128 438 LINE"
);
},
{
closed = 1;
nodes = (
"641 0 LINE",
"761 700 LINE",
"661 700 LINE",
"541 0 LINE"
);
},
{
closed = 1;
nodes = (
"819 158 LINE",
"819 256 LINE",
"90 256 LINE",
"90 158 LINE"
);
}
);
width = 936;
}
);
note = numbersign;
unicode = 0023;
},
{
glyphname = slash;
lastChange = "2018-07-17 14:01:55 +0000";
layers = (
{
layerId = "3D0525B3-6B2A-4787-8D58-1F6DD6CCA7DC";
paths = (
{
closed = 1;
nodes = (
"118 -132 LINE",
"529 700 LINE",
"430 700 LINE",
"18 -132 LINE"
);
}
);
width = 557;
},
{
layerId = "950578AD-3C55-42C9-B412-F732192F54B4";
paths = (
{
closed = 1;
nodes = (
"245 -132 LINE",
"656 700 LINE",
"522 700 LINE",
"110 -132 LINE"
);
}
);
width = 796;
}
);
note = slash;
unicode = 002F;
},
{
glyphname = backslash;
lastChange = "2018-07-17 14:01:08 +0000";
layers = (
{
layerId = "3D0525B3-6B2A-4787-8D58-1F6DD6CCA7DC";
paths = (
{
closed = 1;
nodes = (
"547 -107 LINE",
"147 700 LINE",
"48 700 LINE",
"446 -107 LINE"
);
}
);
width = 557;
},
{
layerId = "950578AD-3C55-42C9-B412-F732192F54B4";
paths = (
{
closed = 1;
nodes = (
"663 -107 LINE",
"263 700 LINE",
"135 700 LINE",
"533 -107 LINE"
);
}
);
width = 798;
}
);
note = backslash;
unicode = 005C;
},
{
glyphname = parenleft;
lastChange = "2018-05-26 14:52:01 +0000";
layers = (
{
layerId = "3D0525B3-6B2A-4787-8D58-1F6DD6CCA7DC";
paths = (
{
closed = 1;
nodes = (
"40 81 OFFCURVE",
"120 -80 OFFCURVE",
"290 -186 CURVE",
"346 -124 LINE",
"202 -23 OFFCURVE",
"137 115 OFFCURVE",
"137 258 CURVE SMOOTH",
"137 401 OFFCURVE",
"202 539 OFFCURVE",
"346 640 CURVE",
"291 702 LINE",
"121 596 OFFCURVE",
"40 435 OFFCURVE",
"40 258 CURVE SMOOTH"
);
}
);
width = 366;
},
{
layerId = "950578AD-3C55-42C9-B412-F732192F54B4";
paths = (
{
closed = 1;
nodes = (
"120 81 OFFCURVE",
"245 -80 OFFCURVE",
"510 -186 CURVE",
"566 -109 LINE",
"339 -8 OFFCURVE",
"237 115 OFFCURVE",
"237 258 CURVE SMOOTH",
"237 401 OFFCURVE",
"339 524 OFFCURVE",
"566 625 CURVE",
"511 702 LINE",
"246 596 OFFCURVE",
"120 435 OFFCURVE",
"120 258 CURVE SMOOTH"
);
}
);
width = 681;
}
);
note = parenleft;
unicode = 0028;
},
{
glyphname = braceleft;
lastChange = "2018-05-26 14:54:27 +0000";
layers = (
{
layerId = "3D0525B3-6B2A-4787-8D58-1F6DD6CCA7DC";
paths = (
{
closed = 1;
nodes = (
"367 -131 LINE",
"271 -98 OFFCURVE",
"255 -66 OFFCURVE",
"255 7 CURVE",
"257 102 LINE",
"257 182 OFFCURVE",
"218 231 OFFCURVE",
"153 252 CURVE",
"154 249 LINE",
"218 268 OFFCURVE",
"257 318 OFFCURVE",
"257 398 CURVE",
"255 493 LINE",
"255 566 OFFCURVE",
"271 600 OFFCURVE",
"367 631 CURVE",
"349 700 LINE",
"215 671 OFFCURVE",
"164 614 OFFCURVE",
"164 507 CURVE",
"165 412 LINE",
"165 336 OFFCURVE",
"133 290 OFFCURVE",
"69 288 CURVE",
"24 288 LINE",
"24 212 LINE",
"67 212 LINE",
"131 210 OFFCURVE",
"165 165 OFFCURVE",
"165 88 CURVE",
"164 -7 LINE",
"164 -103 OFFCURVE",
"199 -170 OFFCURVE",
"349 -200 CURVE"
);
}
);
width = 411;
},
{
layerId = "950578AD-3C55-42C9-B412-F732192F54B4";
paths = (
{
closed = 1;
nodes = (
"633 -116 LINE",
"477 -83 OFFCURVE",
"451 -51 OFFCURVE",
"451 22 CURVE",
"453 102 LINE",
"453 182 OFFCURVE",
"404 231 OFFCURVE",
"314 252 CURVE",
"315 249 LINE",
"403 268 OFFCURVE",
"453 318 OFFCURVE",
"453 398 CURVE",
"451 478 LINE",
"451 551 OFFCURVE",
"477 585 OFFCURVE",
"633 616 CURVE",
"615 700 LINE",
"416 671 OFFCURVE",
"340 614 OFFCURVE",
"340 507 CURVE",
"341 412 LINE",
"341 342 OFFCURVE",
"292 294 OFFCURVE",
"195 292 CURVE",
"150 292 LINE",
"150 201 LINE",
"193 201 LINE",
"290 199 OFFCURVE",
"341 165 OFFCURVE",
"341 88 CURVE",
"340 -7 LINE",
"340 -103 OFFCURVE",
"392 -170 OFFCURVE",
"615 -200 CURVE"
);
}
);
width = 758;
}
);
note = braceleft;
unicode = 007B;
},
{
glyphname = bracketleft;
lastChange = "2018-05-26 14:51:43 +0000";
layers = (
{
layerId = "3D0525B3-6B2A-4787-8D58-1F6DD6CCA7DC";
paths = (
{
closed = 1;
nodes = (
"337 -190 LINE",
"337 -111 LINE",
"163 -111 LINE",
"173 -123 LINE",
"173 629 LINE",
"167 621 LINE",
"337 621 LINE",
"337 700 LINE",
"80 700 LINE",
"80 -190 LINE"
);
}
);
width = 403;
},
{
layerId = "950578AD-3C55-42C9-B412-F732192F54B4";
paths = (
{
closed = 1;
nodes = (
"547 -190 LINE",
"547 -96 LINE",
"253 -96 LINE",
"263 -108 LINE",
"263 614 LINE",
"257 606 LINE",
"547 606 LINE",
"547 700 LINE",
"150 700 LINE",
"150 -190 LINE"
);
}
);
width = 647;
}
);
note = bracketleft;
unicode = 005B;
},
{
glyphname = hyphen;
lastChange = "2018-07-17 13:53:44 +0000";
layers = (
{
layerId = "3D0525B3-6B2A-4787-8D58-1F6DD6CCA7DC";
paths = (
{
closed = 1;
nodes = (
"341 235 LINE",
"341 337 LINE",
"53 337 LINE",
"53 235 LINE"
);
}
);
width = 394;
},
{
layerId = "950578AD-3C55-42C9-B412-F732192F54B4";
paths = (
{
closed = 1;
nodes = (
"483 241 LINE",
"483 337 LINE",
"125 337 LINE",
"125 241 LINE"
);
}
);
width = 608;
}
);
leftKerningGroup = hyphen;
note = hyphen;
rightKerningGroup = hyphen;
unicode = 002D;
},
{
glyphname = endash;
lastChange = "2018-07-17 13:53:39 +0000";
layers = (
{
layerId = "3D0525B3-6B2A-4787-8D58-1F6DD6CCA7DC";
paths = (
{
closed = 1;
nodes = (
"461 237 LINE",
"461 336 LINE",
"53 336 LINE",
"53 237 LINE"
);
}
);
width = 514;
},
{
layerId = "950578AD-3C55-42C9-B412-F732192F54B4";
paths = (
{
closed = 1;
nodes = (
"593 243 LINE",
"593 336 LINE",
"125 336 LINE",
"125 243 LINE"
);
}
);
width = 718;
}
);
leftKerningGroup = hyphen;
note = endash;
rightKerningGroup = hyphen;
unicode = 2013;
},
{
glyphname = emdash;
lastChange = "2018-07-17 13:53:32 +0000";
layers = (
{
layerId = "3D0525B3-6B2A-4787-8D58-1F6DD6CCA7DC";
paths = (
{
closed = 1;
nodes = (
"815 237 LINE",
"815 337 LINE",
"53 337 LINE",
"53 237 LINE"
);
}
);
width = 868;
},
{
layerId = "950578AD-3C55-42C9-B412-F732192F54B4";
paths = (
{
closed = 1;
nodes = (
"957 243 LINE",
"957 337 LINE",
"125 337 LINE",
"125 243 LINE"
);
}
);
width = 1082;
}
);
leftKerningGroup = hyphen;
note = emdash;
rightKerningGroup = hyphen;
unicode = 2014;
},
{
glyphname = underscore;
lastChange = "2018-05-26 14:57:17 +0000";
layers = (
{
layerId = "3D0525B3-6B2A-4787-8D58-1F6DD6CCA7DC";
paths = (
{
closed = 1;
nodes = (
"637 -160 LINE",
"637 -82 LINE",
"53 -82 LINE",
"53 -160 LINE"
);
}
);
width = 690;
},
{
layerId = "950578AD-3C55-42C9-B412-F732192F54B4";
paths = (
{
closed = 1;
nodes = (
"779 -160 LINE",
"779 -67 LINE",
"125 -67 LINE",
"125 -160 LINE"
);
}
);
width = 904;
}
);
note = underscore;
unicode = 005F;
},
{
glyphname = quoteleft;
lastChange = "2018-07-17 13:47:24 +0000";
layers = (
{
layerId = "3D0525B3-6B2A-4787-8D58-1F6DD6CCA7DC";
paths = (
{
closed = 1;
nodes = (
"40 499 OFFCURVE",
"89 459 OFFCURVE",
"139 459 CURVE",
"173 459 OFFCURVE",
"200 479 OFFCURVE",
"200 512 CURVE",
"200 560 OFFCURVE",
"132 571 OFFCURVE",
"132 608 CURVE SMOOTH",
"132 631 OFFCURVE",
"169 665 OFFCURVE",
"221 689 CURVE",
"183 735 LINE",
"110 712 OFFCURVE",
"40 648 OFFCURVE",
"40 572 CURVE SMOOTH"
);
}
);
width = 241;
},
{
layerId = "950578AD-3C55-42C9-B412-F732192F54B4";
paths = (
{
closed = 1;
nodes = (
"90 464 OFFCURVE",
"157 401 OFFCURVE",
"225 401 CURVE",
"275 401 OFFCURVE",
"315 424 OFFCURVE",
"315 473 CURVE",
"315 540 OFFCURVE",
"212 539 OFFCURVE",
"212 593 CURVE SMOOTH",
"212 622 OFFCURVE",
"257 658 OFFCURVE",
"321 696 CURVE",
"273 751 LINE",
"184 712 OFFCURVE",
"90 623 OFFCURVE",
"90 543 CURVE SMOOTH"
);
}
);
width = 341;
}
);
leftKerningGroup = quoteleft;
note = quoteleft;
rightKerningGroup = quoteleft;
unicode = 2018;
},
{
glyphname = guilsinglleft;
lastChange = "2018-05-26 15:02:44 +0000";
layers = (
{
layerId = "3D0525B3-6B2A-4787-8D58-1F6DD6CCA7DC";
paths = (
{
closed = 1;
nodes = (
"113 255 LINE",
"232 426 LINE",
"169 471 LINE",
"7 254 LINE",
"7 262 LINE",
"170 50 LINE",
"233 95 LINE",
"114 266 LINE"
);
}
);
width = 273;
},
{
layerId = "950578AD-3C55-42C9-B412-F732192F54B4";
paths = (
{
closed = 1;
nodes = (
"232 245 LINE",
"411 416 LINE",
"338 471 LINE",
"106 254 LINE",
"106 262 LINE",
"339 50 LINE",
"412 105 LINE",
"233 276 LINE"
);
}
);
width = 562;
}
);
note = guilsinglleft;
unicode = 2039;
},
{
glyphname = quotedbl;
lastChange = "2018-05-28 15:50:10 +0000";
layers = (
{
layerId = "3D0525B3-6B2A-4787-8D58-1F6DD6CCA7DC";
paths = (
{
closed = 1;
nodes = (
"37 442 LINE",
"97 442 LINE",
"178 700 LINE",
"60 700 LINE"
);
},
{
closed = 1;
nodes = (
"245 442 LINE",
"305 442 LINE",
"385 700 LINE",
"269 700 LINE"
);
}
);
width = 412;
},
{
layerId = "950578AD-3C55-42C9-B412-F732192F54B4";
paths = (
{
closed = 1;
nodes = (
"110 422 LINE",
"190 422 LINE",
"271 700 LINE",
"123 700 LINE"
);
},
{
closed = 1;
nodes = (
"348 422 LINE",
"428 422 LINE",
"508 700 LINE",
"362 700 LINE"
);
}
);
width = 618;
}
);
note = quotedbl;
unicode = 0022;
},
{
glyphname = quotesingle;
lastChange = "2018-05-28 15:50:04 +0000";
layers = (
{
layerId = "3D0525B3-6B2A-4787-8D58-1F6DD6CCA7DC";
paths = (
{
closed = 1;
nodes = (
"37 442 LINE",
"97 442 LINE",
"178 700 LINE",
"60 700 LINE"
);
}
);
width = 205;
},
{
layerId = "950578AD-3C55-42C9-B412-F732192F54B4";
paths = (
{
closed = 1;
nodes = (
"110 422 LINE",
"190 422 LINE",
"271 700 LINE",
"123 700 LINE"
);
}
);
width = 381;
}
);
note = quotesingle;
unicode = 0027;
},
{
glyphname = .notdef;
lastChange = "2018-05-26 15:48:58 +0000";
layers = (
{
layerId = "3D0525B3-6B2A-4787-8D58-1F6DD6CCA7DC";
paths = (
{
closed = 1;
nodes = (
"40 35 LINE SMOOTH",
"40 12 OFFCURVE",
"52 0 OFFCURVE",
"75 0 CURVE SMOOTH",
"509 0 LINE SMOOTH",
"532 0 OFFCURVE",
"544 12 OFFCURVE",
"544 35 CURVE SMOOTH",
"544 665 LINE SMOOTH",
"544 688 OFFCURVE",
"532 700 OFFCURVE",
"509 700 CURVE SMOOTH",
"75 700 LINE SMOOTH",
"52 700 OFFCURVE",
"40 688 OFFCURVE",
"40 665 CURVE SMOOTH"
);
},
{
closed = 1;
nodes = (
"509 670 LINE SMOOTH",
"512 670 OFFCURVE",
"514 668 OFFCURVE",
"514 665 CURVE SMOOTH",
"514 67 LINE SMOOTH",
"514 62 OFFCURVE",
"511 61 OFFCURVE",
"508 65 CURVE",
"92 664 LINE SMOOTH",
"90 667 OFFCURVE",
"91 670 OFFCURVE",
"95 670 CURVE SMOOTH"
);
},
{
closed = 1;
nodes = (
"70 633 LINE SMOOTH",
"70 638 OFFCURVE",
"73 639 OFFCURVE",
"76 635 CURVE",
"491 36 LINE SMOOTH",
"493 33 OFFCURVE",
"492 30 OFFCURVE",
"488 30 CURVE SMOOTH",
"75 30 LINE SMOOTH",
"72 30 OFFCURVE",
"70 32 OFFCURVE",
"70 35 CURVE SMOOTH"
);
}
);
width = 584;
},
{
layerId = "950578AD-3C55-42C9-B412-F732192F54B4";
paths = (
{
closed = 1;
nodes = (
"40 35 LINE SMOOTH",
"40 12 OFFCURVE",
"52 0 OFFCURVE",
"75 0 CURVE SMOOTH",
"509 0 LINE SMOOTH",
"532 0 OFFCURVE",
"544 12 OFFCURVE",
"544 35 CURVE SMOOTH",
"544 665 LINE SMOOTH",
"544 688 OFFCURVE",
"532 700 OFFCURVE",
"509 700 CURVE SMOOTH",
"75 700 LINE SMOOTH",
"52 700 OFFCURVE",
"40 688 OFFCURVE",
"40 665 CURVE SMOOTH"
);
},
{
closed = 1;
nodes = (
"509 670 LINE SMOOTH",
"512 670 OFFCURVE",
"514 668 OFFCURVE",
"514 665 CURVE SMOOTH",
"514 67 LINE SMOOTH",
"514 62 OFFCURVE",
"511 61 OFFCURVE",
"508 65 CURVE",
"92 664 LINE SMOOTH",
"90 667 OFFCURVE",
"91 670 OFFCURVE",
"95 670 CURVE SMOOTH"
);
},
{
closed = 1;
nodes = (
"70 633 LINE SMOOTH",
"70 638 OFFCURVE",
"73 639 OFFCURVE",
"76 635 CURVE",
"491 36 LINE SMOOTH",
"493 33 OFFCURVE",
"492 30 OFFCURVE",
"488 30 CURVE SMOOTH",
"75 30 LINE SMOOTH",
"72 30 OFFCURVE",
"70 32 OFFCURVE",
"70 35 CURVE SMOOTH"
);
}
);
width = 584;
}
);
note = .notdef;
},
{
glyphname = cedi;
lastChange = "2018-05-28 16:29:18 +0000";
layers = (
{
components = (
{
name = C;
}
);
layerId = "3D0525B3-6B2A-4787-8D58-1F6DD6CCA7DC";
paths = (
{
closed = 1;
nodes = (
"428 21 LINE",
"418 66 LINE",
"418 642 LINE",
"428 680 LINE",
"428 776 LINE",
"321 776 LINE",
"321 673 LINE",
"325 637 LINE",
"325 73 LINE",
"321 18 LINE",
"321 -81 LINE",
"428 -81 LINE"
);
}
);
width = 679;
},
{
components = (
{
name = C;
}
);
layerId = "950578AD-3C55-42C9-B412-F732192F54B4";
paths = (
{
closed = 1;
nodes = (
"588 21 LINE",
"581 66 LINE",
"581 642 LINE",
"588 680 LINE",
"588 776 LINE",
"461 776 LINE",
"461 673 LINE",
"468 637 LINE",
"468 73 LINE",
"461 18 LINE",
"461 -81 LINE",
"588 -81 LINE"
);
}
);
width = 981;
}
);
rightMetricsKey = C;
unicode = 20B5;
},
{
glyphname = cent;
lastChange = "2018-05-28 16:28:56 +0000";
layers = (
{
anchors = (
{
name = bottom;
position = "{258, 90}";
},
{
name = top;
position = "{298, 600}";
}
);
components = (
{
name = c;
transform = "{1, 0, 0, 1, 0, 88}";
}
);
layerId = "3D0525B3-6B2A-4787-8D58-1F6DD6CCA7DC";
paths = (
{
closed = 1;
nodes = (
"336 107 LINE",
"329 141 LINE",
"329 572 LINE",
"336 605 LINE",
"336 700 LINE",
"239 700 LINE",
"239 606 LINE",
"246 563 LINE",
"246 145 LINE",
"239 108 LINE",
"239 0 LINE",
"336 0 LINE"
);
}
);
width = 535;
},
{
components = (
{
name = c;
transform = "{1, 0, 0, 1, 0, 88}";
}
);
layerId = "950578AD-3C55-42C9-B412-F732192F54B4";
paths = (
{
closed = 1;
nodes = (
"520 107 LINE",
"513 141 LINE",
"513 572 LINE",
"520 605 LINE",
"520 700 LINE",
"403 700 LINE",
"403 606 LINE",
"410 563 LINE",
"410 145 LINE",
"403 108 LINE",
"403 0 LINE",
"520 0 LINE"
);
}
);
width = 870;
}
);
note = cent;
rightMetricsKey = c;
unicode = 00A2;
},
{
glyphname = colonsign;
lastChange = "2018-05-26 15:51:34 +0000";
layers = (
{
components = (
{
name = C;
}
);
layerId = "3D0525B3-6B2A-4787-8D58-1F6DD6CCA7DC";
paths = (
{
closed = 1;
nodes = (
"105 -106 LINE",
"533 773 LINE",
"460 803 LINE",
"28 -70 LINE"
);
},
{
closed = 1;
nodes = (
"265 -139 LINE",
"693 740 LINE",
"620 770 LINE",
"188 -103 LINE"
);
}
);
width = 637;
},
{
components = (
{
name = C;
}
);
layerId = "950578AD-3C55-42C9-B412-F732192F54B4";
paths = (
{
closed = 1;
nodes = (
"321 -116 LINE",
"749 763 LINE",
"656 803 LINE",
"224 -70 LINE"
);
},
{
closed = 1;
nodes = (
"501 -159 LINE",
"929 720 LINE",
"836 760 LINE",
"404 -113 LINE"
);
}
);
width = 1029;
}
);
unicode = 20A1;
},
{
glyphname = currency;
lastChange = "2018-05-26 15:52:18 +0000";
layers = (
{
layerId = "3D0525B3-6B2A-4787-8D58-1F6DD6CCA7DC";
paths = (
{
closed = 1;
nodes = (
"377 122 OFFCURVE",
"457 202 OFFCURVE",
"457 302 CURVE",
"457 401 OFFCURVE",
"377 482 OFFCURVE",
"279 482 CURVE",
"180 482 OFFCURVE",
"101 401 OFFCURVE",
"101 302 CURVE",
"101 202 OFFCURVE",
"180 122 OFFCURVE",
"279 122 CURVE"
);
},
{
closed = 1;
nodes = (
"229 210 OFFCURVE",
"197 250 OFFCURVE",
"197 302 CURVE",
"197 353 OFFCURVE",
"229 395 OFFCURVE",
"279 395 CURVE",
"330 395 OFFCURVE",
"362 353 OFFCURVE",
"362 302 CURVE",
"362 250 OFFCURVE",
"330 210 OFFCURVE",
"279 210 CURVE"
);
},
{
closed = 1;
nodes = (
"148 359 LINE",
"218 429 LINE",
"120 521 LINE",
"50 451 LINE"
);
},
{
closed = 1;
nodes = (
"428 90 LINE",
"498 160 LINE",
"400 252 LINE",
"330 182 LINE"
);
},
{
closed = 1;
nodes = (
"337 432 LINE",
"407 362 LINE",
"500 460 LINE",
"429 530 LINE"
);
},
{
closed = 1;
nodes = (
"58 152 LINE",
"129 82 LINE",
"221 179 LINE",
"150 250 LINE"
);
}
);
width = 550;
},
{
layerId = "950578AD-3C55-42C9-B412-F732192F54B4";
paths = (
{
closed = 1;
nodes = (
"523 112 OFFCURVE",
"607 196 OFFCURVE",
"607 302 CURVE",
"607 407 OFFCURVE",
"523 492 OFFCURVE",
"419 492 CURVE",
"314 492 OFFCURVE",
"231 407 OFFCURVE",
"231 302 CURVE",
"231 196 OFFCURVE",
"314 112 OFFCURVE",
"419 112 CURVE"
);
},
{
closed = 1;
nodes = (
"369 210 OFFCURVE",
"337 250 OFFCURVE",
"337 302 CURVE",
"337 353 OFFCURVE",
"369 395 OFFCURVE",
"419 395 CURVE",
"470 395 OFFCURVE",
"502 353 OFFCURVE",
"502 302 CURVE",
"502 250 OFFCURVE",
"470 210 OFFCURVE",
"419 210 CURVE"
);
},
{
closed = 1;
nodes = (
"288 359 LINE",
"358 429 LINE",
"260 521 LINE",
"190 451 LINE"
);
},
{
closed = 1;
nodes = (
"568 90 LINE",
"638 160 LINE",
"540 252 LINE",
"470 182 LINE"
);
},
{
closed = 1;
nodes = (
"477 432 LINE",
"547 362 LINE",
"640 460 LINE",
"569 530 LINE"
);
},
{
closed = 1;
nodes = (
"198 152 LINE",
"269 82 LINE",
"361 179 LINE",
"290 250 LINE"
);
}
);
width = 830;
}
);
note = currency;
unicode = 00A4;
},
{
glyphname = dollar;
lastChange = "2018-05-28 15:56:35 +0000";
layers = (
{
components = (
{
name = S;
}
);
layerId = "3D0525B3-6B2A-4787-8D58-1F6DD6CCA7DC";
paths = (
{
closed = 1;
nodes = (
"254 363 LINE",
"254 -91 LINE",
"351 -91 LINE",
"351 330 LINE"
);
},
{
closed = 1;
nodes = (
"391 330 LINE",
"391 782 LINE",
"294 782 LINE",
"294 363 LINE"
);
}
);
width = 619;
},
{
components = (
{
name = S;
}
);
layerId = "950578AD-3C55-42C9-B412-F732192F54B4";
paths = (
{
closed = 1;
nodes = (
"396 363 LINE",
"396 -91 LINE",
"503 -91 LINE",
"503 330 LINE"
);
},
{
closed = 1;
nodes = (
"543 330 LINE",
"543 782 LINE",
"436 782 LINE",
"436 363 LINE"
);
}
);
width = 935;
}
);
note = dollar;
rightMetricsKey = S;
unicode = 0024;
},
{
glyphname = dong;
lastChange = "2018-05-26 15:55:05 +0000";
layers = (
{
layerId = "3D0525B3-6B2A-4787-8D58-1F6DD6CCA7DC";
paths = (
{
closed = 1;
nodes = (
"264 146 OFFCURVE",
"315 219 OFFCURVE",
"315 262 CURVE",
"295 266 LINE",
"295 156 LINE",
"392 156 LINE",
"392 700 LINE",
"295 700 LINE",
"295 404 LINE",
"325 377 LINE",
"311 450 OFFCURVE",
"261 497 OFFCURVE",
"195 497 CURVE",
"113 497 OFFCURVE",
"40 423 OFFCURVE",
"40 321 CURVE",
"40 221 OFFCURVE",
"114 146 OFFCURVE",
"191 146 CURVE"
);
},
{
closed = 1;
nodes = (
"166 227 OFFCURVE",
"137 273 OFFCURVE",
"137 321 CURVE",
"137 373 OFFCURVE",
"166 417 OFFCURVE",
"216 417 CURVE",
"265 417 OFFCURVE",
"300 373 OFFCURVE",
"300 321 CURVE",
"300 273 OFFCURVE",
"265 227 OFFCURVE",
"216 227 CURVE"
);
},
{
closed = 1;
nodes = (
"430 0 LINE",
"430 78 LINE",
"41 78 LINE",
"41 0 LINE"
);
},
{
closed = 1;
nodes = (
"466 534 LINE",
"466 614 LINE",
"203 614 LINE",
"203 534 LINE"
);
}
);
width = 491;
},
{
layerId = "950578AD-3C55-42C9-B412-F732192F54B4";
paths = (
{
closed = 1;
nodes = (
"465 146 OFFCURVE",
"545 219 OFFCURVE",
"545 262 CURVE",
"525 266 LINE",
"525 156 LINE",
"642 156 LINE",
"642 700 LINE",
"525 700 LINE",
"525 404 LINE",
"555 377 LINE",
"545 450 OFFCURVE",
"457 497 OFFCURVE",
"355 497 CURVE",
"236 497 OFFCURVE",
"130 423 OFFCURVE",
"130 321 CURVE",
"130 221 OFFCURVE",
"238 146 OFFCURVE",
"351 146 CURVE"
);
},
{
closed = 1;
nodes = (
"304 237 OFFCURVE",
"257 278 OFFCURVE",
"257 321 CURVE",
"257 368 OFFCURVE",
"304 407 OFFCURVE",
"376 407 CURVE",
"466 407 OFFCURVE",
"530 368 OFFCURVE",
"530 321 CURVE",
"530 278 OFFCURVE",
"466 237 OFFCURVE",
"376 237 CURVE"
);
},
{
closed = 1;
nodes = (
"680 0 LINE",
"680 84 LINE",
"131 84 LINE",
"131 0 LINE"
);
},
{
closed = 1;
nodes = (
"716 534 LINE",
"716 620 LINE",
"313 620 LINE",
"313 534 LINE"
);
}
);
width = 841;
}
);
unicode = 20AB;
},
{
glyphname = euro;
lastChange = "2018-05-26 15:57:34 +0000";
layers = (
{
layerId = "3D0525B3-6B2A-4787-8D58-1F6DD6CCA7DC";
paths = (
{
closed = 1;
nodes = (
"417 221 LINE",
"417 314 LINE",
"15 316 LINE",
"15 222 LINE"
);
},
{
closed = 1;
nodes = (
"417 367 LINE",
"417 460 LINE",
"15 461 LINE",
"15 368 LINE"
);
},
{
closed = 1;
nodes = (
"487 -10 OFFCURVE",
"545 9 OFFCURVE",
"591 37 CURVE",
"541 121 LINE",
"508 98 OFFCURVE",
"470 86 OFFCURVE",
"429 86 CURVE",
"296 86 OFFCURVE",
"189 180 OFFCURVE",
"189 350 CURVE",
"189 503 OFFCURVE",
"290 610 OFFCURVE",
"429 610 CURVE",
"470 610 OFFCURVE",
"509 597 OFFCURVE",
"541 576 CURVE",
"590 659 LINE",
"544 689 OFFCURVE",
"487 706 OFFCURVE",
"429 706 CURVE",
"237 706 OFFCURVE",
"92 556 OFFCURVE",
"92 350 CURVE",
"92 121 OFFCURVE",
"248 -10 OFFCURVE",
"429 -10 CURVE"
);
}
);
width = 646;
},
{
layerId = "950578AD-3C55-42C9-B412-F732192F54B4";
paths = (
{
closed = 1;
nodes = (
"542 221 LINE",
"542 314 LINE",
"50 316 LINE",
"50 222 LINE"
);
},
{
closed = 1;
nodes = (
"542 367 LINE",
"542 460 LINE",
"50 461 LINE",
"50 368 LINE"
);
},
{
closed = 1;
nodes = (
"637 -10 OFFCURVE",
"720 9 OFFCURVE",
"786 37 CURVE",
"736 136 LINE",
"682 113 OFFCURVE",
"621 101 OFFCURVE",
"554 101 CURVE",
"393 101 OFFCURVE",
"264 186 OFFCURVE",
"264 350 CURVE",
"264 497 OFFCURVE",
"386 594 OFFCURVE",
"554 594 CURVE",
"621 594 OFFCURVE",
"684 581 OFFCURVE",
"736 560 CURVE",
"785 659 LINE",
"719 689 OFFCURVE",
"637 706 OFFCURVE",
"554 706 CURVE",
"322 706 OFFCURVE",
"147 556 OFFCURVE",
"147 350 CURVE",
"147 121 OFFCURVE",
"335 -10 OFFCURVE",
"554 -10 CURVE"
);
}
);
width = 901;
}
);
note = Euro;
unicode = 20AC;
},
{
glyphname = florin;
lastChange = "2018-05-26 16:01:11 +0000";
layers = (
{
layerId = "3D0525B3-6B2A-4787-8D58-1F6DD6CCA7DC";
paths = (
{
closed = 1;
nodes = (
"182 -31 OFFCURVE",
"234 17 OFFCURVE",
"253 119 CURVE SMOOTH",
"324 523 LINE SMOOTH",
"334 579 OFFCURVE",
"362 608 OFFCURVE",
"417 608 CURVE SMOOTH",
"441 608 OFFCURVE",
"464 601 OFFCURVE",
"486 593 CURVE",
"516 657 LINE",
"481 681 OFFCURVE",
"444 692 OFFCURVE",
"398 692 CURVE SMOOTH",
"294 692 OFFCURVE",
"244 635 OFFCURVE",
"227 538 CURVE SMOOTH",
"155 129 LINE SMOOTH",
"147 86 OFFCURVE",
"127 54 OFFCURVE",
"90 54 CURVE SMOOTH",
"68 54 OFFCURVE",
"52 58 OFFCURVE",
"32 69 CURVE",
"4 1 LINE",
"20 -13 OFFCURVE",
"55 -31 OFFCURVE",
"96 -31 CURVE SMOOTH"
);
},
{
closed = 1;
nodes = (
"440 361 LINE",
"440 444 LINE",
"71 445 LINE",
"71 362 LINE"
);
}
);
width = 519;
},
{
layerId = "950578AD-3C55-42C9-B412-F732192F54B4";
paths = (
{
closed = 1;
nodes = (
"296 -31 OFFCURVE",
"354 20 OFFCURVE",
"391 119 CURVE SMOOTH",
"538 517 LINE SMOOTH",
"559 575 OFFCURVE",
"595 602 OFFCURVE",
"651 602 CURVE SMOOTH",
"689 602 OFFCURVE",
"725 586 OFFCURVE",
"771 562 CURVE",
"800 640 LINE",
"750 685 OFFCURVE",
"692 700 OFFCURVE",
"628 700 CURVE SMOOTH",
"521 700 OFFCURVE",
"453 639 OFFCURVE",
"420 546 CURVE SMOOTH",
"276 140 LINE SMOOTH",
"261 98 OFFCURVE",
"234 65 OFFCURVE",
"184 65 CURVE SMOOTH",
"154 65 OFFCURVE",
"138 69 OFFCURVE",
"111 80 CURVE",
"80 1 LINE",
"99 -13 OFFCURVE",
"137 -31 OFFCURVE",
"187 -31 CURVE SMOOTH"
);
},
{
closed = 1;
nodes = (
"666 346 LINE",
"666 444 LINE",
"177 445 LINE",
"177 347 LINE"
);
}
);
width = 880;
}
);
note = florin;
unicode = 0192;
},
{
glyphname = kip;
lastChange = "2018-06-06 12:45:29 +0000";
layers = (
{
components = (
{
name = K;
transform = "{1, 0, 0, 1, 27, 0}";
}
);
layerId = "3D0525B3-6B2A-4787-8D58-1F6DD6CCA7DC";
paths = (
{
closed = 1;
nodes = (
"377 320 LINE",
"632 320 LINE",
"632 415 LINE",
"377 415 LINE"
);
},
{
closed = 1;
nodes = (
"203 415 LINE",
"30 415 LINE",
"30 320 LINE",
"199 320 LINE"
);
}
);
width = 744;
},
{
components = (
{
name = K;
transform = "{1, 0, 0, 1, 47, 0}";
}
);
layerId = "950578AD-3C55-42C9-B412-F732192F54B4";
paths = (
{
closed = 1;
nodes = (
"607 320 LINE",
"932 320 LINE",
"932 431 LINE",
"607 431 LINE"
);
},
{
closed = 1;
nodes = (
"283 431 LINE",
"50 431 LINE",
"50 320 LINE",
"279 320 LINE"
);
}
);
width = 1118;
}
);
rightMetricsKey = K;
unicode = 20AD;
},
{
glyphname = lira;
lastChange = "2018-05-28 16:29:34 +0000";
layers = (
{
layerId = "3D0525B3-6B2A-4787-8D58-1F6DD6CCA7DC";
paths = (
{
closed = 1;
nodes = (
"222 90 OFFCURVE",
"265 146 OFFCURVE",
"265 224 CURVE",
"265 301 OFFCURVE",
"204 406 OFFCURVE",
"204 486 CURVE",
"204 556 OFFCURVE",
"250 617 OFFCURVE",
"330 617 CURVE",
"379 617 OFFCURVE",
"416 600 OFFCURVE",
"445 569 CURVE",
"519 625 LINE",
"492 671 OFFCURVE",
"430 710 OFFCURVE",
"330 710 CURVE",
"189 710 OFFCURVE",
"104 618 OFFCURVE",
"104 487 CURVE",
"104 395 OFFCURVE",
"165 304 OFFCURVE",
"165 201 CURVE",
"165 136 OFFCURVE",
"137 88 OFFCURVE",
"112 74 CURVE",
"187 53 LINE"
);
},
{
closed = 1;
nodes = (
"478 -21 OFFCURVE",
"538 0 OFFCURVE",
"580 37 CURVE",
"528 102 LINE",
"502 86 OFFCURVE",
"463 67 OFFCURVE",
"415 67 CURVE",
"357 67 OFFCURVE",
"286 114 OFFCURVE",
"217 114 CURVE",
"135 114 OFFCURVE",
"70 96 OFFCURVE",
"20 65 CURVE",
"60 -6 LINE",
"92 7 OFFCURVE",
"149 26 OFFCURVE",
"204 26 CURVE",
"254 26 OFFCURVE",
"356 -20 OFFCURVE",
"415 -21 CURVE"
);
},
{
closed = 1;
nodes = (
"442 203 LINE",
"442 288 LINE",
"34 288 LINE",
"34 203 LINE"
);
},
{
closed = 1;
nodes = (
"442 323 LINE",
"442 408 LINE",
"34 408 LINE",
"34 323 LINE"
);
}
);
width = 620;
},
{
layerId = "950578AD-3C55-42C9-B412-F732192F54B4";
paths = (
{
closed = 1;
nodes = (
"339 90 OFFCURVE",
"385 146 OFFCURVE",
"385 224 CURVE",
"385 301 OFFCURVE",
"324 406 OFFCURVE",
"324 486 CURVE",
"324 556 OFFCURVE",
"376 602 OFFCURVE",
"500 602 CURVE",
"579 602 OFFCURVE",
"638 578 OFFCURVE",
"685 534 CURVE",
"759 605 LINE",
"722 662 OFFCURVE",
"637 710 OFFCURVE",
"500 710 CURVE",
"315 710 OFFCURVE",
"204 618 OFFCURVE",
"204 487 CURVE",
"204 395 OFFCURVE",
"265 304 OFFCURVE",
"265 201 CURVE",
"265 136 OFFCURVE",
"237 88 OFFCURVE",
"212 74 CURVE",
"304 53 LINE"
);
},
{
closed = 1;
nodes = (
"718 -21 OFFCURVE",
"778 7 OFFCURVE",
"820 57 CURVE",
"768 138 LINE",
"742 113 OFFCURVE",
"703 83 OFFCURVE",
"655 83 CURVE",
"556 83 OFFCURVE",
"435 150 OFFCURVE",
"317 150 CURVE",
"235 150 OFFCURVE",
"170 125 OFFCURVE",
"120 81 CURVE",
"160 -6 LINE",
"192 16 OFFCURVE",
"249 46 OFFCURVE",
"304 46 CURVE",
"387 46 OFFCURVE",
"557 -20 OFFCURVE",
"655 -21 CURVE"
);
},
{
closed = 1;
nodes = (
"683 210 LINE",
"683 312 LINE",
"136 312 LINE",
"136 210 LINE"
);
},
{
closed = 1;
nodes = (
"682 350 LINE",
"682 452 LINE",
"134 452 LINE",
"134 350 LINE"
);
}
);
width = 940;
}
);
leftMetricsKey = sterling;
rightMetricsKey = sterling;
unicode = 20A4;
},
{
glyphname = liraTurkish;
lastChange = "2018-05-26 16:08:40 +0000";
layers = (
{
layerId = "3D0525B3-6B2A-4787-8D58-1F6DD6CCA7DC";
paths = (
{
closed = 1;
nodes = (
"391 -10 OFFCURVE",
"548 89 OFFCURVE",
"560 193 CURVE",
"468 219 LINE",
"433 124 OFFCURVE",
"324 87 OFFCURVE",
"244 87 CURVE",
"255 52 LINE",
"254 700 LINE",
"156 700 LINE",
"156 0 LINE",
"173 -8 OFFCURVE",
"200 -10 OFFCURVE",
"237 -10 CURVE"
);
},
{
closed = 1;
nodes = (
"67 336 LINE",
"412 528 LINE",
"368 595 LINE",
"28 404 LINE"
);
},
{
closed = 1;
nodes = (
"87 176 LINE",
"432 368 LINE",
"388 435 LINE",
"48 244 LINE"
);
}
);
width = 609;
},
{
layerId = "950578AD-3C55-42C9-B412-F732192F54B4";
paths = (
{
closed = 1;
nodes = (
"560 -10 OFFCURVE",
"785 123 OFFCURVE",
"802 263 CURVE",
"710 305 LINE",
"653 160 OFFCURVE",
"476 103 OFFCURVE",
"346 103 CURVE",
"377 52 LINE",
"376 700 LINE",
"258 700 LINE",
"258 0 LINE",
"275 -8 OFFCURVE",
"302 -10 OFFCURVE",
"339 -10 CURVE"
);
},
{
closed = 1;
nodes = (
"169 336 LINE",
"591 571 LINE",
"537 654 LINE",
"120 420 LINE"
);
},
{
closed = 1;
nodes = (
"194 160 LINE",
"616 395 LINE",
"567 478 LINE",
"150 244 LINE"
);
}
);
width = 952;
}
);
unicode = 20BA;
},
{
glyphname = manat;
lastChange = "2018-06-05 17:18:19 +0000";
layers = (
{
components = (
{
name = U;
transform = "{-1, 0, 0, -1, 760, 694}";
}
);
layerId = "3D0525B3-6B2A-4787-8D58-1F6DD6CCA7DC";
paths = (
{
closed = 1;
nodes = (
"426 801 LINE",
"329 801 LINE",
"329 254 LINE",
"426 254 LINE"
);
}
);
width = 760;
},
{
components = (
{
name = U;
transform = "{-1, 0, 0, -1, 1056, 694}";
}
);
layerId = "950578AD-3C55-42C9-B412-F732192F54B4";
paths = (
{
closed = 1;
nodes = (
"581 801 LINE",
"464 801 LINE",
"464 254 LINE",
"581 254 LINE"
);
}
);
width = 1068;
}
);
leftMetricsKey = H;
rightMetricsKey = H;
unicode = 20BC;
},
{
glyphname = naira;
lastChange = "2018-05-26 16:10:14 +0000";
layers = (
{
components = (
{
name = N;
}
);
layerId = "3D0525B3-6B2A-4787-8D58-1F6DD6CCA7DC";
paths = (
{
closed = 1;
nodes = (
"102 314 LINE",
"132 321 LINE",
"646 321 LINE",
"687 314 LINE",
"785 314 LINE",
"785 407 LINE",
"692 407 LINE",
"650 400 LINE",
"138 400 LINE",
"104 407 LINE",
"10 407 LINE",
"10 314 LINE"
);
}
);
width = 795;
},
{
components = (
{
name = N;
transform = "{1, 0, 0, 1, 40, 0}";
}
);
layerId = "950578AD-3C55-42C9-B412-F732192F54B4";
paths = (
{
closed = 1;
nodes = (
"232 297 LINE",
"262 304 LINE",
"896 304 LINE",
"937 297 LINE",
"1075 297 LINE",
"1075 407 LINE",
"942 407 LINE",
"900 400 LINE",
"268 400 LINE",
"234 407 LINE",
"110 407 LINE",
"110 297 LINE"
);
}
);
width = 1215;
}
);
unicode = 20A6;
},
{
glyphname = peseta;
lastChange = "2018-06-06 12:46:38 +0000";
layers = (
{
components = (
{
name = P;
transform = "{1, 0, 0, 1, 80, 0}";
}
);
layerId = "3D0525B3-6B2A-4787-8D58-1F6DD6CCA7DC";
paths = (
{
closed = 1;
nodes = (
"721 435 LINE",
"721 528 LINE",
"90 528 LINE",
"90 435 LINE"
);
}
);
width = 791;
},
{
components = (
{
name = P;
transform = "{1, 0, 0, 1, 90, 0}";
}
);
layerId = "950578AD-3C55-42C9-B412-F732192F54B4";
paths = (
{
closed = 1;
nodes = (
"1053 429 LINE",
"1053 538 LINE",
"120 538 LINE",
"120 429 LINE"
);
}
);
width = 1183;
}
);
unicode = 20A7;
},
{
glyphname = peso;
lastChange = "2018-05-26 16:12:42 +0000";
layers = (
{
components = (
{
name = P;
transform = "{1, 0, 0, 1, 80, 0}";
}
);
layerId = "3D0525B3-6B2A-4787-8D58-1F6DD6CCA7DC";
paths = (
{
closed = 1;
nodes = (
"203 393 LINE",
"227 407 LINE",
"551 407 LINE",
"583 393 LINE",
"705 393 LINE",
"705 467 LINE",
"588 467 LINE",
"553 457 LINE",
"229 457 LINE",
"206 467 LINE",
"90 467 LINE",
"90 393 LINE"
);
},
{
closed = 1;
nodes = (
"204 508 LINE",
"230 516 LINE",
"553 516 LINE",
"589 508 LINE",
"705 508 LINE",
"705 580 LINE",
"584 580 LINE",
"547 566 LINE",
"231 566 LINE",
"209 580 LINE",
"90 580 LINE",
"90 508 LINE"
);
}
);
width = 775;
},
{
components = (
{
name = P;
transform = "{1, 0, 0, 1, 40, 0}";
}
);
layerId = "950578AD-3C55-42C9-B412-F732192F54B4";
paths = (
{
closed = 1;
nodes = (
"233 373 LINE",
"257 397 LINE",
"791 397 LINE",
"823 373 LINE",
"965 373 LINE",
"965 462 LINE",
"828 462 LINE",
"793 452 LINE",
"259 452 LINE",
"236 462 LINE",
"120 462 LINE",
"120 373 LINE"
);
},
{
closed = 1;
nodes = (
"234 503 LINE",
"260 511 LINE",
"793 511 LINE",
"829 503 LINE",
"965 503 LINE",
"965 590 LINE",
"824 590 LINE",
"787 566 LINE",
"261 566 LINE",
"239 590 LINE",
"120 590 LINE",
"120 503 LINE"
);
}
);
width = 1095;
}
);
leftMetricsKey = peseta;
rightMetricsKey = peseta;
unicode = 20B1;
},
{
glyphname = ruble;
lastChange = "2018-05-26 16:13:38 +0000";
layers = (
{
components = (
{
name = P;
transform = "{1, 0, 0, 1, 85, 0}";
},
{
name = strokeshortcomb;
transform = "{1, 0, 0, 1, 40, -134}";
}
);
layerId = "3D0525B3-6B2A-4787-8D58-1F6DD6CCA7DC";
paths = (
{
closed = 1;
nodes = (
"194 364 LINE",
"91 364 LINE",
"91 271 LINE",
"194 271 LINE"
);
}
);
width = 705;
},
{
components = (
{
name = P;
transform = "{1, 0, 0, 1, 45, 0}";
},
{
name = strokeshortcomb;
transform = "{1, 0, 0, 1, 0, -134}";
}
);
layerId = "950578AD-3C55-42C9-B412-F732192F54B4";
paths = (
{
closed = 1;
nodes = (
"297 372 LINE",
"123 372 LINE",
"123 271 LINE",
"297 271 LINE"
);
}
);
width = 998;
}
);
leftMetricsKey = peso;
rightMetricsKey = P;
unicode = 20BD;
},
{
glyphname = rupeeIndian;
lastChange = "2018-06-06 12:47:36 +0000";
layers = (
{
components = (
{
name = strokeshortcomb;
transform = "{1, 0, 0, 1, 192, 182}";
}
);
layerId = "3D0525B3-6B2A-4787-8D58-1F6DD6CCA7DC";
paths = (
{
closed = 1;
nodes = (
"316 596 LINE",
"506 596 LINE",
"506 700 LINE",
"68 700 LINE",
"68 596 LINE",
"199 596 LINE SMOOTH",
"269 596 OFFCURVE",
"328 551 OFFCURVE",
"328 478 CURVE",
"328 421 OFFCURVE",
"291 367 OFFCURVE",
"227 367 CURVE",
"119 367 LINE",
"119 318 LINE",
"160 263 LINE",
"217 263 LINE",
"341 263 OFFCURVE",
"438 365 OFFCURVE",
"438 477 CURVE",
"438 590 OFFCURVE",
"326 660 OFFCURVE",
"217 660 CURVE"
);
},
{
closed = 1;
nodes = (
"122 316 LINE",
"347 0 LINE",
"478 -1 LINE",
"233 341 LINE"
);
}
);
width = 540;
},
{
components = (
{
name = strokeshortcomb;
transform = "{1, 0, 0, 1, 155, 160}";
}
);
layerId = "950578AD-3C55-42C9-B412-F732192F54B4";
paths = (
{
closed = 1;
nodes = (
"436 580 LINE",
"678 580 LINE",
"678 700 LINE",
"100 700 LINE",
"100 580 LINE",
"301 580 LINE SMOOTH",
"398 580 OFFCURVE",
"480 545 OFFCURVE",
"480 478 CURVE",
"480 421 OFFCURVE",
"425 367 OFFCURVE",
"329 367 CURVE",
"185 367 LINE",
"185 316 LINE",
"256 247 LINE",
"319 247 LINE",
"483 247 OFFCURVE",
"610 350 OFFCURVE",
"610 457 CURVE",
"610 570 OFFCURVE",
"508 640 OFFCURVE",
"409 640 CURVE"
);
},
{
closed = 1;
nodes = (
"185 316 LINE",
"493 0 LINE",
"650 -1 LINE",
"312 341 LINE"
);
}
);
width = 808;
}
);
unicode = 20B9;
},
{
glyphname = sterling;
lastChange = "2018-05-28 15:58:07 +0000";
layers = (
{
layerId = "3D0525B3-6B2A-4787-8D58-1F6DD6CCA7DC";
paths = (
{
closed = 1;
nodes = (
"442 323 LINE",
"442 408 LINE",
"34 408 LINE",
"34 323 LINE"
);
},
{
closed = 1;
nodes = (
"135 114 OFFCURVE",
"70 96 OFFCURVE",
"20 65 CURVE",
"60 -6 LINE",
"92 7 OFFCURVE",
"149 26 OFFCURVE",
"204 26 CURVE",
"254 26 OFFCURVE",
"356 -20 OFFCURVE",
"415 -21 CURVE",
"478 -21 OFFCURVE",
"538 0 OFFCURVE",
"580 37 CURVE",
"528 102 LINE",
"502 86 OFFCURVE",
"463 67 OFFCURVE",
"415 67 CURVE",
"357 67 OFFCURVE",
"286 114 OFFCURVE",
"217 114 CURVE"
);
},
{
closed = 1;
nodes = (
"222 90 OFFCURVE",
"265 146 OFFCURVE",
"265 224 CURVE",
"265 301 OFFCURVE",
"204 406 OFFCURVE",
"204 486 CURVE",
"204 556 OFFCURVE",
"250 617 OFFCURVE",
"330 617 CURVE",
"379 617 OFFCURVE",
"416 600 OFFCURVE",
"445 569 CURVE",
"519 625 LINE",
"492 671 OFFCURVE",
"430 710 OFFCURVE",
"330 710 CURVE",
"189 710 OFFCURVE",
"104 618 OFFCURVE",
"104 487 CURVE",
"104 395 OFFCURVE",
"165 304 OFFCURVE",
"165 201 CURVE",
"165 136 OFFCURVE",
"137 88 OFFCURVE",
"112 74 CURVE",
"187 53 LINE"
);
}
);
width = 620;
},
{
layerId = "950578AD-3C55-42C9-B412-F732192F54B4";
paths = (
{
closed = 1;
nodes = (
"682 306 LINE",
"682 408 LINE",
"134 408 LINE",
"134 306 LINE"
);
},
{
closed = 1;
nodes = (
"235 150 OFFCURVE",
"170 125 OFFCURVE",
"120 81 CURVE",
"160 -6 LINE",
"192 16 OFFCURVE",
"249 46 OFFCURVE",
"304 46 CURVE",
"387 46 OFFCURVE",
"557 -20 OFFCURVE",
"655 -21 CURVE",
"718 -21 OFFCURVE",
"778 7 OFFCURVE",
"820 57 CURVE",
"768 138 LINE",
"742 113 OFFCURVE",
"703 83 OFFCURVE",
"655 83 CURVE",
"556 83 OFFCURVE",
"435 150 OFFCURVE",
"317 150 CURVE"
);
},
{
closed = 1;
nodes = (
"339 90 OFFCURVE",
"385 146 OFFCURVE",
"385 224 CURVE",
"385 301 OFFCURVE",
"324 406 OFFCURVE",
"324 486 CURVE",
"324 556 OFFCURVE",
"376 602 OFFCURVE",
"500 602 CURVE",
"579 602 OFFCURVE",
"638 578 OFFCURVE",
"685 534 CURVE",
"759 605 LINE",
"722 662 OFFCURVE",
"637 710 OFFCURVE",
"500 710 CURVE",
"315 710 OFFCURVE",
"204 618 OFFCURVE",
"204 487 CURVE",
"204 395 OFFCURVE",
"265 304 OFFCURVE",
"265 201 CURVE",
"265 136 OFFCURVE",
"237 88 OFFCURVE",
"212 74 CURVE",
"304 53 LINE"
);
}
);
width = 940;
}
);
note = sterling;
unicode = 00A3;
},
{
glyphname = won;
lastChange = "2018-05-26 16:16:49 +0000";
layers = (
{
components = (
{
name = W;
transform = "{1, 0, 0, 1, 3, 0}";
}
);
layerId = "3D0525B3-6B2A-4787-8D58-1F6DD6CCA7DC";
paths = (
{
closed = 1;
nodes = (
"157 322 LINE",
"205 336 LINE",
"743 336 LINE",
"792 322 LINE",
"928 322 LINE",
"928 415 LINE",
"815 415 LINE",
"779 401 LINE",
"176 401 LINE",
"143 415 LINE",
"24 415 LINE",
"24 322 LINE"
);
}
);
width = 999;
},
{
components = (
{
name = W;
}
);
layerId = "950578AD-3C55-42C9-B412-F732192F54B4";
paths = (
{
closed = 1;
nodes = (
"244 322 LINE",
"292 336 LINE",
"1010 336 LINE",
"1059 322 LINE",
"1185 322 LINE",
"1185 431 LINE",
"1082 431 LINE",
"1046 417 LINE",
"263 417 LINE",
"230 431 LINE",
"111 431 LINE",
"111 322 LINE"
);
}
);
width = 1312;
}
);
leftMetricsKey = W;
rightMetricsKey = W;
unicode = 20A9;
},
{
glyphname = yen;
lastChange = "2018-05-26 16:17:21 +0000";
layers = (
{
components = (
{
name = Y;
}
);
layerId = "3D0525B3-6B2A-4787-8D58-1F6DD6CCA7DC";
paths = (
{
closed = 1;
nodes = (
"558 88 LINE",
"558 174 LINE",
"146 176 LINE",
"146 90 LINE"
);
},
{
closed = 1;
nodes = (
"558 228 LINE",
"558 314 LINE",
"146 316 LINE",
"146 230 LINE"
);
}
);
width = 688;
},
{
components = (
{
name = Y;
}
);
layerId = "950578AD-3C55-42C9-B412-F732192F54B4";
paths = (
{
closed = 1;
nodes = (
"748 73 LINE",
"748 174 LINE",
"256 176 LINE",
"256 75 LINE"
);
},
{
closed = 1;
nodes = (
"748 228 LINE",
"748 329 LINE",
"256 331 LINE",
"256 230 LINE"
);
}
);
width = 984;
}
);
leftMetricsKey = Y;
note = yen;
rightMetricsKey = Y;
unicode = 00A5;
},
{
glyphname = bulletoperator;
lastChange = "2018-05-26 16:20:30 +0000";
layers = (
{
layerId = "3D0525B3-6B2A-4787-8D58-1F6DD6CCA7DC";
paths = (
{
closed = 1;
nodes = (
"161 229 OFFCURVE",
"194 261 OFFCURVE",
"194 301 CURVE SMOOTH",
"194 340 OFFCURVE",
"161 373 OFFCURVE",
"123 373 CURVE SMOOTH",
"83 373 OFFCURVE",
"50 340 OFFCURVE",
"50 301 CURVE SMOOTH",
"50 261 OFFCURVE",
"83 229 OFFCURVE",
"123 229 CURVE SMOOTH"
);
}
);
width = 244;
},
{
layerId = "950578AD-3C55-42C9-B412-F732192F54B4";
paths = (
{
closed = 1;
nodes = (
"306 219 OFFCURVE",
"344 255 OFFCURVE",
"344 301 CURVE SMOOTH",
"344 345 OFFCURVE",
"306 383 OFFCURVE",
"263 383 CURVE SMOOTH",
"218 383 OFFCURVE",
"180 345 OFFCURVE",
"180 301 CURVE SMOOTH",
"180 255 OFFCURVE",
"218 219 OFFCURVE",
"263 219 CURVE SMOOTH"
);
}
);
width = 524;
}
);
note = bulletoperator;
unicode = 2219;
},
{
glyphname = divisionslash;
lastChange = "2018-05-26 16:20:47 +0000";
layers = (
{
layerId = "3D0525B3-6B2A-4787-8D58-1F6DD6CCA7DC";
paths = (
{
closed = 1;
nodes = (
"105 -107 LINE",
"529 756 LINE",
"447 756 LINE",
"23 -107 LINE"
);
}
);
width = 551;
},
{
layerId = "950578AD-3C55-42C9-B412-F732192F54B4";
paths = (
{
closed = 1;
nodes = (
"227 -107 LINE",
"651 756 LINE",
"549 756 LINE",
"125 -107 LINE"
);
}
);
width = 801;
}
);
note = divisionslash;
unicode = 2215;
},
{
glyphname = plus;
lastChange = "2018-05-26 16:21:44 +0000";
layers = (
{
layerId = "3D0525B3-6B2A-4787-8D58-1F6DD6CCA7DC";
paths = (
{
closed = 1;
nodes = (
"546 235 LINE",
"546 325 LINE",
"45 325 LINE",
"45 235 LINE"
);
},
{
closed = 1;
nodes = (
"347 42 LINE",
"347 525 LINE",
"242 525 LINE",
"242 42 LINE"
);
}
);
width = 591;
},
{
layerId = "950578AD-3C55-42C9-B412-F732192F54B4";
paths = (
{
closed = 1;
nodes = (
"751 235 LINE",
"751 350 LINE",
"130 350 LINE",
"130 235 LINE"
);
},
{
closed = 1;
nodes = (
"502 2 LINE",
"502 565 LINE",
"377 565 LINE",
"377 2 LINE"
);
}
);
width = 881;
}
);
note = plus;
unicode = 002B;
},
{
glyphname = minus;
lastChange = "2018-05-26 16:22:12 +0000";
layers = (
{
layerId = "3D0525B3-6B2A-4787-8D58-1F6DD6CCA7DC";
paths = (
{
closed = 1;
nodes = (
"530 247 LINE",
"530 336 LINE",
"50 336 LINE",
"50 247 LINE"
);
}
);
width = 580;
},
{
layerId = "950578AD-3C55-42C9-B412-F732192F54B4";
paths = (
{
closed = 1;
nodes = (
"751 235 LINE",
"751 350 LINE",
"130 350 LINE",
"130 235 LINE"
);
}
);
width = 881;
}
);
note = minus;
unicode = 2212;
},
{
glyphname = multiply;
lastChange = "2018-07-03 11:51:37 +0000";
layers = (
{
layerId = "3D0525B3-6B2A-4787-8D58-1F6DD6CCA7DC";
paths = (
{
closed = 1;
nodes = (
"449 137 LINE",
"99 486 LINE",
"35 426 LINE",
"385 78 LINE"
);
},
{
closed = 1;
nodes = (
"98 71 LINE",
"447 422 LINE",
"387 486 LINE",
"39 136 LINE"
);
}
);
width = 484;
},
{
layerId = "950578AD-3C55-42C9-B412-F732192F54B4";
paths = (
{
closed = 1;
nodes = (
"657 87 LINE",
"207 534 LINE",
"121 453 LINE",
"571 6 LINE"
);
},
{
closed = 1;
nodes = (
"207 6 LINE",
"641 443 LINE",
"564 524 LINE",
"131 89 LINE"
);
}
);
width = 764;
}
);
note = multiply;
unicode = 00D7;
},
{
glyphname = divide;
lastChange = "2018-06-06 12:48:12 +0000";
layers = (
{
layerId = "3D0525B3-6B2A-4787-8D58-1F6DD6CCA7DC";
paths = (
{
closed = 1;
nodes = (
"547 215 LINE",
"547 305 LINE",
"50 305 LINE",
"50 215 LINE"
);
},
{
closed = 1;
nodes = (
"328 15 OFFCURVE",
"358 44 OFFCURVE",
"358 80 CURVE SMOOTH",
"358 116 OFFCURVE",
"328 145 OFFCURVE",
"293 145 CURVE SMOOTH",
"257 145 OFFCURVE",
"227 116 OFFCURVE",
"227 80 CURVE SMOOTH",
"227 44 OFFCURVE",
"257 15 OFFCURVE",
"293 15 CURVE SMOOTH"
);
},
{
closed = 1;
nodes = (
"328 372 OFFCURVE",
"358 401 OFFCURVE",
"358 436 CURVE SMOOTH",
"358 473 OFFCURVE",
"328 502 OFFCURVE",
"293 502 CURVE SMOOTH",
"257 502 OFFCURVE",
"227 473 OFFCURVE",
"227 436 CURVE SMOOTH",
"227 401 OFFCURVE",
"257 372 OFFCURVE",
"293 372 CURVE SMOOTH"
);
}
);
width = 597;
},
{
layerId = "950578AD-3C55-42C9-B412-F732192F54B4";
paths = (
{
closed = 1;
nodes = (
"757 215 LINE",
"757 320 LINE",
"120 320 LINE",
"120 215 LINE"
);
},
{
closed = 1;
nodes = (
"522 15 OFFCURVE",
"559 44 OFFCURVE",
"559 81 CURVE SMOOTH",
"559 116 OFFCURVE",
"522 145 OFFCURVE",
"433 145 CURVE SMOOTH",
"344 145 OFFCURVE",
"307 116 OFFCURVE",
"307 79 CURVE SMOOTH",
"307 44 OFFCURVE",
"344 15 OFFCURVE",
"433 15 CURVE SMOOTH"
);
},
{
closed = 1;
nodes = (
"522 387 OFFCURVE",
"559 416 OFFCURVE",
"559 453 CURVE SMOOTH",
"559 488 OFFCURVE",
"522 517 OFFCURVE",
"433 517 CURVE SMOOTH",
"344 517 OFFCURVE",
"307 488 OFFCURVE",
"307 451 CURVE SMOOTH",
"307 416 OFFCURVE",
"344 387 OFFCURVE",
"433 387 CURVE SMOOTH"
);
}
);
width = 877;
}
);
note = divide;
unicode = 00F7;
},
{
glyphname = equal;
lastChange = "2018-05-26 16:25:15 +0000";
layers = (
{
layerId = "3D0525B3-6B2A-4787-8D58-1F6DD6CCA7DC";
paths = (
{
closed = 1;
nodes = (
"516 331 LINE",
"516 421 LINE",
"50 421 LINE",
"50 331 LINE"
);
},
{
closed = 1;
nodes = (
"516 142 LINE",
"516 231 LINE",
"50 231 LINE",
"50 142 LINE"
);
}
);
width = 566;
},
{
layerId = "950578AD-3C55-42C9-B412-F732192F54B4";
paths = (
{
closed = 1;
nodes = (
"726 331 LINE",
"726 437 LINE",
"120 437 LINE",
"120 331 LINE"
);
},
{
closed = 1;
nodes = (
"726 127 LINE",
"726 231 LINE",
"120 231 LINE",
"120 127 LINE"
);
}
);
width = 846;
}
);
note = equal;
unicode = 003D;
},
